v -1.946342 -0.526684 0.0
v -2.527904 -0.526684 0.0
v -2.527904 -0.003659 0.0
newmtl 1
Ka 1.0 1.0 1.0
Kd 1.0 1.0 1.0
Ks 0.8784313725490196 0.8784313725490196 0.8784313725490196
d 0.0
endmtl
v -4.518859 0.86018 0.0
v -4.459473 1.089184 0.0
v -2.527904 1.089184 0.0
v -2.578706 3.809236 0.0
v -2.527904 3.838965 0.0
v -4.592572 0.261309 0.0
v -4.550434 0.603659 0.0
v -2.527904 0.603659 0.0
v 1.265721 -2.326381 0.0
v 1.308551 -2.359246 0.0
v 1.308551 -3.573025 0.0
v -0.885366 0.031098 0.0
v -0.943902 -0.003659 0.0
v -0.885366 0.096951 0.0
v -0.943902 0.603659 0.0
v -0.797189 0.603659 0.0
v -0.815996 0.602361 0.0
v -0.885366 0.583537 0.0
v -0.885366 0.503049 0.0
v -0.817782 0.531989 0.0
v -0.874612 0.090995 0.0
v -0.744855 0.541463 0.0
v -0.685774 0.534829 0.0
v -0.640865 0.518621 0.0
v -0.599336 0.490839 0.0
v -0.563104 0.450839 0.0
v -0.519512 0.293598 0.0
v -0.525588 0.228644 0.0
v -0.541888 0.177036 0.0
v -0.675401 0.064814 0.0
v -0.731364 0.058537 0.0
v -0.631683 0.080909 0.0
v -0.594859 0.105728 0.0
v -0.566704 0.135431 0.0
v -0.811009 0.067376 0.0
v -0.538368 0.404513 0.0
v -0.522374 0.340281 0.0
v -0.744169 0.607317 0.0
v -0.943902 1.089184 0.0
v -0.699355 0.603659 0.0
v -0.413415 1.089184 0.0
v -0.47069 0.441968 0.0
v -0.505857 0.498064 0.0
v -0.413415 0.603659 0.0
v -0.646333 3.5E-4 0.0
v -0.588179 0.020367 0.0
v -0.413415 -0.003659 0.0
v -0.539915 0.051186 0.0
v -0.494848 0.098633 0.0
v -0.462884 0.155684 0.0
v -0.560027 0.550161 0.0
v -0.617017 0.582965 0.0
v -0.683905 0.602397 0.0
v -0.444826 0.219194 0.0
v -0.439024 0.288681 0.0
v -0.447655 0.373983 0.0
v -0.821409 0.004837 0.0
v -0.76078 -0.003659 0.0
v -0.943902 -0.526684 0.0
v -0.73668 -0.007036 0.0
v -0.720274 -0.007317 0.0
v -0.68499 -0.003659 0.0
v -1.146532 -1.421051 0.0
v -1.265721 -1.265721 0.0
v -1.146532 -2.171051 0.0
v -1.071607 -1.990166 0.0
v -0.943902 -3.573025 0.0
v -1.046051 -1.796051 0.0
v -1.071607 -1.601937 0.0
v -1.946342 -3.573025 0.0
v -1.796051 -2.546051 0.0
v -1.382927 -3.573025 0.0
v -1.601937 -2.520496 0.0
v -1.421051 -2.44557 0.0
v -1.382927 -2.416317 0.0
v -1.265721 -2.326381 0.0
v -2.326381 -2.326381 0.0
v -2.171051 -2.44557 0.0
v -2.527904 -3.573025 0.0
v -1.990166 -2.520496 0.0
v -1.946342 -2.526265 0.0
v -2.527904 -1.933896 0.0
v -2.520496 -1.990166 0.0
v -2.44557 -2.171051 0.0
v -2.527904 -1.658207 0.0
v -2.546051 -1.796051 0.0
v -4.140784 -2.003473 0.0
v -3.842927 -2.528223 0.0
v -3.478949 -3.009471 0.0
v -1.990166 -1.071607 0.0
v -2.171051 -1.146532 0.0
v -2.326381 -1.265721 0.0
v -2.44557 -1.421051 0.0
v -2.520496 -1.601937 0.0
v -1.601937 -1.071607 0.0
v -1.796051 -1.046051 0.0
v -1.946342 -1.065837 0.0
v -1.382927 -1.175786 0.0
v -1.382927 -0.526684 0.0
v -1.421051 -1.146532 0.0
v 1.308551 -1.232856 0.0
v 1.265721 -1.265721 0.0
v 0.482782 -0.526684 0.0
v 1.146532 -1.421051 0.0
v 1.146532 -2.171051 0.0
v 0.482782 -3.573025 0.0
v 1.071607 -1.601937 0.0
v 1.046051 -1.796051 0.0
v 1.071607 -1.990166 0.0
v 1.421051 -2.44557 0.0
v 1.601937 -2.520496 0.0
v 1.796051 -2.546051 0.0
v 1.990166 -1.071607 0.0
v 1.796051 -1.046051 0.0
v 1.308551 -0.526684 0.0
v 1.601937 -1.071607 0.0
v 1.421051 -1.146532 0.0
v 2.520496 -1.601937 0.0
v 2.44557 -1.421051 0.0
v 4.560391 -0.526684 0.0
v 2.326381 -1.265721 0.0
v 2.171051 -1.146532 0.0
v 1.990166 -2.520496 0.0
v 2.8841 -3.573025 0.0
v 2.171051 -2.44557 0.0
v 3.024743 -3.465679 0.0
v 2.326381 -2.326381 0.0
v 3.452342 -3.039956 0.0
v 2.44557 -2.171051 0.0
v 3.82054 -2.561928 0.0
v 2.520496 -1.990166 0.0
v 4.123002 -2.039819 0.0
v 2.546051 -1.796051 0.0
v 4.354522 -1.482612 0.0
v 4.511118 -0.899896 0.0
v -4.907706 -0.261309 0.0
v -4.907706 -0.003659 0.0
v -4.592572 -0.261309 0.0
v -4.559908 -0.526684 0.0
v -4.518859 -0.86018 0.0
v -4.367395 -1.444252 0.0
v -2.527904 -3.838965 0.0
v -2.578706 -3.809236 0.0
v -2.882601 -3.573025 0.0
v -3.05511 -3.438939 0.0
v -2.057932 -4.11399 0.0
v -1.946342 -4.160933 0.0
v -1.501749 -4.347959 0.0
v -1.382927 -4.380452 0.0
v -0.943902 -4.500506 0.0
v -0.413415 -3.573025 0.0
v -0.413415 -4.57623 0.0
v -0.919727 -4.507117 0.0
v 0.482782 -4.565705 0.0
v 0.281505 -4.591378 0.0
v -0.32188 -4.588725 0.0
v 0.880047 -4.515032 0.0
v 2.5451 -3.831771 0.0
v 2.021665 -4.131933 0.0
v 1.463446 -4.361001 0.0
v 1.308551 -4.401896 0.0
v 4.590096 -0.301696 0.0
v 1.308551 -0.003659 0.0
v 4.511118 0.899896 0.0
v 4.550229 0.603659 0.0
v 1.308551 0.603659 0.0
v 4.590096 0.301696 0.0
v 4.590096 -0.003659 0.0
v 1.636952 1.95515 0.0
v 1.601196 1.908551 0.0
v 1.308551 4.401896 0.0
v 1.578718 1.854285 0.0
v 1.571051 1.796051 0.0
v 1.578718 1.737817 0.0
v 1.308551 1.089184 0.0
v 1.601196 1.683551 0.0
v 1.636952 1.636952 0.0
v 1.683551 1.601196 0.0
v 1.737817 1.578718 0.0
v 1.796051 1.571051 0.0
v 1.854285 1.578718 0.0
v 4.46025 1.089184 0.0
v 1.908551 1.601196 0.0
v 1.95515 1.636952 0.0
v 1.990907 1.683551 0.0
v 2.013385 1.737817 0.0
v 4.354522 1.482612 0.0
v 2.021051 1.796051 0.0
v 4.123002 2.039819 0.0
v 3.82054 2.561928 0.0
v 2.013385 1.854285 0.0
v 3.452342 3.039956 0.0
v 1.990907 1.908551 0.0
v 1.95515 1.95515 0.0
v 3.024743 3.465679 0.0
v 1.908551 1.990907 0.0
v 2.5451 3.831771 0.0
v 1.854285 2.013385 0.0
v 2.021665 4.131933 0.0
v 1.796051 2.021051 0.0
v 1.463446 4.361001 0.0
v 1.737817 2.013385 0.0
v 1.683551 1.990907 0.0
v 0.880047 4.515032 0.0
v 0.482782 1.089184 0.0
v 0.482782 4.565705 0.0
v 0.281505 4.591378 0.0
v -0.32188 4.588725 0.0
v -0.413415 4.57623 0.0
v -0.919727 4.507117 0.0
v -0.943902 4.500506 0.0
v -1.382927 1.089184 0.0
v -1.382927 4.380452 0.0
v -1.501749 4.347959 0.0
v -1.946342 1.089184 0.0
v -1.946342 4.160933 0.0
v -2.057932 4.11399 0.0
v -4.367395 1.444252 0.0
v -4.140784 2.003473 0.0
v -3.842927 2.528223 0.0
v -3.478949 3.009471 0.0
v -3.05511 3.438939 0.0
v -0.413415 -0.526684 0.0
v -1.946342 -0.003659 0.0
v -1.382927 -0.003659 0.0
v 0.482782 -0.003659 0.0
v 0.482782 0.603659 0.0
v -0.387805 0.065854 0.0
v -0.387805 0.0 0.0
v -0.080488 0.0 0.0
v -0.160976 0.065854 0.0
v -0.160976 0.6 0.0
v -0.080488 0.6 0.0
v -1.309756 0.6 0.0
v -1.382927 0.603659 0.0
v -1.002439 0.0 0.0
v -1.002439 0.6 0.0
v -1.309756 0.534146 0.0
v -1.32439 0.065854 0.0
v -1.32439 0.0 0.0
v -1.082927 0.270732 0.0
v -1.082927 0.065854 0.0
v -1.295122 0.270732 0.0
v -1.295122 0.336585 0.0
v -1.082927 0.336585 0.0
v -1.082927 0.534146 0.0
v -1.894429 0.164447 0.0
v -1.915971 0.227248 0.0
v -1.92439 0.307546 0.0
v -1.860021 0.11078 0.0
v -1.810635 0.063494 0.0
v -1.747987 0.027087 0.0
v -1.697469 0.590734 0.0
v -1.946342 0.603659 0.0
v -1.610785 0.6 0.0
v -1.767669 0.566083 0.0
v -1.832974 0.522318 0.0
v -1.833602 0.521767 0.0
v -1.876031 0.474719 0.0
v -1.903915 0.423118 0.0
v -1.92003 0.364003 0.0
v -1.678851 0.00648 0.0
v -1.604611 0.0 0.0
v -1.441463 0.0 0.0
v -1.441463 0.6 0.0
v -2.056098 0.0 0.0
v -1.968293 0.0 0.0
v -2.27561 0.6 0.0
v -2.509756 0.0 0.0
v -2.421951 0.0 0.0
v -2.361243 0.168293 0.0
v -2.113377 0.168293 0.0
v -2.195122 0.6 0.0
v -4.907706 0.261309 0.0
v -4.592572 -0.261309 0.5
v -4.518859 -0.86018 0.5
v -4.367395 -1.444252 0.5
v -4.140784 -2.003473 0.5
v -3.842927 -2.528223 0.5
v -3.478949 -3.009471 0.5
v -3.05511 -3.438939 0.5
v -2.578706 -3.809236 0.5
v -2.057932 -4.11399 0.5
v -1.501749 -4.347959 0.5
v -0.919727 -4.507117 0.5
v -0.32188 -4.588725 0.5
v 0.281505 -4.591378 0.5
v 0.880047 -4.515032 0.5
v 1.463446 -4.361001 0.5
v 2.021665 -4.131933 0.5
v 2.5451 -3.831771 0.5
v 3.024743 -3.465679 0.5
v 3.452342 -3.039956 0.5
v 3.82054 -2.561928 0.5
v 4.123002 -2.039819 0.5
v 4.354522 -1.482612 0.5
v 4.511118 -0.899896 0.5
v 4.590096 -0.301696 0.5
v 4.590096 0.301696 0.5
v 4.511118 0.899896 0.5
v 4.354522 1.482612 0.5
v 4.123002 2.039819 0.5
v 3.82054 2.561928 0.5
v 3.452342 3.039956 0.5
v 3.024743 3.465679 0.5
v 2.5451 3.831771 0.5
v 2.021665 4.131933 0.5
v 1.463446 4.361001 0.5
v 0.880047 4.515032 0.5
v 0.281505 4.591378 0.5
v -0.919727 4.507117 0.5
v -0.32188 4.588725 0.5
v -1.501749 4.347959 0.5
v -2.057932 4.11399 0.5
v -2.578706 3.809236 0.5
v -3.05511 3.438939 0.5
v -3.478949 3.009471 0.5
v -3.842927 2.528223 0.5
v -4.140784 2.003473 0.5
v -4.367395 1.444252 0.5
v -4.518859 0.86018 0.5
v -4.592572 0.261309 0.5
v -3.654182 -1.626947 0.5
v -3.845047 -1.102549 0.5
v 1.498426 -3.708735 0.5
v 2.0 -3.464102 0.5
v 2.462646 -3.152043 0.5
v 2.877359 -2.778634 0.5
v 3.236068 -2.351141 0.5
v 3.53179 -1.877886 0.5
v 3.75877 -1.368081 0.5
v 3.912591 -0.831647 0.5
v 3.990256 -0.279026 0.5
v 4.0 0.0 0.5
v 3.990256 0.279026 0.5
v 3.912591 0.831647 0.5
v 3.75877 1.368081 0.5
v 3.53179 1.877886 0.5
v 3.236068 2.351141 0.5
v 2.877359 2.778634 0.5
v 2.462646 3.152043 0.5
v 2.0 3.464102 0.5
v -4.907706 0.261309 0.5
v -4.907706 -0.261309 0.5
v -3.392192 -2.119677 0.5
v -3.064178 -2.571151 0.5
v -2.676522 -2.972579 0.5
v -2.236772 -3.31615 0.5
v -1.753485 -3.595176 0.5
v -1.236068 -3.804226 0.5
v -0.694593 -3.939231 0.5
v -0.139598 -3.997563 0.5
v 0.418114 -3.978088 0.5
v 0.967688 -3.881183 0.5
v 1.498426 3.708735 0.5
v 0.967688 3.881183 0.5
v 0.418114 3.978088 0.5
v -0.139598 3.997563 0.5
v -0.694593 3.939231 0.5
v -1.236068 3.804226 0.5
v -1.753485 3.595176 0.5
v -2.236772 3.31615 0.5
v -2.676522 2.972579 0.5
v -3.064178 2.571151 0.5
v -3.392192 2.119677 0.5
v -3.654182 1.626947 0.5
v -3.845047 1.102549 0.5
v -3.961072 0.556692 0.5
v -4.0 0.0 0.5
v -3.961072 -0.556692 0.5
v -3.995028 -0.199384 4.1
v -3.841056 -1.101318 4.1
v -3.876309 -0.98703 4.1
v -3.955323 -0.596169 4.1
v -3.959291 -0.556514 4.1
v -3.75877 -1.368081 4.1
v -3.650333 -1.625324 4.1
v -3.603875 -1.735535 4.1
v -3.413164 -2.085741 4.1
v -3.18853 -2.415218 4.1
v -3.390714 -2.118669 4.1
v -2.932207 -2.720691 4.1
v -3.060369 -2.567954 4.1
v -2.234506 -3.312642 4.1
v -2.334975 -3.247752 4.1
v -2.646743 -2.999125 4.1
v -2.675273 -2.971298 4.1
v -2.0 -3.464102 4.1
v -1.751579 -3.59146 4.1
v -1.645148 -3.646023 4.1
v -1.273947 -3.791709 4.1
v -0.890084 -3.899712 4.1
v -1.235583 -3.802503 4.1
v -0.497375 -3.968957 4.1
v -0.693729 -3.934334 4.1
v 0.417594 -3.973943 4.1
v 0.29892 -3.988815 4.1
v -0.099723 -3.998757 4.1
v -0.139464 -3.995779 4.1
v 0.694593 -3.939231 4.1
v 0.966758 -3.877111 4.1
v 1.083362 -3.850497 4.1
v 1.461364 -3.723495 4.1
v 1.824843 -3.559487 4.1
v 1.49769 -3.707104 4.1
v 2.170185 -3.360104 4.1
v 1.997514 -3.459795 4.1
v 2.874298 -2.775793 4.1
v 2.792947 -2.863467 4.1
v 2.493959 -3.127326 4.1
v 2.461601 -3.15059 4.1
v 3.064178 -2.571151 4.1
v 3.232739 -2.348619 4.1
v 3.304955 -2.25328 4.1
v 3.512886 -1.913016 4.1
v 3.685905 -1.553739 4.1
v 3.530178 -1.87711 4.1
v 3.822291 -1.179021 4.1
v 3.754098 -1.36638 4.1
v 3.986085 -0.278818 4.1
v 3.980123 -0.398271 4.1
v 3.92069 -0.792585 4.1
v 3.910856 -0.831205 4.1
v 4.0 0.0 4.1
v 3.986085 0.278818 4.1
v 3.980123 0.398271 4.1
v 3.92069 0.792585 4.1
v 3.822291 1.179021 4.1
v 3.910856 0.831205 4.1
v 3.685905 1.553739 4.1
v 3.754098 1.36638 4.1
v 3.232739 2.348619 4.1
v 3.304955 2.25328 4.1
v 3.512886 1.913016 4.1
v 3.530178 1.87711 4.1
v 3.064178 2.571151 4.1
v 2.874298 2.775793 4.1
v 2.792947 2.863467 4.1
v 2.493959 3.127326 4.1
v 2.170185 3.360104 4.1
v 2.461601 3.15059 4.1
v 1.824843 3.559487 4.1
v 1.997514 3.459795 4.1
v 0.966758 3.877111 4.1
v 1.083362 3.850497 4.1
v 1.461364 3.723495 4.1
v 1.49769 3.707104 4.1
v 0.694593 3.939231 4.1
v 0.417594 3.973943 4.1
v 0.29892 3.988815 4.1
v -0.099723 3.998757 4.1
v -0.497375 3.968957 4.1
v -0.139464 3.995779 4.1
v -0.890084 3.899712 4.1
v -0.693729 3.934334 4.1
v -1.751579 3.59146 4.1
v -1.645148 3.646023 4.1
v -1.273947 3.791709 4.1
v -1.235583 3.802503 4.1
v -2.0 3.464102 4.1
v -2.234506 3.312642 4.1
v -2.334975 3.247752 4.1
v -2.646743 2.999125 4.1
v -2.932207 2.720691 4.1
v -2.675273 2.971298 4.1
v -3.18853 2.415218 4.1
v -3.060369 2.567954 4.1
v -3.650333 1.625324 4.1
v -3.603875 1.735535 4.1
v -3.413164 2.085741 4.1
v -3.390714 2.118669 4.1
v -3.75877 1.368081 4.1
v -3.841056 1.101318 4.1
v -3.876309 0.98703 4.1
v -3.955323 0.596169 4.1
v -3.995028 -0.0 4.1
v -3.995028 0.199384 4.1
v -3.959291 0.556514 4.1
v 2.809212 1.915288 4.7
v 2.604551 2.185478 4.7
v 2.35 1.85 4.7
v 3.332587 -0.673697 4.7
v 3.383105 -0.338531 4.7
v 2.35 -1.85 4.7
v -3.194955 -1.162868 4.7
v -3.063294 -1.475205 4.7
v -2.35 1.85 4.7
v 2.374005 2.433947 4.7
v 2.119865 2.658227 4.7
v -2.35 -1.85 4.7
v -2.71025 -2.052935 4.7
v -2.492376 -2.312587 4.7
v 2.809212 -1.915288 4.7
v 2.985953 -1.626063 4.7
v -2.249732 -2.549256 4.7
v -1.984728 -2.760589 4.7
v -2.901189 -1.77288 4.7
v 1.844657 2.856088 4.7
v 1.551116 3.025564 4.7
v 1.242159 3.164971 4.7
v 0.920858 3.272923 4.7
v 0.590404 3.348346 4.7
v 0.254082 3.390493 4.7
v 3.4 -0.0 4.7
v 3.383105 0.338531 4.7
v 3.332587 0.673697 4.7
v 3.248947 1.002168 4.7
v 3.133019 1.320678 4.7
v 2.985953 1.626063 4.7
v 1.844657 -2.856088 4.7
v 2.119865 -2.658227 4.7
v -2.492376 2.312587 4.7
v -2.71025 2.052935 4.7
v -2.901189 1.77288 4.7
v 3.133019 -1.320678 4.7
v 3.248947 -1.002168 4.7
v -1.7 -2.944486 4.7
v -1.398376 -3.09912 4.7
v -1.082855 -3.222953 4.7
v 2.374005 -2.433947 4.7
v 2.604551 -2.185478 4.7
v -3.063294 1.475205 4.7
v -3.194955 1.162868 4.7
v -3.294863 0.838975 4.7
v -0.084764 3.398943 4.7
v -0.422769 3.373613 4.7
v -0.756571 3.314755 4.7
v -1.082855 3.222953 4.7
v -1.398376 3.09912 4.7
v -1.7 2.944486 4.7
v -1.984728 2.760589 4.7
v -2.249732 2.549256 4.7
v -3.362025 0.506744 4.7
v -3.395773 0.169476 4.7
v -3.395773 -0.169476 4.7
v -3.362025 -0.506744 4.7
v -3.294863 -0.838975 4.7
v -0.756571 -3.314755 4.7
v -0.422769 -3.373613 4.7
v -0.084764 -3.398943 4.7
v 0.254082 -3.390493 4.7
v 0.590404 -3.348346 4.7
v 0.920858 -3.272923 4.7
v 1.242159 -3.164971 4.7
v 1.551116 -3.025564 4.7
v 3.965155 0.396774 4.233512
v 3.807916 1.174587 4.233512
v 3.499675 1.905821 4.233512
v 3.052654 2.561481 4.233512
v 2.162024 3.347467 4.233512
v 1.455868 3.709491 4.233512
v 0.69198 3.924416 4.233512
v -0.495504 3.95403 4.233512
v -0.886736 3.885046 4.233512
v -1.269156 3.777449 4.233512
v -1.992478 3.451074 4.233512
v -2.92118 2.710459 4.233512
v -3.176538 2.406135 4.233512
v -3.400327 2.077897 4.233512
v -3.744634 1.362936 4.233512
v -3.980003 0.198634 4.233512
v -3.980003 -0.198634 4.233512
v -3.940448 -0.593927 4.233512
v -3.744634 -1.362936 4.233512
v -3.176538 -2.406135 4.233512
v -2.636789 -2.987846 4.233512
v -1.992478 -3.451074 4.233512
v -0.886736 -3.885046 4.233512
v -0.495504 -3.95403 4.233512
v -0.099348 -3.983718 4.233512
v 0.69198 -3.924416 4.233512
v 1.81798 -3.546101 4.233512
v 2.48458 -3.115565 4.233512
v 3.052654 -2.561481 4.233512
v 3.672043 -1.547896 4.233512
v 3.256048 -1.372539 4.684957
v 3.376529 -1.041521 4.684957
v 3.497712 -1.078901 4.640582
v 3.463452 -0.700152 4.684957
v 3.587755 -0.72528 4.640582
v 3.699263 -0.747822 4.569099
v 3.515954 -0.351824 4.684957
v 3.642141 -0.364451 4.640582
v 3.75534 -0.375778 4.569099
v 3.849872 -0.385238 4.474093
v 3.533513 0.0 4.684957
v 3.66033 0.0 4.640582
v 3.774094 0.0 4.569099
v 3.869099 0.0 4.474093
v 3.940581 0.0 4.36033
v 3.515954 0.351824 4.684957
v 3.642141 0.364451 4.640582
v 3.75534 0.375778 4.569099
v 3.849872 0.385238 4.474093
v 3.921 0.392355 4.36033
v 3.921 -0.392355 4.36033
v 3.965155 -0.396774 4.233512
v 3.984957 0.0 4.233512
v 3.905945 -0.789604 4.233512
v 3.862449 -0.780811 4.36033
v 3.792384 -0.766647 4.474093
v 3.807916 -1.174587 4.233512
v 3.631152 -1.530659 4.36033
v 3.765512 -1.161507 4.36033
v 3.565283 -1.502893 4.474093
v 3.697206 -1.140437 4.474093
v 3.477738 -1.465989 4.569099
v 3.606421 -1.112434 4.569099
v 3.372907 -1.4218 4.640582
v 2.919525 -1.990499 4.684957
v 2.706828 -2.271298 4.684957
v 3.024307 -2.061938 4.640582
v 2.803976 -2.352815 4.640582
v 3.118303 -2.126023 4.569099
v 2.891124 -2.425941 4.569099
v 3.1968 -2.179541 4.474093
v 2.963902 -2.487009 4.474093
v 3.255861 -2.219809 4.36033
v 3.018661 -2.532957 4.36033
v 3.292526 -2.244806 4.233512
v 1.917094 -2.968242 4.684957
v 1.612026 -3.144373 4.684957
v 1.985898 -3.074772 4.640582
v 1.669882 -3.257225 4.640582
v 2.047621 -3.170336 4.569099
v 1.721782 -3.35846 4.569099
v 2.099165 -3.250143 4.474093
v 1.765124 -3.443002 4.474093
v 2.137948 -3.31019 4.36033
v 1.797735 -3.506612 4.36033
v 2.162024 -3.347467 4.233512
v 0.957018 -3.401445 4.684957
v 0.613588 -3.479831 4.684957
v 0.991366 -3.523523 4.640582
v 0.63561 -3.604722 4.640582
v 1.022177 -3.633034 4.569099
v 0.655365 -3.716757 4.569099
v 1.047909 -3.724488 4.474093
v 0.671862 -3.810319 4.474093
v 1.067269 -3.793299 4.36033
v 0.684275 -3.880715 4.36033
v 1.079288 -3.836016 4.233512
v -1.453288 -3.220817 4.684957
v -1.766756 -3.060112 4.684957
v -1.505447 -3.336412 4.640582
v -1.830165 -3.169939 4.640582
v -1.552236 -3.440109 4.569099
v -1.887047 -3.268461 4.569099
v -1.591311 -3.526706 4.474093
v -1.934549 -3.350738 4.474093
v -1.62071 -3.591863 4.36033
v -1.970291 -3.412643 4.36033
v -1.638961 -3.632312 4.233512
v -2.590248 -2.403399 4.684957
v -2.816678 -2.13355 4.684957
v -2.683212 -2.489657 4.640582
v -2.917768 -2.210124 4.640582
v -2.766607 -2.567036 4.569099
v -3.008453 -2.278815 4.569099
v -2.83625 -2.631656 4.474093
v -3.084185 -2.336179 4.474093
v -2.88865 -2.680276 4.36033
v -3.141165 -2.37934 4.36033
v -2.92118 -2.710459 4.233512
v -3.183585 -1.533134 4.684957
v -3.320416 -1.208532 4.684957
v -3.297843 -1.588158 4.640582
v -3.439585 -1.251907 4.640582
v -3.400341 -1.637518 4.569099
v -3.546488 -1.290816 4.569099
v -3.485938 -1.678739 4.474093
v -3.635764 -1.32331 4.474093
v -3.550341 -1.709754 4.36033
v -3.702935 -1.347758 4.36033
v -3.590322 -1.729008 4.233512
v -3.424247 0.87192 4.684957
v -3.320416 1.208532 4.684957
v -3.547143 0.903214 4.640582
v -3.439585 1.251907 4.640582
v -3.657389 0.931286 4.569099
v -3.546488 1.290816 4.569099
v -3.749456 0.954729 4.474093
v -3.635764 1.32331 4.474093
v -3.818728 0.972368 4.36033
v -3.702935 1.347758 4.36033
v -3.861731 0.983317 4.233512
v -2.062665 2.868993 4.684957
v -1.766756 3.060112 4.684957
v -2.136695 2.971961 4.640582
v -1.830165 3.169939 4.640582
v -2.203103 3.06433 4.569099
v -1.887047 3.268461 4.569099
v -2.258562 3.141468 4.474093
v -1.934549 3.350738 4.474093
v -2.300289 3.199508 4.36033
v -1.970291 3.412643 4.36033
v -2.326193 3.235538 4.233512
v 0.26406 3.523632 4.684957
v 0.613588 3.479831 4.684957
v 0.273537 3.650095 4.640582
v 0.63561 3.604722 4.640582
v 0.282038 3.763541 4.569099
v 0.655365 3.716757 4.569099
v 0.289138 3.85828 4.474093
v 0.671862 3.810319 4.474093
v 0.29448 3.929563 4.36033
v 0.684275 3.880715 4.36033
v 0.297796 3.973814 4.233512
v 1.612026 3.144373 4.684957
v 1.917094 2.968242 4.684957
v 1.669882 3.257225 4.640582
v 1.985898 3.074772 4.640582
v 1.721782 3.35846 4.569099
v 2.047621 3.170336 4.569099
v 1.765124 3.443002 4.474093
v 2.099165 3.250143 4.474093
v 1.797735 3.506612 4.36033
v 2.137948 3.31019 4.36033
v 1.81798 3.546101 4.233512
v 2.467229 2.529525 4.684957
v 2.706828 2.271298 4.684957
v 2.555777 2.620309 4.640582
v 2.803976 2.352815 4.640582
v 2.635211 2.701749 4.569099
v 2.891124 2.425941 4.569099
v 2.701547 2.76976 4.474093
v 2.963902 2.487009 4.474093
v 2.751459 2.820932 4.36033
v 3.018661 2.532957 4.36033
v 2.782444 2.852698 4.233512
v 3.256048 1.372539 4.684957
v 3.376529 1.041521 4.684957
v 3.372907 1.4218 4.640582
v 3.497712 1.078901 4.640582
v 3.477738 1.465989 4.569099
v 3.606421 1.112434 4.569099
v 3.565283 1.502893 4.474093
v 3.697206 1.140437 4.474093
v 3.631152 1.530659 4.36033
v 3.765512 1.161507 4.36033
v 3.672043 1.547896 4.233512
v 3.499675 -1.905821 4.233512
v 3.460703 -1.884599 4.36033
v 3.397926 -1.850412 4.474093
v 3.314491 -1.804975 4.569099
v 3.214581 -1.750567 4.640582
v 3.103207 -1.689916 4.684957
v 2.782444 -2.852698 4.233512
v 2.751459 -2.820932 4.36033
v 2.701547 -2.76976 4.474093
v 2.635211 -2.701749 4.569099
v 2.555777 -2.620309 4.640582
v 2.467229 -2.529525 4.684957
v 2.203109 -2.762611 4.684957
v 2.282178 -2.861762 4.640582
v 2.353109 -2.950705 4.569099
v 2.412344 -3.024983 4.474093
v 2.456912 -3.08087 4.36033
v 1.455868 -3.709491 4.233512
v 1.439656 -3.668184 4.36033
v 1.413541 -3.601643 4.474093
v 1.378831 -3.513205 4.569099
v 1.337269 -3.407305 4.640582
v 1.290937 -3.289254 4.684957
v 0.297796 -3.973814 4.233512
v 0.29448 -3.929563 4.36033
v 0.289138 -3.85828 4.474093
v 0.282038 -3.763541 4.569099
v 0.273537 -3.650095 4.640582
v 0.26406 -3.523632 4.684957
v -0.088093 -3.532414 4.684957
v -0.091255 -3.659193 4.640582
v -0.094091 -3.772921 4.569099
v -0.096459 -3.867896 4.474093
v -0.098241 -3.939357 4.36033
v -0.489987 -3.91 4.36033
v -0.481098 -3.839072 4.474093
v -0.469285 -3.744804 4.569099
v -0.455139 -3.631923 4.640582
v -0.43937 -3.50609 4.684957
v -0.876862 -3.841783 4.36033
v -0.860956 -3.772093 4.474093
v -0.839815 -3.679469 4.569099
v -0.8145 -3.568558 4.640582
v -0.786281 -3.44492 4.684957
v -1.269156 -3.777449 4.233512
v -1.255023 -3.735385 4.36033
v -1.232256 -3.667625 4.474093
v -1.201999 -3.577567 4.569099
v -1.165766 -3.469727 4.640582
v -1.125377 -3.349513 4.684957
v -2.326193 -3.235538 4.233512
v -2.300289 -3.199508 4.36033
v -2.258562 -3.141468 4.474093
v -2.203103 -3.06433 4.569099
v -2.136695 -2.971961 4.640582
v -2.062665 -2.868993 4.684957
v -2.338075 -2.649361 4.684957
v -2.421989 -2.744447 4.640582
v -2.497264 -2.829745 4.569099
v -2.560128 -2.900978 4.474093
v -2.607427 -2.954574 4.36033
v -3.400327 -2.077897 4.233512
v -3.362462 -2.054758 4.36033
v -3.301467 -2.017484 4.474093
v -3.2204 -1.967945 4.569099
v -3.123327 -1.908625 4.640582
v -3.015114 -1.842498 4.684957
v -3.861731 -0.983317 4.233512
v -3.818728 -0.972368 4.36033
v -3.749456 -0.954729 4.474093
v -3.657389 -0.931286 4.569099
v -3.547143 -0.903214 4.640582
v -3.424247 -0.87192 4.684957
v -3.494046 -0.526643 4.684957
v -3.619447 -0.545544 4.640582
v -3.731941 -0.5625 4.569099
v -3.825884 -0.576659 4.474093
v -3.896568 -0.587313 4.36033
v -3.935683 -0.196422 4.36033
v -3.864289 -0.192859 4.474093
v -3.769403 -0.188123 4.569099
v -3.65578 -0.182452 4.640582
v -3.52912 -0.176131 4.684957
v -3.935683 0.196422 4.36033
v -3.864289 0.192859 4.474093
v -3.769403 0.188123 4.569099
v -3.65578 0.182452 4.640582
v -3.52912 0.176131 4.684957
v -3.940448 0.593927 4.233512
v -3.896568 0.587313 4.36033
v -3.825884 0.576659 4.474093
v -3.731941 0.5625 4.569099
v -3.619447 0.545544 4.640582
v -3.494046 0.526643 4.684957
v -3.590322 1.729008 4.233512
v -3.550341 1.709754 4.36033
v -3.485938 1.678739 4.474093
v -3.400341 1.637518 4.569099
v -3.297843 1.588158 4.640582
v -3.183585 1.533134 4.684957
v -3.015114 1.842498 4.684957
v -3.123327 1.908625 4.640582
v -3.2204 1.967945 4.569099
v -3.301467 2.017484 4.474093
v -3.362462 2.054758 4.36033
v -3.141165 2.37934 4.36033
v -3.084185 2.336179 4.474093
v -3.008453 2.278815 4.569099
v -2.917768 2.210124 4.640582
v -2.816678 2.13355 4.684957
v -2.88865 2.680276 4.36033
v -2.83625 2.631656 4.474093
v -2.766607 2.567036 4.569099
v -2.683212 2.489657 4.640582
v -2.590248 2.403399 4.684957
v -2.636789 2.987846 4.233512
v -2.607427 2.954574 4.36033
v -2.560128 2.900978 4.474093
v -2.497264 2.829745 4.569099
v -2.421989 2.744447 4.640582
v -2.338075 2.649361 4.684957
v -1.638961 3.632312 4.233512
v -1.62071 3.591863 4.36033
v -1.591311 3.526706 4.474093
v -1.552236 3.440109 4.569099
v -1.505447 3.336412 4.640582
v -1.453288 3.220817 4.684957
v -1.125377 3.349513 4.684957
v -1.165766 3.469727 4.640582
v -1.201999 3.577567 4.569099
v -1.232256 3.667625 4.474093
v -1.255023 3.735385 4.36033
v -0.876862 3.841783 4.36033
v -0.860956 3.772093 4.474093
v -0.839815 3.679469 4.569099
v -0.8145 3.568558 4.640582
v -0.786281 3.44492 4.684957
v -0.489987 3.91 4.36033
v -0.481098 3.839072 4.474093
v -0.469285 3.744804 4.569099
v -0.455139 3.631923 4.640582
v -0.43937 3.50609 4.684957
v -0.099348 3.983718 4.233512
v -0.098241 3.939357 4.36033
v -0.096459 3.867896 4.474093
v -0.094091 3.772921 4.569099
v -0.091255 3.659193 4.640582
v -0.088093 3.532414 4.684957
v 1.079288 3.836016 4.233512
v 1.067269 3.793299 4.36033
v 1.047909 3.724488 4.474093
v 1.022177 3.633034 4.569099
v 0.991366 3.523523 4.640582
v 0.957018 3.401445 4.684957
v 1.290937 3.289254 4.684957
v 1.337269 3.407305 4.640582
v 1.378831 3.513205 4.569099
v 1.413541 3.601643 4.474093
v 1.439656 3.668184 4.36033
v 2.48458 3.115565 4.233512
v 2.456912 3.08087 4.36033
v 2.412344 3.024983 4.474093
v 2.353109 2.950705 4.569099
v 2.282178 2.861762 4.640582
v 2.203109 2.762611 4.684957
v 3.292526 2.244806 4.233512
v 3.255861 2.219809 4.36033
v 3.1968 2.179541 4.474093
v 3.118303 2.126023 4.569099
v 3.024307 2.061938 4.640582
v 2.919525 1.990499 4.684957
v 3.103207 1.689916 4.684957
v 3.214581 1.750567 4.640582
v 3.314491 1.804975 4.569099
v 3.397926 1.850412 4.474093
v 3.460703 1.884599 4.36033
v 3.905945 0.789604 4.233512
v 3.862449 0.780811 4.36033
v 3.792384 0.766647 4.474093
v 3.699263 0.747822 4.569099
v 3.587755 0.72528 4.640582
v 3.463452 0.700152 4.684957
v -2.35 -1.85 4.6
v -2.35 1.85 4.6
v 2.35 1.85 4.6
v 2.35 -1.85 4.6
v 1.265721 -1.265721 0.1
v 1.421051 -1.146532 0.1
v 1.601937 -1.071607 0.1
v 1.796051 -1.046051 0.1
v 1.990166 -1.071607 0.1
v 2.171051 -1.146532 0.1
v 2.326381 -1.265721 0.1
v 2.44557 -1.421051 0.1
v 2.520496 -1.601937 0.1
v 2.546051 -1.796051 0.1
v 2.520496 -1.990166 0.1
v 2.44557 -2.171051 0.1
v 2.326381 -2.326381 0.1
v 2.171051 -2.44557 0.1
v 1.990166 -2.520496 0.1
v 1.796051 -2.546051 0.1
v 1.601937 -2.520496 0.1
v 1.421051 -2.44557 0.1
v 1.265721 -2.326381 0.1
v 1.146532 -2.171051 0.1
v 1.071607 -1.990166 0.1
v 1.046051 -1.796051 0.1
v 1.071607 -1.601937 0.1
v 1.146532 -1.421051 0.1
v 1.636952 -1.636952 0.1
v 1.683551 -1.601196 0.1
v 1.737817 -1.578718 0.1
v 1.796051 -1.571051 0.1
v 1.854285 -1.578718 0.1
v 1.908551 -1.601196 0.1
v 1.95515 -1.636952 0.1
v 1.990907 -1.683551 0.1
v 2.013385 -1.737817 0.1
v 2.021051 -1.796051 0.1
v 2.013385 -1.854285 0.1
v 1.990907 -1.908551 0.1
v 1.95515 -1.95515 0.1
v 1.908551 -1.990907 0.1
v 1.854285 -2.013385 0.1
v 1.796051 -2.021051 0.1
v 1.737817 -2.013385 0.1
v 1.683551 -1.990907 0.1
v 1.636952 -1.95515 0.1
v 1.601196 -1.908551 0.1
v 1.578718 -1.854285 0.1
v 1.571051 -1.796051 0.1
v 1.578718 -1.737817 0.1
v 1.601196 -1.683551 0.1
v -2.546051 -1.796051 0.1
v -2.520496 -1.601937 0.1
v -2.44557 -1.421051 0.1
v -2.326381 -1.265721 0.1
v -2.171051 -1.146532 0.1
v -1.990166 -1.071607 0.1
v -1.796051 -1.046051 0.1
v -1.601937 -1.071607 0.1
v -1.421051 -1.146532 0.1
v -1.265721 -1.265721 0.1
v -1.146532 -1.421051 0.1
v -1.071607 -1.601937 0.1
v -1.046051 -1.796051 0.1
v -1.071607 -1.990166 0.1
v -1.146532 -2.171051 0.1
v -1.265721 -2.326381 0.1
v -1.421051 -2.44557 0.1
v -1.601937 -2.520496 0.1
v -1.796051 -2.546051 0.1
v -1.990166 -2.520496 0.1
v -2.171051 -2.44557 0.1
v -2.326381 -2.326381 0.1
v -2.44557 -2.171051 0.1
v -2.520496 -1.990166 0.1
v -1.990907 -1.683551 0.1
v -1.95515 -1.636952 0.1
v -1.908551 -1.601196 0.1
v -1.854285 -1.578718 0.1
v -1.796051 -1.571051 0.1
v -1.737817 -1.578718 0.1
v -1.683551 -1.601196 0.1
v -1.636952 -1.636952 0.1
v -1.601196 -1.683551 0.1
v -1.578718 -1.737817 0.1
v -1.571051 -1.796051 0.1
v -1.578718 -1.854285 0.1
v -1.601196 -1.908551 0.1
v -1.636952 -1.95515 0.1
v -1.683551 -1.990907 0.1
v -1.737817 -2.013385 0.1
v -1.796051 -2.021051 0.1
v -1.854285 -2.013385 0.1
v -1.908551 -1.990907 0.1
v -1.95515 -1.95515 0.1
v -1.990907 -1.908551 0.1
v -2.013385 -1.854285 0.1
v -2.021051 -1.796051 0.1
v -2.013385 -1.737817 0.1
v -2.021051 -1.796051 -5.0
v -2.013385 -1.737817 -5.0
v -1.990907 -1.683551 -5.0
v -1.95515 -1.636952 -5.0
v -1.908551 -1.601196 -5.0
v -1.854285 -1.578718 -5.0
v -1.796051 -1.571051 -5.0
v -1.737817 -1.578718 -5.0
v -1.683551 -1.601196 -5.0
v -1.636952 -1.636952 -5.0
v -1.601196 -1.683551 -5.0
v -1.578718 -1.737817 -5.0
v -1.571051 -1.796051 -5.0
v -1.578718 -1.854285 -5.0
v -1.601196 -1.908551 -5.0
v -1.636952 -1.95515 -5.0
v -1.683551 -1.990907 -5.0
v -1.737817 -2.013385 -5.0
v -1.796051 -2.021051 -5.0
v -1.854285 -2.013385 -5.0
v -1.908551 -1.990907 -5.0
v -1.95515 -1.95515 -5.0
v -1.990907 -1.908551 -5.0
v -2.013385 -1.854285 -5.0
v -1.796051 -1.796051 -5.0
v 1.571051 1.796051 -5.0
v 1.578718 1.854285 -5.0
v 1.601196 1.908551 -5.0
v 1.636952 1.95515 -5.0
v 1.683551 1.990907 -5.0
v 1.737817 2.013385 -5.0
v 1.796051 2.021051 -5.0
v 1.854285 2.013385 -5.0
v 1.908551 1.990907 -5.0
v 1.95515 1.95515 -5.0
v 1.990907 1.908551 -5.0
v 2.013385 1.854285 -5.0
v 2.021051 1.796051 -5.0
v 2.013385 1.737817 -5.0
v 1.990907 1.683551 -5.0
v 1.95515 1.636952 -5.0
v 1.908551 1.601196 -5.0
v 1.854285 1.578718 -5.0
v 1.796051 1.571051 -5.0
v 1.737817 1.578718 -5.0
v 1.683551 1.601196 -5.0
v 1.636952 1.636952 -5.0
v 1.601196 1.683551 -5.0
v 1.578718 1.737817 -5.0
v 1.796051 1.796051 -5.0
v 1.571051 -1.796051 -5.0
v 1.578718 -1.737817 -5.0
v 1.601196 -1.683551 -5.0
v 1.636952 -1.636952 -5.0
v 1.683551 -1.601196 -5.0
v 1.737817 -1.578718 -5.0
v 1.796051 -1.571051 -5.0
v 1.854285 -1.578718 -5.0
v 1.908551 -1.601196 -5.0
v 1.95515 -1.636952 -5.0
v 1.990907 -1.683551 -5.0
v 2.013385 -1.737817 -5.0
v 2.021051 -1.796051 -5.0
v 2.013385 -1.854285 -5.0
v 1.990907 -1.908551 -5.0
v 1.95515 -1.95515 -5.0
v 1.908551 -1.990907 -5.0
v 1.854285 -2.013385 -5.0
v 1.796051 -2.021051 -5.0
v 1.737817 -2.013385 -5.0
v 1.683551 -1.990907 -5.0
v 1.636952 -1.95515 -5.0
v 1.601196 -1.908551 -5.0
v 1.578718 -1.854285 -5.0
v 1.796051 -1.796051 -5.0
v -0.387805 0.065854 0.1
v -0.387805 0.0 0.1
v -0.080488 0.0 0.1
v -0.080488 0.6 0.1
v -0.160976 0.6 0.1
v -0.160976 0.065854 0.1
v -2.27561 0.6 0.1
v -2.509756 0.0 0.1
v -2.421951 0.0 0.1
v -2.361243 0.168293 0.1
v -2.113377 0.168293 0.1
v -2.056098 -0.0 0.1
v -1.968293 0.0 0.1
v -2.195122 0.6 0.1
v -2.133613 0.234146 0.1
v -2.334261 0.234146 0.1
v -2.223133 0.484756 0.1
v -2.228907 0.505565 0.1
v -2.232736 0.526829 0.1
v -2.23468 0.526829 0.1
v -2.238595 0.505629 0.1
v -2.243941 0.484756 0.1
v -2.133613 0.234146 0.0
v -2.334261 0.234146 0.0
v -2.223133 0.484756 0.0
v -2.228907 0.505565 0.0
v -2.232736 0.526829 0.0
v -2.23468 0.526829 0.0
v -2.238595 0.505629 -0.0
v -2.243941 0.484756 0.0
v -1.604611 0.0 0.1
v -1.441463 0.0 0.1
v -1.441463 0.6 0.1
v -1.610785 0.6 0.1
v -1.92439 0.307546 0.1
v -1.92003 0.364003 0.1
v -1.903915 0.423118 0.1
v -1.876031 0.474719 0.1
v -1.833602 0.521767 0.1
v -1.832974 0.522318 0.1
v -1.767669 0.566083 0.1
v -1.697469 0.590734 0.1
v -1.678851 0.00648 0.1
v -1.747987 0.027087 0.1
v -1.810635 0.063494 0.1
v -1.860021 0.11078 0.1
v -1.894429 0.164447 0.1
v -1.915971 0.227248 0.1
v -1.803954 0.450008 0.1
v -1.774811 0.480953 0.1
v -1.730984 0.509266 0.1
v -1.681458 0.526597 0.1
v -1.610442 0.534146 0.1
v -1.521951 0.534146 0.1
v -1.521951 0.065854 0.1
v -1.607127 0.065854 0.1
v -1.670427 0.071745 0.1
v -1.720918 0.087506 0.1
v -1.761837 0.111804 0.1
v -1.795489 0.145043 0.1
v -1.820796 0.186411 0.1
v -1.838394 0.242811 0.1
v -1.843902 0.305831 0.1
v -1.838805 0.365546 0.1
v -1.824799 0.413002 0.1
v -1.610442 0.534146 0.0
v -1.521951 0.534146 0.0
v -1.681458 0.526597 0.0
v -1.730984 0.509266 0.0
v -1.774811 0.480953 0.0
v -1.803954 0.450008 0.0
v -1.824799 0.413002 0.0
v -1.838805 0.365546 0.0
v -1.843902 0.305831 0.0
v -1.838394 0.242811 0.0
v -1.820796 0.186411 0.0
v -1.795489 0.145043 -0.0
v -1.761837 0.111804 -0.0
v -1.720918 0.087506 0.0
v -1.670427 0.071745 0.0
v -1.607127 0.065854 -0.0
v -1.521951 0.065854 0.0
v -1.32439 0.065854 0.1
v -1.32439 0.0 0.1
v -1.002439 0.0 0.1
v -1.002439 0.6 0.1
v -1.309756 0.6 0.1
v -1.309756 0.534146 0.1
v -1.082927 0.534146 0.1
v -1.082927 0.336585 0.1
v -1.295122 0.336585 0.1
v -1.295122 0.270732 0.1
v -1.082927 0.270732 0.1
v -1.082927 0.065854 0.1
v -0.885366 0.096951 0.1
v -0.885366 0.031098 0.1
v -0.821409 0.004837 0.1
v -0.720274 -0.007317 0.1
v -0.73668 -0.007036 0.1
v -0.646333 3.5E-4 0.1
v -0.588179 0.020367 0.1
v -0.539915 0.051186 0.1
v -0.494848 0.098633 0.1
v -0.462884 0.155684 0.1
v -0.444826 0.219194 0.1
v -0.439024 0.288681 0.1
v -0.744169 0.607317 0.1
v -0.683905 0.602397 0.1
v -0.617017 0.582965 0.1
v -0.560027 0.550161 0.1
v -0.505857 0.498064 0.1
v -0.47069 0.441968 0.1
v -0.447655 0.373983 0.1
v -0.815996 0.602361 0.1
v -0.885366 0.583537 0.1
v -0.885366 0.503049 0.1
v -0.744855 0.541463 0.1
v -0.817782 0.531989 0.1
v -0.519512 0.293598 0.1
v -0.522374 0.340281 0.1
v -0.538368 0.404513 0.1
v -0.563104 0.450839 0.1
v -0.599336 0.490839 0.1
v -0.640865 0.518621 0.1
v -0.685774 0.534829 0.1
v -0.731364 0.058537 0.1
v -0.675401 0.064814 0.1
v -0.631683 0.080909 0.1
v -0.594859 0.105728 0.1
v -0.566704 0.135431 0.1
v -0.541888 0.177036 0.1
v -0.525588 0.228644 0.1
v -0.874612 0.090995 0.1
v -0.811009 0.067376 0.1
usemtl 1
f 1// 2// 3//
f 4// 5// 6//
f 7// 8// 6//
f 9// 10// 11//
f 12// 13// 14//
f 15// 16// 17//
f 17// 16// 18//
f 18// 19// 20//
f 20// 21// 18//
f 18// 21// 22//
f 18// 22// 17//
f 17// 22// 23//
f 17// 23// 24//
f 24// 23// 25//
f 24// 25// 26//
f 26// 27// 24//
f 24// 27// 28//
f 24// 28// 29//
f 30// 31// 24//
f 24// 31// 32//
f 33// 34// 35//
f 35// 34// 36//
f 32// 37// 24//
f 24// 37// 36//
f 24// 36// 38//
f 38// 36// 34//
f 29// 39// 24//
f 24// 39// 40//
f 24// 40// 30//
f 41// 42// 43//
f 43// 42// 44//
f 45// 46// 47//
f 48// 49// 50//
f 49// 51// 50//
f 50// 51// 52//
f 50// 52// 53//
f 46// 54// 47//
f 47// 54// 55//
f 47// 55// 56//
f 53// 57// 50//
f 50// 57// 58//
f 50// 58// 47//
f 47// 58// 59//
f 47// 59// 45//
f 15// 60// 16//
f 16// 60// 61//
f 16// 61// 62//
f 61// 63// 62//
f 62// 63// 64//
f 62// 64// 65//
f 62// 66// 67//
f 68// 69// 70//
f 70// 69// 71//
f 70// 71// 62//
f 62// 71// 72//
f 62// 72// 66//
f 73// 74// 75//
f 75// 74// 76//
f 76// 77// 75//
f 75// 77// 78//
f 75// 78// 70//
f 70// 78// 79//
f 70// 79// 68//
f 80// 81// 82//
f 82// 81// 83//
f 82// 83// 73//
f 73// 83// 84//
f 73// 84// 74//
f 85// 86// 82//
f 82// 86// 87//
f 82// 87// 80//
f 88// 89// 90//
f 90// 89// 85//
f 90// 85// 91//
f 91// 85// 92//
f 1// 93// 2//
f 2// 93// 94//
f 2// 94// 95//
f 95// 96// 2//
f 2// 96// 97//
f 2// 97// 88//
f 98// 99// 1//
f 1// 99// 100//
f 1// 100// 93//
f 67// 101// 102//
f 102// 101// 103//
f 104// 105// 106//
f 106// 105// 107//
f 108// 12// 109//
f 107// 110// 106//
f 106// 110// 111//
f 106// 111// 109//
f 109// 111// 112//
f 109// 112// 108//
f 13// 113// 14//
f 14// 113// 114//
f 14// 114// 115//
f 116// 117// 118//
f 117// 119// 118//
f 118// 119// 120//
f 118// 120// 104//
f 121// 122// 123//
f 123// 122// 124//
f 123// 124// 125//
f 115// 126// 127//
f 127// 126// 128//
f 127// 128// 129//
f 129// 128// 130//
f 129// 130// 131//
f 131// 130// 132//
f 131// 132// 133//
f 133// 132// 134//
f 133// 134// 135//
f 135// 134// 136//
f 135// 136// 137//
f 137// 136// 121//
f 137// 121// 138//
f 138// 121// 123//
f 139// 140// 141//
f 141// 140// 3//
f 141// 3// 142//
f 142// 3// 2//
f 142// 2// 143//
f 143// 2// 88//
f 143// 88// 144//
f 144// 88// 90//
f 145// 146// 82//
f 82// 146// 147//
f 82// 147// 85//
f 85// 147// 148//
f 85// 148// 92//
f 145// 82// 149//
f 149// 82// 73//
f 149// 73// 150//
f 150// 73// 151//
f 151// 73// 75//
f 151// 75// 152//
f 152// 75// 70//
f 152// 70// 153//
f 154// 155// 156//
f 157// 158// 109//
f 109// 158// 159//
f 12// 14// 109//
f 109// 14// 160//
f 109// 160// 157//
f 115// 127// 14//
f 14// 127// 161//
f 14// 161// 162//
f 162// 163// 14//
f 14// 163// 164//
f 14// 164// 160//
f 125// 116// 123//
f 123// 116// 118//
f 123// 118// 165//
f 165// 118// 166//
f 167// 168// 169//
f 169// 168// 170//
f 169// 170// 166//
f 166// 170// 171//
f 166// 171// 165//
f 172// 173// 174//
f 174// 173// 175//
f 176// 177// 178//
f 178// 177// 179//
f 179// 180// 178//
f 178// 180// 181//
f 178// 181// 182//
f 182// 183// 178//
f 178// 183// 184//
f 178// 184// 185//
f 185// 184// 186//
f 185// 186// 187//
f 187// 188// 185//
f 185// 188// 189//
f 185// 189// 190//
f 190// 189// 191//
f 190// 191// 192//
f 192// 191// 193//
f 193// 191// 194//
f 193// 194// 195//
f 194// 196// 195//
f 195// 196// 197//
f 195// 197// 198//
f 198// 197// 199//
f 198// 199// 200//
f 200// 199// 201//
f 200// 201// 202//
f 202// 201// 203//
f 202// 203// 204//
f 204// 203// 205//
f 204// 205// 174//
f 174// 205// 206//
f 174// 206// 172//
f 175// 176// 174//
f 174// 176// 178//
f 174// 178// 207//
f 207// 178// 208//
f 207// 208// 209//
f 209// 208// 210//
f 210// 208// 211//
f 211// 208// 44//
f 211// 44// 212//
f 212// 44// 213//
f 213// 44// 42//
f 213// 42// 214//
f 214// 42// 215//
f 214// 215// 216//
f 216// 215// 217//
f 217// 215// 218//
f 217// 218// 219//
f 6// 8// 218//
f 218// 8// 220//
f 218// 220// 219//
f 5// 221// 6//
f 6// 221// 222//
f 6// 222// 223//
f 223// 224// 6//
f 6// 224// 225//
f 6// 225// 7//
f 48// 50// 65//
f 65// 50// 226//
f 65// 226// 62//
f 62// 226// 154//
f 62// 154// 70//
f 70// 154// 156//
f 70// 156// 153//
f 227// 228// 102//
f 104// 106// 118//
f 118// 106// 229//
f 118// 229// 166//
f 166// 229// 230//
f 166// 230// 169//
f 47// 231// 50//
f 50// 231// 232//
f 50// 232// 233//
f 234// 231// 235//
f 235// 231// 47//
f 235// 47// 236//
f 236// 47// 230//
f 236// 230// 233//
f 233// 230// 229//
f 233// 229// 50//
f 50// 229// 106//
f 50// 106// 226//
f 226// 106// 109//
f 226// 109// 154//
f 154// 109// 159//
f 154// 159// 155//
f 237// 238// 18//
f 67// 102// 62//
f 62// 102// 228//
f 62// 228// 16//
f 16// 228// 239//
f 16// 239// 18//
f 18// 239// 240//
f 18// 240// 237//
f 237// 241// 238//
f 238// 241// 242//
f 238// 242// 228//
f 228// 242// 243//
f 228// 243// 239//
f 244// 245// 246//
f 246// 245// 242//
f 246// 242// 247//
f 247// 242// 241//
f 247// 241// 248//
f 248// 241// 249//
f 250// 227// 251//
f 251// 227// 252//
f 250// 253// 227//
f 227// 253// 254//
f 227// 254// 255//
f 256// 257// 258//
f 258// 257// 238//
f 256// 259// 257//
f 257// 259// 260//
f 257// 260// 261//
f 261// 262// 257//
f 257// 262// 263//
f 257// 263// 264//
f 255// 265// 227//
f 227// 265// 266//
f 227// 266// 228//
f 228// 266// 267//
f 228// 267// 238//
f 238// 267// 268//
f 238// 268// 258//
f 269// 270// 227//
f 227// 270// 257//
f 227// 257// 252//
f 252// 257// 264//
f 271// 272// 3//
f 3// 272// 273//
f 274// 275// 273//
f 273// 275// 269//
f 273// 269// 3//
f 3// 269// 227//
f 3// 227// 1//
f 1// 227// 102//
f 1// 102// 98//
f 98// 102// 103//
f 270// 276// 257//
f 257// 276// 271//
f 257// 271// 11//
f 11// 271// 3//
f 11// 3// 9//
f 9// 3// 140//
f 9// 140// 277//
f 56// 43// 47//
f 47// 43// 44//
f 47// 44// 230//
f 230// 44// 208//
f 230// 208// 169//
f 169// 208// 178//
f 169// 178// 167//
f 167// 178// 185//
f 10// 4// 11//
f 11// 4// 6//
f 11// 6// 257//
f 257// 6// 218//
f 257// 218// 238//
f 238// 218// 215//
f 238// 215// 18//
f 18// 215// 42//
f 18// 42// 19//
f 19// 42// 41//
f 278// 141// 142//
f 278// 142// 279//
f 142// 143// 279//
f 279// 143// 144//
f 279// 144// 280//
f 280// 144// 90//
f 280// 90// 281//
f 281// 90// 91//
f 281// 91// 282//
f 282// 91// 92//
f 282// 92// 283//
f 283// 92// 148//
f 283// 148// 284//
f 284// 148// 147//
f 284// 147// 285//
f 147// 146// 285//
f 285// 146// 145//
f 285// 145// 286//
f 151// 287// 150//
f 150// 287// 286//
f 150// 286// 149//
f 149// 286// 145//
f 151// 152// 287//
f 287// 152// 153//
f 287// 153// 288//
f 153// 156// 288//
f 288// 156// 155//
f 288// 155// 289//
f 155// 159// 289//
f 289// 159// 158//
f 289// 158// 290//
f 290// 158// 157//
f 290// 157// 291//
f 157// 160// 291//
f 291// 160// 164//
f 291// 164// 292//
f 164// 163// 292//
f 292// 163// 162//
f 292// 162// 293//
f 293// 162// 161//
f 293// 161// 294//
f 294// 161// 127//
f 294// 127// 295//
f 127// 129// 295//
f 295// 129// 131//
f 295// 131// 296//
f 296// 131// 133//
f 296// 133// 297//
f 297// 133// 135//
f 297// 135// 298//
f 298// 135// 137//
f 298// 137// 299//
f 299// 137// 138//
f 299// 138// 300//
f 300// 138// 123//
f 300// 123// 301//
f 123// 165// 301//
f 301// 165// 171//
f 301// 171// 302//
f 302// 171// 170//
f 302// 170// 303//
f 303// 170// 168//
f 168// 167// 303//
f 303// 167// 185//
f 303// 185// 304//
f 185// 190// 304//
f 304// 190// 192//
f 304// 192// 305//
f 305// 192// 193//
f 305// 193// 306//
f 306// 193// 195//
f 306// 195// 307//
f 307// 195// 198//
f 307// 198// 308//
f 308// 198// 200//
f 308// 200// 309//
f 309// 200// 202//
f 309// 202// 310//
f 310// 202// 204//
f 310// 204// 311//
f 311// 204// 174//
f 311// 174// 312//
f 174// 207// 312//
f 312// 207// 209//
f 312// 209// 313//
f 213// 314// 212//
f 212// 314// 315//
f 212// 315// 211//
f 211// 315// 313//
f 211// 313// 210//
f 210// 313// 209//
f 213// 214// 314//
f 314// 214// 216//
f 314// 216// 316//
f 216// 217// 316//
f 316// 217// 219//
f 316// 219// 317//
f 219// 220// 317//
f 317// 220// 8//
f 317// 8// 318//
f 8// 7// 318//
f 318// 7// 225//
f 318// 225// 319//
f 319// 225// 224//
f 319// 224// 320//
f 320// 224// 223//
f 320// 223// 321//
f 321// 223// 222//
f 321// 222// 322//
f 322// 222// 221//
f 322// 221// 323//
f 323// 221// 5//
f 323// 5// 324//
f 9// 325// 10//
f 10// 325// 324//
f 10// 324// 4//
f 4// 324// 5//
f 325// 326// 327//
f 328// 293// 329//
f 329// 293// 294//
f 329// 294// 330//
f 330// 294// 295//
f 330// 295// 331//
f 331// 295// 296//
f 331// 296// 332//
f 332// 296// 297//
f 332// 297// 333//
f 333// 297// 298//
f 333// 298// 334//
f 334// 298// 299//
f 334// 299// 335//
f 335// 299// 300//
f 335// 300// 336//
f 336// 300// 301//
f 336// 301// 337//
f 337// 301// 302//
f 337// 302// 338//
f 338// 302// 339//
f 339// 302// 303//
f 339// 303// 340//
f 340// 303// 304//
f 340// 304// 341//
f 341// 304// 305//
f 341// 305// 342//
f 342// 305// 306//
f 342// 306// 343//
f 343// 306// 307//
f 343// 307// 344//
f 344// 307// 308//
f 344// 308// 345//
f 346// 347// 325//
f 325// 347// 278//
f 325// 278// 326//
f 326// 278// 279//
f 279// 280// 326//
f 326// 280// 281//
f 326// 281// 348//
f 348// 281// 282//
f 348// 282// 349//
f 349// 282// 283//
f 349// 283// 350//
f 350// 283// 284//
f 350// 284// 351//
f 351// 284// 285//
f 351// 285// 352//
f 352// 285// 286//
f 352// 286// 353//
f 353// 286// 287//
f 353// 287// 354//
f 354// 287// 288//
f 354// 288// 355//
f 355// 288// 289//
f 355// 289// 356//
f 356// 289// 290//
f 356// 290// 357//
f 357// 290// 291//
f 357// 291// 328//
f 328// 291// 292//
f 328// 292// 293//
f 308// 309// 345//
f 345// 309// 310//
f 345// 310// 358//
f 358// 310// 311//
f 358// 311// 359//
f 359// 311// 312//
f 359// 312// 360//
f 360// 312// 313//
f 360// 313// 361//
f 361// 313// 315//
f 361// 315// 362//
f 362// 315// 314//
f 362// 314// 363//
f 363// 314// 316//
f 363// 316// 364//
f 364// 316// 317//
f 364// 317// 365//
f 365// 317// 318//
f 365// 318// 366//
f 366// 318// 319//
f 366// 319// 367//
f 367// 319// 320//
f 367// 320// 368//
f 368// 320// 321//
f 368// 321// 369//
f 369// 321// 322//
f 369// 322// 370//
f 370// 322// 323//
f 370// 323// 371//
f 371// 323// 324//
f 371// 324// 372//
f 372// 324// 325//
f 372// 325// 373//
f 373// 325// 327//
f 374// 372// 373//
f 375// 376// 327//
f 327// 376// 377//
f 327// 377// 373//
f 373// 377// 378//
f 373// 378// 374//
f 375// 327// 379//
f 379// 327// 326//
f 379// 326// 380//
f 380// 326// 381//
f 381// 326// 348//
f 381// 348// 382//
f 349// 383// 348//
f 348// 383// 384//
f 348// 384// 382//
f 350// 385// 349//
f 349// 385// 386//
f 349// 386// 383//
f 387// 388// 351//
f 351// 388// 389//
f 351// 389// 350//
f 350// 389// 390//
f 350// 390// 385//
f 387// 351// 391//
f 391// 351// 352//
f 391// 352// 392//
f 392// 352// 393//
f 393// 352// 353//
f 393// 353// 394//
f 354// 395// 353//
f 353// 395// 396//
f 353// 396// 394//
f 355// 397// 354//
f 354// 397// 398//
f 354// 398// 395//
f 399// 400// 356//
f 356// 400// 401//
f 356// 401// 355//
f 355// 401// 402//
f 355// 402// 397//
f 399// 356// 403//
f 403// 356// 357//
f 403// 357// 404//
f 404// 357// 405//
f 405// 357// 328//
f 405// 328// 406//
f 329// 407// 328//
f 328// 407// 408//
f 328// 408// 406//
f 330// 409// 329//
f 329// 409// 410//
f 329// 410// 407//
f 411// 412// 331//
f 331// 412// 413//
f 331// 413// 330//
f 330// 413// 414//
f 330// 414// 409//
f 411// 331// 415//
f 415// 331// 332//
f 415// 332// 416//
f 416// 332// 417//
f 417// 332// 333//
f 417// 333// 418//
f 334// 419// 333//
f 333// 419// 420//
f 333// 420// 418//
f 335// 421// 334//
f 334// 421// 422//
f 334// 422// 419//
f 423// 424// 336//
f 336// 424// 425//
f 336// 425// 335//
f 335// 425// 426//
f 335// 426// 421//
f 423// 336// 427//
f 427// 336// 337//
f 427// 337// 428//
f 428// 337// 338//
f 428// 338// 429//
f 429// 338// 339//
f 429// 339// 430//
f 340// 431// 339//
f 339// 431// 432//
f 339// 432// 430//
f 341// 433// 340//
f 340// 433// 434//
f 340// 434// 431//
f 435// 436// 342//
f 342// 436// 437//
f 342// 437// 341//
f 341// 437// 438//
f 341// 438// 433//
f 435// 342// 439//
f 439// 342// 343//
f 439// 343// 440//
f 440// 343// 441//
f 441// 343// 344//
f 441// 344// 442//
f 345// 443// 344//
f 344// 443// 444//
f 344// 444// 442//
f 358// 445// 345//
f 345// 445// 446//
f 345// 446// 443//
f 447// 448// 359//
f 359// 448// 449//
f 359// 449// 358//
f 358// 449// 450//
f 358// 450// 445//
f 447// 359// 451//
f 451// 359// 360//
f 451// 360// 452//
f 452// 360// 453//
f 453// 360// 361//
f 453// 361// 454//
f 362// 455// 361//
f 361// 455// 456//
f 361// 456// 454//
f 363// 457// 362//
f 362// 457// 458//
f 362// 458// 455//
f 459// 460// 364//
f 364// 460// 461//
f 364// 461// 363//
f 363// 461// 462//
f 363// 462// 457//
f 459// 364// 463//
f 463// 364// 365//
f 463// 365// 464//
f 464// 365// 465//
f 465// 365// 366//
f 465// 366// 466//
f 367// 467// 366//
f 366// 467// 468//
f 366// 468// 466//
f 368// 469// 367//
f 367// 469// 470//
f 367// 470// 467//
f 471// 472// 369//
f 369// 472// 473//
f 369// 473// 368//
f 368// 473// 474//
f 368// 474// 469//
f 471// 369// 475//
f 475// 369// 370//
f 475// 370// 476//
f 476// 370// 477//
f 477// 370// 371//
f 477// 371// 478//
f 374// 479// 372//
f 372// 479// 480//
f 372// 480// 371//
f 371// 480// 481//
f 371// 481// 478//
f 482// 483// 484//
f 485// 486// 487//
f 488// 489// 490//
f 484// 483// 490//
f 490// 483// 491//
f 490// 491// 492//
f 493// 494// 495//
f 496// 497// 487//
f 493// 495// 487//
f 487// 495// 498//
f 487// 498// 499//
f 490// 489// 493//
f 493// 489// 500//
f 493// 500// 494//
f 492// 501// 490//
f 490// 501// 502//
f 490// 502// 503//
f 503// 504// 490//
f 490// 504// 505//
f 490// 505// 506//
f 486// 507// 487//
f 487// 507// 508//
f 487// 508// 509//
f 509// 510// 487//
f 487// 510// 511//
f 487// 511// 484//
f 484// 511// 512//
f 484// 512// 482//
f 513// 514// 487//
f 515// 516// 490//
f 490// 516// 517//
f 497// 518// 487//
f 487// 518// 519//
f 487// 519// 485//
f 499// 520// 487//
f 487// 520// 521//
f 487// 521// 522//
f 514// 523// 487//
f 487// 523// 524//
f 487// 524// 496//
f 517// 525// 490//
f 490// 525// 526//
f 490// 526// 527//
f 506// 528// 490//
f 490// 528// 529//
f 490// 529// 530//
f 530// 531// 490//
f 490// 531// 532//
f 490// 532// 533//
f 533// 534// 490//
f 490// 534// 535//
f 490// 535// 515//
f 527// 536// 490//
f 490// 536// 537//
f 490// 537// 538//
f 538// 539// 490//
f 490// 539// 540//
f 490// 540// 488//
f 522// 541// 487//
f 487// 541// 542//
f 487// 542// 543//
f 543// 544// 487//
f 487// 544// 545//
f 487// 545// 546//
f 546// 547// 487//
f 487// 547// 548//
f 487// 548// 513//
f 428// 429// 549//
f 432// 431// 550//
f 438// 437// 551//
f 435// 439// 552//
f 444// 443// 553//
f 450// 449// 554//
f 447// 451// 555//
f 456// 455// 556//
f 458// 457// 557//
f 462// 461// 558//
f 459// 463// 559//
f 468// 467// 560//
f 470// 469// 561//
f 474// 473// 562//
f 471// 475// 563//
f 481// 480// 564//
f 479// 374// 565//
f 378// 377// 566//
f 375// 379// 567//
f 384// 383// 568//
f 390// 389// 569//
f 387// 391// 570//
f 396// 395// 571//
f 398// 397// 572//
f 402// 401// 573//
f 399// 403// 574//
f 408// 407// 575//
f 414// 413// 576//
f 411// 415// 577//
f 420// 419// 578//
f 579// 518// 497//
f 519// 518// 580//
f 580// 518// 579//
f 580// 579// 581//
f 485// 519// 582//
f 582// 519// 580//
f 582// 580// 583//
f 583// 580// 581//
f 583// 581// 584//
f 486// 485// 585//
f 585// 485// 582//
f 585// 582// 586//
f 586// 582// 583//
f 586// 583// 587//
f 587// 583// 584//
f 587// 584// 588//
f 507// 486// 589//
f 589// 486// 585//
f 589// 585// 590//
f 590// 585// 586//
f 590// 586// 591//
f 591// 586// 587//
f 591// 587// 592//
f 592// 587// 588//
f 592// 588// 593//
f 508// 507// 594//
f 594// 507// 589//
f 594// 589// 595//
f 595// 589// 590//
f 595// 590// 596//
f 596// 590// 591//
f 596// 591// 597//
f 597// 591// 592//
f 597// 592// 598//
f 598// 592// 593//
f 598// 593// 549//
f 599// 600// 601//
f 602// 600// 603//
f 603// 600// 599//
f 603// 599// 604//
f 578// 605// 606//
f 606// 605// 607//
f 606// 607// 608//
f 608// 607// 609//
f 608// 609// 610//
f 610// 609// 611//
f 610// 611// 612//
f 496// 524// 613//
f 613// 524// 614//
f 613// 614// 615//
f 615// 614// 616//
f 615// 616// 617//
f 617// 616// 618//
f 617// 618// 619//
f 619// 618// 620//
f 619// 620// 621//
f 621// 620// 622//
f 621// 622// 623//
f 623// 622// 577//
f 513// 548// 624//
f 624// 548// 625//
f 624// 625// 626//
f 626// 625// 627//
f 626// 627// 628//
f 628// 627// 629//
f 628// 629// 630//
f 630// 629// 631//
f 630// 631// 632//
f 632// 631// 633//
f 632// 633// 634//
f 634// 633// 575//
f 546// 545// 635//
f 635// 545// 636//
f 635// 636// 637//
f 637// 636// 638//
f 637// 638// 639//
f 639// 638// 640//
f 639// 640// 641//
f 641// 640// 642//
f 641// 642// 643//
f 643// 642// 644//
f 643// 644// 645//
f 645// 644// 574//
f 521// 520// 646//
f 646// 520// 647//
f 646// 647// 648//
f 648// 647// 649//
f 648// 649// 650//
f 650// 649// 651//
f 650// 651// 652//
f 652// 651// 653//
f 652// 653// 654//
f 654// 653// 655//
f 654// 655// 656//
f 656// 655// 570//
f 495// 494// 657//
f 657// 494// 658//
f 657// 658// 659//
f 659// 658// 660//
f 659// 660// 661//
f 661// 660// 662//
f 661// 662// 663//
f 663// 662// 664//
f 663// 664// 665//
f 665// 664// 666//
f 665// 666// 667//
f 667// 666// 568//
f 489// 488// 668//
f 668// 488// 669//
f 668// 669// 670//
f 670// 669// 671//
f 670// 671// 672//
f 672// 671// 673//
f 672// 673// 674//
f 674// 673// 675//
f 674// 675// 676//
f 676// 675// 677//
f 676// 677// 678//
f 678// 677// 567//
f 527// 526// 679//
f 679// 526// 680//
f 679// 680// 681//
f 681// 680// 682//
f 681// 682// 683//
f 683// 682// 684//
f 683// 684// 685//
f 685// 684// 686//
f 685// 686// 687//
f 687// 686// 688//
f 687// 688// 689//
f 689// 688// 563//
f 534// 533// 690//
f 690// 533// 691//
f 690// 691// 692//
f 692// 691// 693//
f 692// 693// 694//
f 694// 693// 695//
f 694// 695// 696//
f 696// 695// 697//
f 696// 697// 698//
f 698// 697// 699//
f 698// 699// 700//
f 700// 699// 559//
f 506// 505// 701//
f 701// 505// 702//
f 701// 702// 703//
f 703// 702// 704//
f 703// 704// 705//
f 705// 704// 706//
f 705// 706// 707//
f 707// 706// 708//
f 707// 708// 709//
f 709// 708// 710//
f 709// 710// 711//
f 711// 710// 555//
f 502// 501// 712//
f 712// 501// 713//
f 712// 713// 714//
f 714// 713// 715//
f 714// 715// 716//
f 716// 715// 717//
f 716// 717// 718//
f 718// 717// 719//
f 718// 719// 720//
f 720// 719// 721//
f 720// 721// 722//
f 722// 721// 553//
f 491// 483// 723//
f 723// 483// 724//
f 723// 724// 725//
f 725// 724// 726//
f 725// 726// 727//
f 727// 726// 728//
f 727// 728// 729//
f 729// 728// 730//
f 729// 730// 731//
f 731// 730// 732//
f 731// 732// 733//
f 733// 732// 552//
f 511// 510// 734//
f 734// 510// 735//
f 734// 735// 736//
f 736// 735// 737//
f 736// 737// 738//
f 738// 737// 739//
f 738// 739// 740//
f 740// 739// 741//
f 740// 741// 742//
f 742// 741// 743//
f 742// 743// 744//
f 744// 743// 550//
f 426// 425// 602//
f 602// 425// 424//
f 602// 424// 600//
f 600// 424// 423//
f 600// 423// 601//
f 601// 423// 427//
f 421// 426// 605//
f 605// 426// 602//
f 605// 602// 607//
f 607// 602// 603//
f 607// 603// 609//
f 609// 603// 604//
f 609// 604// 611//
f 578// 419// 605//
f 605// 419// 422//
f 605// 422// 421//
f 418// 420// 745//
f 745// 420// 578//
f 745// 578// 746//
f 746// 578// 606//
f 746// 606// 747//
f 747// 606// 608//
f 747// 608// 748//
f 748// 608// 610//
f 748// 610// 749//
f 749// 610// 612//
f 749// 612// 750//
f 497// 496// 750//
f 750// 496// 613//
f 750// 613// 749//
f 749// 613// 615//
f 749// 615// 748//
f 748// 615// 617//
f 748// 617// 747//
f 747// 617// 619//
f 747// 619// 746//
f 746// 619// 621//
f 746// 621// 745//
f 745// 621// 623//
f 745// 623// 418//
f 418// 623// 417//
f 577// 415// 623//
f 623// 415// 416//
f 623// 416// 417//
f 412// 411// 751//
f 751// 411// 577//
f 751// 577// 752//
f 752// 577// 622//
f 752// 622// 753//
f 753// 622// 620//
f 753// 620// 754//
f 754// 620// 618//
f 754// 618// 755//
f 755// 618// 616//
f 755// 616// 756//
f 756// 616// 614//
f 756// 614// 523//
f 523// 614// 524//
f 523// 514// 756//
f 756// 514// 757//
f 756// 757// 755//
f 755// 757// 758//
f 755// 758// 754//
f 754// 758// 759//
f 754// 759// 753//
f 753// 759// 760//
f 753// 760// 752//
f 752// 760// 761//
f 752// 761// 751//
f 751// 761// 576//
f 751// 576// 412//
f 412// 576// 413//
f 409// 414// 634//
f 634// 414// 576//
f 634// 576// 632//
f 632// 576// 761//
f 632// 761// 630//
f 630// 761// 760//
f 630// 760// 628//
f 628// 760// 759//
f 628// 759// 626//
f 626// 759// 758//
f 626// 758// 624//
f 624// 758// 757//
f 624// 757// 513//
f 513// 757// 514//
f 575// 407// 634//
f 634// 407// 410//
f 634// 410// 409//
f 406// 408// 762//
f 762// 408// 575//
f 762// 575// 763//
f 763// 575// 633//
f 763// 633// 764//
f 764// 633// 631//
f 764// 631// 765//
f 765// 631// 629//
f 765// 629// 766//
f 766// 629// 627//
f 766// 627// 767//
f 767// 627// 625//
f 767// 625// 547//
f 547// 625// 548//
f 547// 546// 767//
f 767// 546// 635//
f 767// 635// 766//
f 766// 635// 637//
f 766// 637// 765//
f 765// 637// 639//
f 765// 639// 764//
f 764// 639// 641//
f 764// 641// 763//
f 763// 641// 643//
f 763// 643// 762//
f 762// 643// 645//
f 762// 645// 406//
f 406// 645// 405//
f 574// 403// 645//
f 645// 403// 404//
f 645// 404// 405//
f 400// 399// 768//
f 768// 399// 574//
f 768// 574// 769//
f 769// 574// 644//
f 769// 644// 770//
f 770// 644// 642//
f 770// 642// 771//
f 771// 642// 640//
f 771// 640// 772//
f 772// 640// 638//
f 772// 638// 773//
f 773// 638// 636//
f 773// 636// 544//
f 544// 636// 545//
f 544// 543// 773//
f 773// 543// 774//
f 773// 774// 772//
f 772// 774// 775//
f 772// 775// 771//
f 771// 775// 776//
f 771// 776// 770//
f 770// 776// 777//
f 770// 777// 769//
f 769// 777// 778//
f 769// 778// 768//
f 768// 778// 573//
f 768// 573// 400//
f 400// 573// 401//
f 397// 402// 572//
f 572// 402// 573//
f 572// 573// 779//
f 779// 573// 778//
f 779// 778// 780//
f 780// 778// 777//
f 780// 777// 781//
f 781// 777// 776//
f 781// 776// 782//
f 782// 776// 775//
f 782// 775// 783//
f 783// 775// 774//
f 783// 774// 542//
f 542// 774// 543//
f 395// 398// 571//
f 571// 398// 572//
f 571// 572// 784//
f 784// 572// 779//
f 784// 779// 785//
f 785// 779// 780//
f 785// 780// 786//
f 786// 780// 781//
f 786// 781// 787//
f 787// 781// 782//
f 787// 782// 788//
f 788// 782// 783//
f 788// 783// 541//
f 541// 783// 542//
f 394// 396// 789//
f 789// 396// 571//
f 789// 571// 790//
f 790// 571// 784//
f 790// 784// 791//
f 791// 784// 785//
f 791// 785// 792//
f 792// 785// 786//
f 792// 786// 793//
f 793// 786// 787//
f 793// 787// 794//
f 794// 787// 788//
f 794// 788// 522//
f 522// 788// 541//
f 522// 521// 794//
f 794// 521// 646//
f 794// 646// 793//
f 793// 646// 648//
f 793// 648// 792//
f 792// 648// 650//
f 792// 650// 791//
f 791// 650// 652//
f 791// 652// 790//
f 790// 652// 654//
f 790// 654// 789//
f 789// 654// 656//
f 789// 656// 394//
f 394// 656// 393//
f 570// 391// 656//
f 656// 391// 392//
f 656// 392// 393//
f 388// 387// 795//
f 795// 387// 570//
f 795// 570// 796//
f 796// 570// 655//
f 796// 655// 797//
f 797// 655// 653//
f 797// 653// 798//
f 798// 653// 651//
f 798// 651// 799//
f 799// 651// 649//
f 799// 649// 800//
f 800// 649// 647//
f 800// 647// 499//
f 499// 647// 520//
f 499// 498// 800//
f 800// 498// 801//
f 800// 801// 799//
f 799// 801// 802//
f 799// 802// 798//
f 798// 802// 803//
f 798// 803// 797//
f 797// 803// 804//
f 797// 804// 796//
f 796// 804// 805//
f 796// 805// 795//
f 795// 805// 569//
f 795// 569// 388//
f 388// 569// 389//
f 385// 390// 667//
f 667// 390// 569//
f 667// 569// 665//
f 665// 569// 805//
f 665// 805// 663//
f 663// 805// 804//
f 663// 804// 661//
f 661// 804// 803//
f 661// 803// 659//
f 659// 803// 802//
f 659// 802// 657//
f 657// 802// 801//
f 657// 801// 495//
f 495// 801// 498//
f 568// 383// 667//
f 667// 383// 386//
f 667// 386// 385//
f 382// 384// 806//
f 806// 384// 568//
f 806// 568// 807//
f 807// 568// 666//
f 807// 666// 808//
f 808// 666// 664//
f 808// 664// 809//
f 809// 664// 662//
f 809// 662// 810//
f 810// 662// 660//
f 810// 660// 811//
f 811// 660// 658//
f 811// 658// 500//
f 500// 658// 494//
f 500// 489// 811//
f 811// 489// 668//
f 811// 668// 810//
f 810// 668// 670//
f 810// 670// 809//
f 809// 670// 672//
f 809// 672// 808//
f 808// 672// 674//
f 808// 674// 807//
f 807// 674// 676//
f 807// 676// 806//
f 806// 676// 678//
f 806// 678// 382//
f 382// 678// 381//
f 567// 379// 678//
f 678// 379// 380//
f 678// 380// 381//
f 376// 375// 812//
f 812// 375// 567//
f 812// 567// 813//
f 813// 567// 677//
f 813// 677// 814//
f 814// 677// 675//
f 814// 675// 815//
f 815// 675// 673//
f 815// 673// 816//
f 816// 673// 671//
f 816// 671// 817//
f 817// 671// 669//
f 817// 669// 540//
f 540// 669// 488//
f 540// 539// 817//
f 817// 539// 818//
f 817// 818// 816//
f 816// 818// 819//
f 816// 819// 815//
f 815// 819// 820//
f 815// 820// 814//
f 814// 820// 821//
f 814// 821// 813//
f 813// 821// 822//
f 813// 822// 812//
f 812// 822// 566//
f 812// 566// 376//
f 376// 566// 377//
f 374// 378// 565//
f 565// 378// 566//
f 565// 566// 823//
f 823// 566// 822//
f 823// 822// 824//
f 824// 822// 821//
f 824// 821// 825//
f 825// 821// 820//
f 825// 820// 826//
f 826// 820// 819//
f 826// 819// 827//
f 827// 819// 818//
f 827// 818// 538//
f 538// 818// 539//
f 480// 479// 564//
f 564// 479// 565//
f 564// 565// 828//
f 828// 565// 823//
f 828// 823// 829//
f 829// 823// 824//
f 829// 824// 830//
f 830// 824// 825//
f 830// 825// 831//
f 831// 825// 826//
f 831// 826// 832//
f 832// 826// 827//
f 832// 827// 537//
f 537// 827// 538//
f 478// 481// 833//
f 833// 481// 564//
f 833// 564// 834//
f 834// 564// 828//
f 834// 828// 835//
f 835// 828// 829//
f 835// 829// 836//
f 836// 829// 830//
f 836// 830// 837//
f 837// 830// 831//
f 837// 831// 838//
f 838// 831// 832//
f 838// 832// 536//
f 536// 832// 537//
f 536// 527// 838//
f 838// 527// 679//
f 838// 679// 837//
f 837// 679// 681//
f 837// 681// 836//
f 836// 681// 683//
f 836// 683// 835//
f 835// 683// 685//
f 835// 685// 834//
f 834// 685// 687//
f 834// 687// 833//
f 833// 687// 689//
f 833// 689// 478//
f 478// 689// 477//
f 563// 475// 689//
f 689// 475// 476//
f 689// 476// 477//
f 472// 471// 839//
f 839// 471// 563//
f 839// 563// 840//
f 840// 563// 688//
f 840// 688// 841//
f 841// 688// 686//
f 841// 686// 842//
f 842// 686// 684//
f 842// 684// 843//
f 843// 684// 682//
f 843// 682// 844//
f 844// 682// 680//
f 844// 680// 525//
f 525// 680// 526//
f 525// 517// 844//
f 844// 517// 845//
f 844// 845// 843//
f 843// 845// 846//
f 843// 846// 842//
f 842// 846// 847//
f 842// 847// 841//
f 841// 847// 848//
f 841// 848// 840//
f 840// 848// 849//
f 840// 849// 839//
f 839// 849// 562//
f 839// 562// 472//
f 472// 562// 473//
f 469// 474// 561//
f 561// 474// 562//
f 561// 562// 850//
f 850// 562// 849//
f 850// 849// 851//
f 851// 849// 848//
f 851// 848// 852//
f 852// 848// 847//
f 852// 847// 853//
f 853// 847// 846//
f 853// 846// 854//
f 854// 846// 845//
f 854// 845// 516//
f 516// 845// 517//
f 467// 470// 560//
f 560// 470// 561//
f 560// 561// 855//
f 855// 561// 850//
f 855// 850// 856//
f 856// 850// 851//
f 856// 851// 857//
f 857// 851// 852//
f 857// 852// 858//
f 858// 852// 853//
f 858// 853// 859//
f 859// 853// 854//
f 859// 854// 515//
f 515// 854// 516//
f 466// 468// 860//
f 860// 468// 560//
f 860// 560// 861//
f 861// 560// 855//
f 861// 855// 862//
f 862// 855// 856//
f 862// 856// 863//
f 863// 856// 857//
f 863// 857// 864//
f 864// 857// 858//
f 864// 858// 865//
f 865// 858// 859//
f 865// 859// 535//
f 535// 859// 515//
f 535// 534// 865//
f 865// 534// 690//
f 865// 690// 864//
f 864// 690// 692//
f 864// 692// 863//
f 863// 692// 694//
f 863// 694// 862//
f 862// 694// 696//
f 862// 696// 861//
f 861// 696// 698//
f 861// 698// 860//
f 860// 698// 700//
f 860// 700// 466//
f 466// 700// 465//
f 559// 463// 700//
f 700// 463// 464//
f 700// 464// 465//
f 460// 459// 866//
f 866// 459// 559//
f 866// 559// 867//
f 867// 559// 699//
f 867// 699// 868//
f 868// 699// 697//
f 868// 697// 869//
f 869// 697// 695//
f 869// 695// 870//
f 870// 695// 693//
f 870// 693// 871//
f 871// 693// 691//
f 871// 691// 532//
f 532// 691// 533//
f 532// 531// 871//
f 871// 531// 872//
f 871// 872// 870//
f 870// 872// 873//
f 870// 873// 869//
f 869// 873// 874//
f 869// 874// 868//
f 868// 874// 875//
f 868// 875// 867//
f 867// 875// 876//
f 867// 876// 866//
f 866// 876// 558//
f 866// 558// 460//
f 460// 558// 461//
f 457// 462// 557//
f 557// 462// 558//
f 557// 558// 877//
f 877// 558// 876//
f 877// 876// 878//
f 878// 876// 875//
f 878// 875// 879//
f 879// 875// 874//
f 879// 874// 880//
f 880// 874// 873//
f 880// 873// 881//
f 881// 873// 872//
f 881// 872// 530//
f 530// 872// 531//
f 455// 458// 556//
f 556// 458// 557//
f 556// 557// 882//
f 882// 557// 877//
f 882// 877// 883//
f 883// 877// 878//
f 883// 878// 884//
f 884// 878// 879//
f 884// 879// 885//
f 885// 879// 880//
f 885// 880// 886//
f 886// 880// 881//
f 886// 881// 529//
f 529// 881// 530//
f 454// 456// 887//
f 887// 456// 556//
f 887// 556// 888//
f 888// 556// 882//
f 888// 882// 889//
f 889// 882// 883//
f 889// 883// 890//
f 890// 883// 884//
f 890// 884// 891//
f 891// 884// 885//
f 891// 885// 892//
f 892// 885// 886//
f 892// 886// 528//
f 528// 886// 529//
f 528// 506// 892//
f 892// 506// 701//
f 892// 701// 891//
f 891// 701// 703//
f 891// 703// 890//
f 890// 703// 705//
f 890// 705// 889//
f 889// 705// 707//
f 889// 707// 888//
f 888// 707// 709//
f 888// 709// 887//
f 887// 709// 711//
f 887// 711// 454//
f 454// 711// 453//
f 555// 451// 711//
f 711// 451// 452//
f 711// 452// 453//
f 448// 447// 893//
f 893// 447// 555//
f 893// 555// 894//
f 894// 555// 710//
f 894// 710// 895//
f 895// 710// 708//
f 895// 708// 896//
f 896// 708// 706//
f 896// 706// 897//
f 897// 706// 704//
f 897// 704// 898//
f 898// 704// 702//
f 898// 702// 504//
f 504// 702// 505//
f 504// 503// 898//
f 898// 503// 899//
f 898// 899// 897//
f 897// 899// 900//
f 897// 900// 896//
f 896// 900// 901//
f 896// 901// 895//
f 895// 901// 902//
f 895// 902// 894//
f 894// 902// 903//
f 894// 903// 893//
f 893// 903// 554//
f 893// 554// 448//
f 448// 554// 449//
f 445// 450// 722//
f 722// 450// 554//
f 722// 554// 720//
f 720// 554// 903//
f 720// 903// 718//
f 718// 903// 902//
f 718// 902// 716//
f 716// 902// 901//
f 716// 901// 714//
f 714// 901// 900//
f 714// 900// 712//
f 712// 900// 899//
f 712// 899// 502//
f 502// 899// 503//
f 553// 443// 722//
f 722// 443// 446//
f 722// 446// 445//
f 442// 444// 904//
f 904// 444// 553//
f 904// 553// 905//
f 905// 553// 721//
f 905// 721// 906//
f 906// 721// 719//
f 906// 719// 907//
f 907// 719// 717//
f 907// 717// 908//
f 908// 717// 715//
f 908// 715// 909//
f 909// 715// 713//
f 909// 713// 492//
f 492// 713// 501//
f 492// 491// 909//
f 909// 491// 723//
f 909// 723// 908//
f 908// 723// 725//
f 908// 725// 907//
f 907// 725// 727//
f 907// 727// 906//
f 906// 727// 729//
f 906// 729// 905//
f 905// 729// 731//
f 905// 731// 904//
f 904// 731// 733//
f 904// 733// 442//
f 442// 733// 441//
f 552// 439// 733//
f 733// 439// 440//
f 733// 440// 441//
f 436// 435// 910//
f 910// 435// 552//
f 910// 552// 911//
f 911// 552// 732//
f 911// 732// 912//
f 912// 732// 730//
f 912// 730// 913//
f 913// 730// 728//
f 913// 728// 914//
f 914// 728// 726//
f 914// 726// 915//
f 915// 726// 724//
f 915// 724// 482//
f 482// 724// 483//
f 482// 512// 915//
f 915// 512// 916//
f 915// 916// 914//
f 914// 916// 917//
f 914// 917// 913//
f 913// 917// 918//
f 913// 918// 912//
f 912// 918// 919//
f 912// 919// 911//
f 911// 919// 920//
f 911// 920// 910//
f 910// 920// 551//
f 910// 551// 436//
f 436// 551// 437//
f 433// 438// 744//
f 744// 438// 551//
f 744// 551// 742//
f 742// 551// 920//
f 742// 920// 740//
f 740// 920// 919//
f 740// 919// 738//
f 738// 919// 918//
f 738// 918// 736//
f 736// 918// 917//
f 736// 917// 734//
f 734// 917// 916//
f 734// 916// 511//
f 511// 916// 512//
f 550// 431// 744//
f 744// 431// 434//
f 744// 434// 433//
f 430// 432// 921//
f 921// 432// 550//
f 921// 550// 922//
f 922// 550// 743//
f 922// 743// 923//
f 923// 743// 741//
f 923// 741// 924//
f 924// 741// 739//
f 924// 739// 925//
f 925// 739// 737//
f 925// 737// 926//
f 926// 737// 735//
f 926// 735// 509//
f 509// 735// 510//
f 509// 508// 926//
f 926// 508// 594//
f 926// 594// 925//
f 925// 594// 595//
f 925// 595// 924//
f 924// 595// 596//
f 924// 596// 923//
f 923// 596// 597//
f 923// 597// 922//
f 922// 597// 598//
f 922// 598// 921//
f 921// 598// 549//
f 921// 549// 430//
f 430// 549// 429//
f 497// 750// 579//
f 579// 750// 612//
f 579// 612// 581//
f 581// 612// 611//
f 581// 611// 584//
f 584// 611// 604//
f 584// 604// 588//
f 588// 604// 599//
f 588// 599// 593//
f 593// 599// 601//
f 593// 601// 549//
f 549// 601// 427//
f 549// 427// 428//
f 927// 928// 493//
f 493// 928// 490//
f 928// 929// 490//
f 490// 929// 484//
f 929// 930// 484//
f 484// 930// 487//
f 930// 927// 487//
f 487// 927// 493//
f 930// 929// 927//
f 927// 929// 928//
f 931// 104// 932//
f 932// 104// 120//
f 932// 120// 933//
f 933// 120// 119//
f 933// 119// 934//
f 934// 119// 117//
f 934// 117// 935//
f 935// 117// 116//
f 935// 116// 936//
f 936// 116// 125//
f 936// 125// 937//
f 937// 125// 124//
f 937// 124// 938//
f 938// 124// 122//
f 938// 122// 939//
f 939// 122// 121//
f 939// 121// 940//
f 940// 121// 136//
f 940// 136// 941//
f 941// 136// 134//
f 941// 134// 942//
f 942// 134// 132//
f 942// 132// 943//
f 943// 132// 130//
f 943// 130// 944//
f 944// 130// 128//
f 944// 128// 945//
f 945// 128// 126//
f 945// 126// 946//
f 946// 126// 115//
f 946// 115// 947//
f 947// 115// 114//
f 947// 114// 948//
f 114// 113// 948//
f 948// 113// 13//
f 948// 13// 949//
f 949// 13// 12//
f 949// 12// 950//
f 950// 12// 108//
f 950// 108// 951//
f 951// 108// 112//
f 951// 112// 952//
f 952// 112// 111//
f 952// 111// 953//
f 953// 111// 110//
f 953// 110// 954//
f 954// 110// 107//
f 954// 107// 931//
f 931// 107// 105//
f 931// 105// 104//
f 955// 931// 956//
f 956// 931// 932//
f 956// 932// 957//
f 957// 932// 933//
f 957// 933// 958//
f 958// 933// 934//
f 958// 934// 959//
f 959// 934// 935//
f 959// 935// 960//
f 960// 935// 936//
f 960// 936// 961//
f 961// 936// 937//
f 961// 937// 962//
f 962// 937// 938//
f 962// 938// 963//
f 963// 938// 939//
f 963// 939// 964//
f 964// 939// 940//
f 964// 940// 965//
f 965// 940// 941//
f 965// 941// 966//
f 966// 941// 942//
f 966// 942// 967//
f 967// 942// 943//
f 967// 943// 968//
f 968// 943// 944//
f 968// 944// 969//
f 969// 944// 945//
f 969// 945// 970//
f 970// 945// 946//
f 970// 946// 971//
f 971// 946// 947//
f 971// 947// 972//
f 972// 947// 948//
f 972// 948// 973//
f 973// 948// 949//
f 973// 949// 974//
f 974// 949// 950//
f 974// 950// 975//
f 975// 950// 951//
f 975// 951// 976//
f 976// 951// 952//
f 976// 952// 977//
f 977// 952// 953//
f 977// 953// 978//
f 978// 953// 954//
f 978// 954// 955//
f 955// 954// 931//
f 979// 88// 980//
f 980// 88// 97//
f 980// 97// 981//
f 981// 97// 96//
f 981// 96// 982//
f 982// 96// 95//
f 982// 95// 983//
f 983// 95// 94//
f 983// 94// 984//
f 94// 93// 984//
f 984// 93// 100//
f 984// 100// 985//
f 985// 100// 99//
f 985// 99// 986//
f 986// 99// 98//
f 986// 98// 987//
f 98// 103// 987//
f 987// 103// 101//
f 987// 101// 988//
f 988// 101// 67//
f 988// 67// 989//
f 989// 67// 66//
f 989// 66// 990//
f 990// 66// 72//
f 990// 72// 991//
f 991// 72// 71//
f 991// 71// 992//
f 992// 71// 69//
f 992// 69// 993//
f 993// 69// 68//
f 993// 68// 994//
f 68// 79// 994//
f 994// 79// 78//
f 994// 78// 995//
f 995// 78// 77//
f 995// 77// 996//
f 996// 77// 76//
f 996// 76// 997//
f 76// 74// 997//
f 997// 74// 84//
f 997// 84// 998//
f 998// 84// 83//
f 998// 83// 999//
f 999// 83// 81//
f 999// 81// 1000//
f 1000// 81// 80//
f 1000// 80// 1001//
f 1001// 80// 87//
f 1001// 87// 1002//
f 87// 86// 1002//
f 1002// 86// 85//
f 1002// 85// 979//
f 979// 85// 89//
f 979// 89// 88//
f 1003// 981// 1004//
f 1004// 981// 982//
f 1004// 982// 1005//
f 1005// 982// 983//
f 1005// 983// 1006//
f 1006// 983// 984//
f 1006// 984// 1007//
f 1007// 984// 985//
f 1007// 985// 1008//
f 1008// 985// 986//
f 1008// 986// 1009//
f 1009// 986// 987//
f 1009// 987// 1010//
f 1010// 987// 988//
f 1010// 988// 1011//
f 1011// 988// 989//
f 1011// 989// 1012//
f 1012// 989// 990//
f 1012// 990// 1013//
f 1013// 990// 991//
f 1013// 991// 1014//
f 1014// 991// 992//
f 1014// 992// 1015//
f 1015// 992// 993//
f 1015// 993// 1016//
f 1016// 993// 994//
f 1016// 994// 1017//
f 1017// 994// 995//
f 1017// 995// 1018//
f 1018// 995// 996//
f 1018// 996// 1019//
f 1019// 996// 997//
f 1019// 997// 1020//
f 1020// 997// 998//
f 1020// 998// 1021//
f 1021// 998// 999//
f 1021// 999// 1022//
f 1022// 999// 1000//
f 1022// 1000// 1023//
f 1023// 1000// 1001//
f 1023// 1001// 1024//
f 1024// 1001// 1002//
f 1024// 1002// 1025//
f 1025// 1002// 979//
f 1025// 979// 1026//
f 1026// 979// 980//
f 1026// 980// 1003//
f 1003// 980// 981//
f 1027// 1026// 1028//
f 1028// 1026// 1003//
f 1028// 1003// 1029//
f 1029// 1003// 1004//
f 1029// 1004// 1030//
f 1030// 1004// 1005//
f 1030// 1005// 1031//
f 1031// 1005// 1006//
f 1031// 1006// 1032//
f 1032// 1006// 1007//
f 1032// 1007// 1033//
f 1033// 1007// 1008//
f 1033// 1008// 1034//
f 1034// 1008// 1009//
f 1034// 1009// 1035//
f 1035// 1009// 1010//
f 1035// 1010// 1036//
f 1036// 1010// 1011//
f 1036// 1011// 1037//
f 1037// 1011// 1012//
f 1037// 1012// 1038//
f 1038// 1012// 1013//
f 1038// 1013// 1039//
f 1039// 1013// 1014//
f 1039// 1014// 1040//
f 1040// 1014// 1015//
f 1040// 1015// 1041//
f 1041// 1015// 1016//
f 1041// 1016// 1042//
f 1042// 1016// 1017//
f 1042// 1017// 1043//
f 1043// 1017// 1018//
f 1043// 1018// 1044//
f 1044// 1018// 1019//
f 1044// 1019// 1045//
f 1045// 1019// 1020//
f 1045// 1020// 1046//
f 1046// 1020// 1021//
f 1046// 1021// 1047//
f 1047// 1021// 1022//
f 1047// 1022// 1048//
f 1048// 1022// 1023//
f 1048// 1023// 1049//
f 1049// 1023// 1024//
f 1049// 1024// 1050//
f 1050// 1024// 1025//
f 1050// 1025// 1027//
f 1027// 1025// 1026//
f 1037// 1038// 1051//
f 1051// 1038// 1039//
f 1051// 1039// 1040//
f 1034// 1035// 1051//
f 1051// 1035// 1036//
f 1051// 1036// 1037//
f 1031// 1032// 1051//
f 1051// 1032// 1033//
f 1051// 1033// 1034//
f 1028// 1029// 1051//
f 1051// 1029// 1030//
f 1051// 1030// 1031//
f 1049// 1050// 1051//
f 1051// 1050// 1027//
f 1051// 1027// 1028//
f 1046// 1047// 1051//
f 1051// 1047// 1048//
f 1051// 1048// 1049//
f 1043// 1044// 1051//
f 1051// 1044// 1045//
f 1051// 1045// 1046//
f 1040// 1041// 1051//
f 1051// 1041// 1042//
f 1051// 1042// 1043//
f 1052// 175// 1053//
f 1053// 175// 173//
f 1053// 173// 1054//
f 1054// 173// 172//
f 1054// 172// 1055//
f 1055// 172// 206//
f 1055// 206// 1056//
f 1056// 206// 205//
f 1056// 205// 1057//
f 1057// 205// 203//
f 1057// 203// 1058//
f 1058// 203// 201//
f 1058// 201// 1059//
f 1059// 201// 199//
f 1059// 199// 1060//
f 1060// 199// 197//
f 1060// 197// 1061//
f 1061// 197// 196//
f 1061// 196// 1062//
f 1062// 196// 194//
f 1062// 194// 1063//
f 1063// 194// 191//
f 1063// 191// 1064//
f 1064// 191// 189//
f 1064// 189// 1065//
f 1065// 189// 188//
f 1065// 188// 1066//
f 1066// 188// 187//
f 1066// 187// 1067//
f 1067// 187// 186//
f 1067// 186// 1068//
f 1068// 186// 184//
f 1068// 184// 1069//
f 1069// 184// 183//
f 1069// 183// 1070//
f 1070// 183// 182//
f 1070// 182// 1071//
f 1071// 182// 181//
f 1071// 181// 1072//
f 1072// 181// 180//
f 1072// 180// 1073//
f 1073// 180// 179//
f 1073// 179// 1074//
f 1074// 179// 177//
f 1074// 177// 1075//
f 1075// 177// 176//
f 1075// 176// 1052//
f 1052// 176// 175//
f 1062// 1063// 1076//
f 1076// 1063// 1064//
f 1076// 1064// 1065//
f 1059// 1060// 1076//
f 1076// 1060// 1061//
f 1076// 1061// 1062//
f 1056// 1057// 1076//
f 1076// 1057// 1058//
f 1076// 1058// 1059//
f 1053// 1054// 1076//
f 1076// 1054// 1055//
f 1076// 1055// 1056//
f 1074// 1075// 1076//
f 1076// 1075// 1052//
f 1076// 1052// 1053//
f 1071// 1072// 1076//
f 1076// 1072// 1073//
f 1076// 1073// 1074//
f 1068// 1069// 1076//
f 1076// 1069// 1070//
f 1076// 1070// 1071//
f 1065// 1066// 1076//
f 1076// 1066// 1067//
f 1076// 1067// 1068//
f 1077// 977// 1078//
f 1078// 977// 978//
f 1078// 978// 1079//
f 1079// 978// 955//
f 1079// 955// 1080//
f 1080// 955// 956//
f 1080// 956// 1081//
f 1081// 956// 957//
f 1081// 957// 1082//
f 1082// 957// 958//
f 1082// 958// 1083//
f 1083// 958// 959//
f 1083// 959// 1084//
f 1084// 959// 960//
f 1084// 960// 1085//
f 1085// 960// 961//
f 1085// 961// 1086//
f 1086// 961// 962//
f 1086// 962// 1087//
f 1087// 962// 963//
f 1087// 963// 1088//
f 1088// 963// 964//
f 1088// 964// 1089//
f 1089// 964// 965//
f 1089// 965// 1090//
f 1090// 965// 966//
f 1090// 966// 1091//
f 1091// 966// 967//
f 1091// 967// 1092//
f 1092// 967// 968//
f 1092// 968// 1093//
f 1093// 968// 969//
f 1093// 969// 1094//
f 1094// 969// 970//
f 1094// 970// 1095//
f 1095// 970// 971//
f 1095// 971// 1096//
f 1096// 971// 972//
f 1096// 972// 1097//
f 1097// 972// 973//
f 1097// 973// 1098//
f 1098// 973// 974//
f 1098// 974// 1099//
f 1099// 974// 975//
f 1099// 975// 1100//
f 1100// 975// 976//
f 1100// 976// 1077//
f 1077// 976// 977//
f 1087// 1088// 1101//
f 1101// 1088// 1089//
f 1101// 1089// 1090//
f 1084// 1085// 1101//
f 1101// 1085// 1086//
f 1101// 1086// 1087//
f 1081// 1082// 1101//
f 1101// 1082// 1083//
f 1101// 1083// 1084//
f 1078// 1079// 1101//
f 1101// 1079// 1080//
f 1101// 1080// 1081//
f 1099// 1100// 1101//
f 1101// 1100// 1077//
f 1101// 1077// 1078//
f 1096// 1097// 1101//
f 1101// 1097// 1098//
f 1101// 1098// 1099//
f 1093// 1094// 1101//
f 1101// 1094// 1095//
f 1101// 1095// 1096//
f 1090// 1091// 1101//
f 1101// 1091// 1092//
f 1101// 1092// 1093//
f 347// 139// 278//
f 278// 139// 141//
f 277// 346// 9//
f 9// 346// 325//
f 139// 347// 140//
f 140// 347// 346//
f 140// 346// 277//
f 1102// 1103// 231//
f 231// 1103// 232//
f 1103// 1104// 232//
f 232// 1104// 233//
f 1104// 1105// 233//
f 233// 1105// 236//
f 1105// 1106// 236//
f 236// 1106// 235//
f 1106// 1107// 235//
f 235// 1107// 234//
f 1107// 1102// 234//
f 234// 1102// 231//
f 1106// 1105// 1107//
f 1107// 1105// 1104//
f 1107// 1104// 1102//
f 1102// 1104// 1103//
f 1108// 1109// 271//
f 271// 1109// 272//
f 1109// 1110// 272//
f 272// 1110// 273//
f 1110// 1111// 273//
f 273// 1111// 274//
f 1111// 1112// 274//
f 274// 1112// 275//
f 1112// 1113// 275//
f 275// 1113// 269//
f 1113// 1114// 269//
f 269// 1114// 270//
f 1114// 1115// 270//
f 270// 1115// 276//
f 1115// 1108// 276//
f 276// 1108// 271//
f 1116// 1112// 1117//
f 1117// 1112// 1111//
f 1118// 1115// 1116//
f 1116// 1115// 1114//
f 1116// 1114// 1112//
f 1112// 1114// 1113//
f 1118// 1119// 1115//
f 1115// 1119// 1120//
f 1115// 1120// 1108//
f 1108// 1120// 1121//
f 1108// 1121// 1122//
f 1122// 1123// 1108//
f 1108// 1123// 1117//
f 1108// 1117// 1109//
f 1109// 1117// 1111//
f 1109// 1111// 1110//
f 1116// 1117// 1124//
f 1124// 1117// 1125//
f 1118// 1116// 1126//
f 1126// 1116// 1124//
f 1118// 1126// 1127//
f 1118// 1127// 1119//
f 1119// 1127// 1128//
f 1119// 1128// 1120//
f 1121// 1120// 1129//
f 1129// 1120// 1128//
f 1121// 1129// 1130//
f 1121// 1130// 1122//
f 1122// 1130// 1131//
f 1122// 1131// 1123//
f 1117// 1123// 1125//
f 1125// 1123// 1131//
f 1132// 1133// 266//
f 266// 1133// 267//
f 1133// 1134// 267//
f 267// 1134// 268//
f 1134// 1135// 268//
f 268// 1135// 258//
f 1136// 252// 264//
f 1136// 264// 1137//
f 1137// 264// 263//
f 1137// 263// 1138//
f 1138// 263// 262//
f 1138// 262// 1139//
f 1139// 262// 261//
f 1139// 261// 1140//
f 1140// 261// 260//
f 1140// 260// 1141//
f 1141// 260// 259//
f 1141// 259// 1142//
f 1142// 259// 256//
f 1142// 256// 1143//
f 1143// 256// 258//
f 1143// 258// 1135//
f 1132// 266// 265//
f 1132// 265// 1144//
f 1144// 265// 255//
f 1144// 255// 1145//
f 1145// 255// 254//
f 1145// 254// 1146//
f 1146// 254// 253//
f 1146// 253// 1147//
f 1147// 253// 250//
f 1147// 250// 1148//
f 1148// 250// 251//
f 1148// 251// 1149//
f 1149// 251// 252//
f 1149// 252// 1136//
f 1138// 1139// 1150//
f 1150// 1139// 1140//
f 1150// 1140// 1151//
f 1151// 1140// 1141//
f 1151// 1141// 1152//
f 1152// 1141// 1142//
f 1152// 1142// 1153//
f 1153// 1142// 1143//
f 1153// 1143// 1154//
f 1154// 1143// 1135//
f 1154// 1135// 1155//
f 1155// 1135// 1134//
f 1155// 1134// 1156//
f 1156// 1134// 1133//
f 1156// 1133// 1157//
f 1157// 1133// 1132//
f 1157// 1132// 1158//
f 1158// 1132// 1144//
f 1158// 1144// 1159//
f 1159// 1144// 1145//
f 1159// 1145// 1160//
f 1160// 1145// 1146//
f 1160// 1146// 1161//
f 1161// 1146// 1147//
f 1161// 1147// 1162//
f 1162// 1147// 1148//
f 1162// 1148// 1163//
f 1163// 1148// 1149//
f 1163// 1149// 1164//
f 1164// 1149// 1136//
f 1164// 1136// 1165//
f 1165// 1136// 1137//
f 1165// 1137// 1166//
f 1166// 1137// 1138//
f 1166// 1138// 1150//
f 1154// 1155// 1167//
f 1167// 1155// 1168//
f 1154// 1167// 1169//
f 1154// 1169// 1153//
f 1153// 1169// 1170//
f 1153// 1170// 1152//
f 1152// 1170// 1171//
f 1152// 1171// 1151//
f 1151// 1171// 1172//
f 1151// 1172// 1150//
f 1150// 1172// 1173//
f 1150// 1173// 1166//
f 1166// 1173// 1174//
f 1166// 1174// 1165//
f 1165// 1174// 1175//
f 1165// 1175// 1164//
f 1164// 1175// 1176//
f 1164// 1176// 1163//
f 1163// 1176// 1177//
f 1163// 1177// 1162//
f 1162// 1177// 1178//
f 1162// 1178// 1161//
f 1161// 1178// 1179//
f 1161// 1179// 1160//
f 1160// 1179// 1180//
f 1160// 1180// 1159//
f 1159// 1180// 1181//
f 1159// 1181// 1158//
f 1158// 1181// 1182//
f 1158// 1182// 1157//
f 1156// 1157// 1183//
f 1183// 1157// 1182//
f 1155// 1156// 1168//
f 1168// 1156// 1183//
f 1184// 1185// 242//
f 242// 1185// 243//
f 1185// 1186// 243//
f 243// 1186// 239//
f 1186// 1187// 239//
f 239// 1187// 240//
f 1187// 1188// 240//
f 240// 1188// 237//
f 1188// 1189// 237//
f 237// 1189// 241//
f 1189// 1190// 241//
f 241// 1190// 249//
f 1190// 1191// 249//
f 249// 1191// 248//
f 1191// 1192// 248//
f 248// 1192// 247//
f 1192// 1193// 247//
f 247// 1193// 246//
f 1193// 1194// 246//
f 246// 1194// 244//
f 1194// 1195// 244//
f 244// 1195// 245//
f 1195// 1184// 245//
f 245// 1184// 242//
f 1186// 1185// 1184//
f 1184// 1195// 1186//
f 1186// 1195// 1194//
f 1186// 1194// 1187//
f 1189// 1188// 1190//
f 1190// 1188// 1187//
f 1190// 1187// 1191//
f 1191// 1187// 1194//
f 1191// 1194// 1192//
f 1192// 1194// 1193//
f 1196// 1197// 17//
f 17// 1197// 15//
f 15// 1197// 1198//
f 1199// 64// 63//
f 1199// 63// 1200//
f 1200// 63// 61//
f 1200// 61// 1198//
f 1198// 61// 60//
f 1198// 60// 15//
f 64// 1199// 65//
f 65// 1199// 1201//
f 65// 1201// 48//
f 48// 1201// 1202//
f 48// 1202// 49//
f 49// 1202// 1203//
f 49// 1203// 51//
f 51// 1203// 1204//
f 51// 1204// 52//
f 52// 1204// 1205//
f 52// 1205// 53//
f 53// 1205// 1206//
f 53// 1206// 57//
f 57// 1206// 1207//
f 57// 1207// 58//
f 41// 43// 1208//
f 1208// 43// 1209//
f 43// 56// 1209//
f 1209// 56// 55//
f 1209// 55// 1210//
f 1210// 55// 54//
f 1210// 54// 1211//
f 1211// 54// 46//
f 1211// 46// 1212//
f 1212// 46// 45//
f 1212// 45// 1213//
f 1213// 45// 59//
f 1213// 59// 1214//
f 1214// 59// 58//
f 1214// 58// 1207//
f 41// 1208// 19//
f 19// 1208// 1215//
f 19// 1215// 20//
f 20// 1215// 1216//
f 20// 1216// 21//
f 1216// 1217// 21//
f 21// 1217// 22//
f 1218// 25// 23//
f 1218// 23// 1219//
f 1219// 23// 22//
f 1219// 22// 1217//
f 1220// 30// 40//
f 1220// 40// 1221//
f 1221// 40// 39//
f 1221// 39// 1222//
f 1222// 39// 29//
f 1222// 29// 1223//
f 1223// 29// 28//
f 1223// 28// 1224//
f 1224// 28// 27//
f 1224// 27// 1225//
f 1225// 27// 26//
f 1225// 26// 1226//
f 1226// 26// 25//
f 1226// 25// 1218//
f 1227// 34// 33//
f 1227// 33// 1228//
f 1228// 33// 35//
f 1228// 35// 1229//
f 1229// 35// 36//
f 1229// 36// 1230//
f 1230// 36// 37//
f 1230// 37// 1231//
f 1231// 37// 32//
f 1231// 32// 1232//
f 1232// 32// 31//
f 1232// 31// 1233//
f 1233// 31// 30//
f 1233// 30// 1220//
f 1196// 17// 24//
f 1196// 24// 1234//
f 1234// 24// 38//
f 1234// 38// 1235//
f 1235// 38// 34//
f 1235// 34// 1227//
f 1228// 1199// 1227//
f 1227// 1199// 1200//
f 1227// 1200// 1235//
f 1235// 1200// 1198//
f 1235// 1198// 1234//
f 1234// 1198// 1197//
f 1234// 1197// 1196//
f 1217// 1216// 1219//
f 1219// 1216// 1215//
f 1219// 1215// 1218//
f 1218// 1215// 1208//
f 1218// 1208// 1226//
f 1226// 1208// 1209//
f 1226// 1209// 1225//
f 1225// 1209// 1210//
f 1225// 1210// 1224//
f 1224// 1210// 1211//
f 1224// 1211// 1223//
f 1223// 1211// 1212//
f 1223// 1212// 1222//
f 1222// 1212// 1213//
f 1222// 1213// 1221//
f 1221// 1213// 1214//
f 1221// 1214// 1220//
f 1220// 1214// 1207//
f 1220// 1207// 1233//
f 1233// 1207// 1206//
f 1233// 1206// 1232//
f 1232// 1206// 1205//
f 1232// 1205// 1231//
f 1231// 1205// 1204//
f 1231// 1204// 1230//
f 1230// 1204// 1203//
f 1230// 1203// 1229//
f 1229// 1203// 1202//
f 1229// 1202// 1228//
f 1228// 1202// 1201//
f 1228// 1201// 1199//
f 1124// 1125// 1126//
f 1126// 1125// 1131//
f 1126// 1131// 1127//
f 1127// 1131// 1130//
f 1127// 1130// 1128//
f 1128// 1130// 1129//
f 1168// 1183// 1167//
f 1167// 1183// 1182//
f 1167// 1182// 1181//
f 1175// 1174// 1167//
f 1167// 1174// 1173//
f 1167// 1173// 1169//
f 1181// 1180// 1167//
f 1167// 1180// 1179//
f 1167// 1179// 1178//
f 1178// 1177// 1167//
f 1167// 1177// 1176//
f 1167// 1176// 1175//
f 1172// 1171// 1173//
f 1173// 1171// 1170//
f 1173// 1170// 1169//
