v -2.54 -1.468066 -0.588301
v -2.54 -1.498424 -0.588301
v -2.54 -1.498424 -0.560129
newmtl 1
Ka 0.2980392156862745 0.2980392156862745 0.2980392156862745
Kd 0.20784313725490197 0.20784313725490197 0.20784313725490197
Ks 0.01568627450980392 0.01568627450980392 0.01568627450980392
d 0.0
endmtl
v -2.54 -2.088756 -0.85
v -2.54 -2.5 -0.85
v -2.54 -2.5 -0.750617
v -2.54 -0.869378 -0.712428
v -2.54 -0.869311 -0.712556
v -2.54 -1.13223 -0.712556
v -2.54 -1.334616 -0.712344
v -2.54 -1.332589 -0.712556
v -2.54 -1.355699 -0.712556
v -2.54 -0.5 -0.75
v -2.54 0.0 -0.75
v -2.54 0.0 -0.750617
v -2.54 -1.231435 -0.537706
v -2.54 -1.230473 -0.535026
v -2.54 -1.230473 -0.560129
v -2.54 -1.588392 -0.560129
v -2.54 -1.557187 -0.559319
v -2.54 -1.543481 -0.559319
v -2.54 -1.52059 -0.463235
v -2.54 -1.588392 -0.462425
v -2.54 -1.498424 -0.462425
v -2.54 -1.484436 -0.559319
v -2.54 -1.470731 -0.559319
v -2.54 -1.468066 -0.560129
v -2.54 -1.498424 -0.533038
v -2.54 -1.493671 -0.533038
v -2.54 -1.468066 -0.462425
v -2.54 -1.498424 -0.486611
v -2.54 -1.507327 -0.463235
v -2.54 -1.24048 -0.500351
v -2.54 -1.294013 -0.545271
v -2.54 -1.243523 -0.491775
v -2.54 -1.247997 -0.484928
v -2.54 -1.239193 -0.512358
v -2.54 -1.239199 -0.513255
v -2.54 -1.28828 -0.547814
v -2.54 -1.27734 -0.549753
v -2.54 -1.271214 -0.47301
v -2.54 -1.262929 -0.474722
v -2.54 -1.294013 -0.476754
v -2.54 -1.286776 -0.474099
v -2.54 -1.27547 -0.472814
v -2.54 -1.255426 -0.478331
v -2.54 -1.249287 -0.483474
v -2.54 -1.24071 -0.52505
v -2.54 -1.243733 -0.532879
v -2.54 -1.248624 -0.539768
v -2.54 -1.257389 -0.546384
v -2.54 -1.264361 -0.5489
v -2.54 -1.273308 -0.549887
v -2.54 -1.250985 -0.542058
v -2.54 -1.298115 -0.543452
v -2.54 -1.298115 -0.55534
v -2.54 -1.311783 -0.560129
v -2.54 -1.285213 -0.462425
v -2.54 -1.288656 -0.462734
v -2.54 -1.294013 -0.462425
v -2.54 -1.294013 -0.464325
v -2.54 -1.311783 -0.462425
v -2.54 -1.298115 -0.465544
v -2.54 -1.298115 -0.478512
v -2.54 -1.276229 -0.461618
v -2.54 -1.294013 0.85
v -2.54 -1.275347 -0.461614
v -2.54 -1.230473 0.85
v -2.54 -1.26806 -0.462425
v -2.54 -1.230473 -0.462425
v -2.54 -1.252297 -0.466742
v -2.54 -1.2625 -0.463043
v -2.54 -1.233382 -0.484362
v -2.54 -1.240052 -0.475761
v -2.54 -1.242846 -0.473125
v -2.54 -1.224714 -0.462425
v -2.54 -1.228698 -0.494949
v -2.54 -1.230473 -0.490937
v -2.54 -1.227732 -0.527385
v -2.54 -1.224714 -0.560129
v -2.54 -1.226175 -0.513094
v -2.54 -1.226398 -0.507357
v -2.54 -1.254775 -0.558344
v -2.54 -1.245779 -0.553952
v -2.54 -1.238505 -0.547824
v -2.54 -1.236962 -0.546094
v -2.54 -1.262929 -0.560129
v -2.54 -1.230473 -0.588301
v -2.54 -1.265081 -0.5606
v -2.54 -1.271515 -0.56094
v -2.54 -1.294013 -0.588301
v -2.54 -1.279206 -0.560129
v -2.54 -1.294013 -0.560129
v -2.54 -1.294013 -0.556841
v -2.54 -1.287385 -0.559267
v -2.54 -1.378099 -0.659832
v -2.54 -1.39022 -0.6947
v -2.54 -1.393486 -0.694798
v -2.54 -1.378099 -0.588301
v -2.54 -1.412226 -0.643122
v -2.54 -1.424703 -0.643122
v -2.54 -1.391693 -0.700349
v -2.54 -1.392012 -0.700349
v -2.54 -1.392565 -0.697997
v -2.54 -1.37229 -0.643122
v -2.54 -1.35883 -0.643122
v -2.54 -1.385344 -0.712556
v -2.54 -1.385749 -0.711598
v -2.54 -1.378099 -0.692136
v -2.54 -1.380469 -0.724075
v -2.54 -1.378099 -0.712556
v -2.54 -1.378115 -0.728395
v -2.54 -1.378099 -0.728413
v -2.54 -1.355699 -0.750617
v -2.54 -1.361311 -0.743086
v -2.54 -1.361311 -0.732377
v -2.54 -1.368139 -0.733752
v -2.54 -1.371029 -0.733429
v -2.54 -1.378099 -0.741923
v -2.54 -1.373935 -0.743509
v -2.54 -1.378099 -0.750617
v -2.54 -1.369072 -0.744068
v -2.54 -1.366416 -0.743973
v -2.54 -1.373664 -0.73244
v -2.54 -1.375873 -0.730907
v -2.54 -1.39356 -0.72211
v -2.54 -1.388112 -0.732721
v -2.54 -1.468066 -0.750617
v -2.54 -1.397327 -0.712556
v -2.54 -1.383708 -0.73801
v -2.54 -1.382887 -0.738762
v -2.54 -1.378684 -0.7417
v -2.54 -0.706963 -0.696042
v -2.54 -0.685732 -0.677922
v -2.54 -0.5 -0.712556
v -2.54 -0.731639 -0.708092
v -2.54 -0.770874 -0.748047
v -2.54 -0.757491 -0.738001
v -2.54 -0.747303 -0.725481
v -2.54 -0.741247 -0.712556
v -2.54 -0.740383 -0.710712
v -2.54 -0.670226 -0.655825
v -2.54 -0.660392 -0.630403
v -2.54 -0.5 -0.588301
v -2.54 -0.65704 -0.603459
v -2.54 -0.657223 -0.597073
v -2.54 -0.658776 -0.588301
v -2.54 -0.5 -0.560129
v -2.54 -0.740699 -0.496139
v -2.54 -0.767709 -0.49279
v -2.54 -0.813479 -0.464098
v -2.54 -0.66177 -0.571393
v -2.54 -0.666743 -0.560129
v -2.54 -0.5 -0.462425
v -2.54 -0.672637 -0.546778
v -2.54 -0.689147 -0.525581
v -2.54 -0.797426 -0.477846
v -2.54 -0.775565 -0.493217
v -2.54 -0.783421 -0.494156
v -2.54 -0.693684 -0.521283
v -2.54 -0.7154 -0.505988
v -2.54 -1.13223 0.85
v -2.54 -0.0 0.85
v -2.54 -0.5 0.75
v -2.54 -0.0 0.75
v -2.54 -0.816179 -0.462425
v -2.54 -0.830096 -0.453799
v -2.54 -0.861593 -0.441635
v -2.54 -0.895457 -0.437455
v -2.54 -0.923616 -0.440414
v -2.54 -1.348539 -0.681732
v -2.54 -1.350785 -0.685047
v -2.54 -1.349276 -0.656286
v -2.54 -1.350517 -0.701729
v -2.54 -1.348274 -0.704903
v -2.54 -1.317574 -0.644871
v -2.54 -1.311783 -0.588301
v -2.54 -1.314006 -0.647002
v -2.54 -1.311783 -0.649
v -2.54 -1.35207 -0.688595
v -2.54 -1.352567 -0.693079
v -2.54 -1.351995 -0.697915
v -2.54 -1.324176 -0.64251
v -2.54 -1.333016 -0.64155
v -2.54 -1.355699 -0.588301
v -2.54 -1.349276 -0.644595
v -2.54 -1.339652 -0.642003
v -2.54 -1.34483 -0.707914
v -2.54 -1.341211 -0.710053
v -2.54 -1.331838 -0.651325
v -2.54 -1.328275 -0.651592
v -2.54 -1.318697 -0.66056
v -2.54 -1.325055 -0.652444
v -2.54 -1.322357 -0.653879
v -2.54 -1.318807 -0.662161
v -2.54 -1.319284 -0.66403
v -2.54 -1.320152 -0.665654
v -2.54 -1.321325 -0.666946
v -2.54 -1.325568 -0.669599
v -2.54 -1.339741 -0.652223
v -2.54 -1.333016 -0.672841
v -2.54 -1.346529 -0.654712
v -2.54 -1.337676 -0.674726
v -2.54 -1.34567 -0.679171
v -2.54 -1.320541 -0.655484
v -2.54 -1.319509 -0.657016
v -2.54 -1.318915 -0.658641
v -2.54 -1.30622 -0.696911
v -2.54 -1.294013 -0.712556
v -2.54 -1.310438 -0.65021
v -2.54 -1.308202 -0.653463
v -2.54 -1.310925 -0.69982
v -2.54 -1.311783 -0.700143
v -2.54 -1.311783 -0.674626
v -2.54 -1.309708 -0.672497
v -2.54 -1.308138 -0.669989
v -2.54 -1.306811 -0.666313
v -2.54 -1.306294 -0.661641
v -2.54 -1.306769 -0.657337
v -2.54 -1.311677 -0.674556
v -2.54 -1.318471 -0.70266
v -2.54 -1.324518 -0.681584
v -2.54 -1.317345 -0.678296
v -2.54 -1.326017 -0.703542
v -2.54 -1.326548 -0.703539
v -2.54 -1.332421 -0.684894
v -2.54 -1.332718 -0.702847
v -2.54 -1.340213 -0.694258
v -2.54 -1.340095 -0.692761
v -2.54 -1.335823 -0.701711
v -2.54 -1.33692 -0.701045
v -2.54 -1.338301 -0.699819
v -2.54 -1.339352 -0.698265
v -2.54 -1.339964 -0.696554
v -2.54 -1.339548 -0.690882
v -2.54 -1.338618 -0.689286
v -2.54 -1.337118 -0.687725
v -2.54 -1.316908 -0.712556
v -2.54 -1.314831 -0.712344
v -2.54 -1.311783 -0.712556
v -2.54 -1.311783 -0.71128
v -2.54 -1.30622 -0.709339
v -2.54 -1.324838 -0.713367
v -2.54 -1.311783 -0.750617
v -2.54 -1.363773 -0.733184
v -2.54 -1.239768 -0.678881
v -2.54 -1.241477 -0.659627
v -2.54 -1.237323 -0.682298
v -2.54 -1.23563 -0.686513
v -2.54 -1.230473 -0.712556
v -2.54 -1.23682 -0.702901
v -2.54 -1.235364 -0.698829
v -2.54 -1.277876 -0.701135
v -2.54 -1.277557 -0.701135
v -2.54 -1.277876 -0.711746
v -2.54 -1.275682 -0.703989
v -2.54 -1.271881 -0.708082
v -2.54 -1.243521 -0.675703
v -2.54 -1.248764 -0.673093
v -2.54 -1.249173 -0.654693
v -2.54 -1.25754 -0.670974
v -2.54 -1.268052 -0.651752
v -2.54 -1.263975 -0.651325
v -2.54 -1.256692 -0.652095
v -2.54 -1.272508 -0.642235
v -2.54 -1.277544 -0.643794
v -2.54 -1.281522 -0.646101
v -2.54 -1.284715 -0.649196
v -2.54 -1.287161 -0.653121
v -2.54 -1.244719 -0.710791
v -2.54 -1.240666 -0.707963
v -2.54 -1.23932 -0.706599
v -2.54 -1.277876 -0.668125
v -2.54 -1.277458 -0.662803
v -2.54 -1.276214 -0.658518
v -2.54 -1.274799 -0.65604
v -2.54 -1.234772 -0.693374
v -2.54 -1.234819 -0.691647
v -2.54 -1.241477 -0.647936
v -2.54 -1.244715 -0.646105
v -2.54 -1.253805 -0.642807
v -2.54 -1.265105 -0.64155
v -2.54 -1.289026 -0.658666
v -2.54 -1.289912 -0.667584
v -2.54 -1.289912 -0.711746
v -2.54 -1.27298 -0.654104
v -2.54 -1.270844 -0.652727
v -2.54 -1.263081 -0.712556
v -2.54 -1.262738 -0.71268
v -2.54 -1.294013 -0.750617
v -2.54 -1.230473 -0.750617
v -2.54 -1.256533 -0.713367
v -2.54 -1.249553 -0.712556
v -2.54 -1.249333 -0.712531
v -2.54 -1.051649 -0.539998
v -2.54 -1.069583 -0.556208
v -2.54 -1.13223 -0.462425
v -2.54 -1.13223 -0.560129
v -2.54 -0.957898 -0.452495
v -2.54 -0.972667 -0.462425
v -2.54 -0.988364 -0.472979
v -2.54 -1.010791 -0.498867
v -2.54 -1.025254 -0.526947
v -2.54 -1.031607 -0.529201
v -2.54 -0.777026 -0.750617
v -2.54 -0.786652 -0.754639
v -2.54 0.0 -0.85
v -2.54 -0.802787 -0.757122
v -2.54 -1.13223 -0.85
v -2.54 -0.805282 -0.757166
v -2.54 -0.85056 -0.739898
v -2.54 -0.836938 -0.749339
v -2.54 -1.13223 -0.750617
v -2.54 -0.83359 -0.750617
v -2.54 -0.821692 -0.755161
v -2.54 -0.861382 -0.727715
v -2.54 -0.856517 -0.643081
v -2.54 -0.948059 -0.595261
v -2.54 -0.844358 -0.632055
v -2.54 -0.829819 -0.62434
v -2.54 -0.952321 -0.675232
v -2.54 -0.956522 -0.672255
v -2.54 -0.969236 -0.631468
v -2.54 -1.04997 -0.609389
v -2.54 -1.046331 -0.596394
v -2.54 -1.041625 -0.588301
v -2.54 -0.701763 -0.588301
v -2.54 -0.96121 -0.670403
v -2.54 -0.966504 -0.669724
v -2.54 -0.967168 -0.669772
v -2.54 -1.046116 -0.698891
v -2.54 -1.024992 -0.708307
v -2.54 -0.945326 -0.690901
v -2.54 -0.9455 -0.688205
v -2.54 -0.873596 -0.68202
v -2.54 -0.946872 -0.683006
v -2.54 -0.949499 -0.678345
v -2.54 -0.95677 -0.70968
v -2.54 -0.95234 -0.70653
v -2.54 -0.950752 -0.704913
v -2.54 -0.947774 -0.700622
v -2.54 -0.945974 -0.69599
v -2.54 -0.873269 -0.695538
v -2.54 -0.873596 -0.688852
v -2.54 -0.705523 -0.628718
v -2.54 -0.714186 -0.643525
v -2.54 -0.748644 -0.650215
v -2.54 -0.726501 -0.656028
v -2.54 -0.741066 -0.664942
v -2.54 -0.773922 -0.627615
v -2.54 -0.759947 -0.63731
v -2.54 -0.700078 -0.602093
v -2.54 -0.700787 -0.611914
v -2.54 -0.789014 -0.621853
v -2.54 -0.805282 -0.619854
v -2.54 -0.813302 -0.620313
v -2.54 -0.969218 -0.670226
v -2.54 -0.970602 -0.670407
v -2.54 -1.001344 -0.670407
v -2.54 -1.07948 -0.665413
v -2.54 -1.067609 -0.681337
v -2.54 -1.064313 -0.684744
v -2.54 -1.03644 -0.653499
v -2.54 -1.043896 -0.643125
v -2.54 -1.048741 -0.631001
v -2.54 -1.05053 -0.617122
v -2.54 -1.090507 -0.597127
v -2.54 -1.092885 -0.616439
v -2.54 -1.13223 -0.588301
v -2.54 -1.092732 -0.621869
v -2.54 -1.088803 -0.644188
v -2.54 -1.005443 -0.712079
v -2.54 -0.965137 -0.712079
v -2.54 -0.961289 -0.711459
v -2.54 -1.014438 -0.667786
v -2.54 -1.026394 -0.662004
v -2.54 -0.99178 -0.563837
v -2.54 -0.707905 -0.570437
v -2.54 -0.702083 -0.585683
v -2.54 -0.997245 -0.563837
v -2.54 -1.039627 -0.584865
v -2.54 -1.033175 -0.57781
v -2.54 -1.022647 -0.570293
v -2.54 -1.010767 -0.565576
v -2.54 -0.976753 -0.522334
v -2.54 -0.961243 -0.504016
v -2.54 -0.804599 -0.544025
v -2.54 -0.960057 -0.502941
v -2.54 -0.940884 -0.489582
v -2.54 -0.815103 -0.52231
v -2.54 -0.715049 -0.560129
v -2.54 -0.799487 -0.541243
v -2.54 -0.990954 -0.560129
v -2.54 -0.987421 -0.54428
v -2.54 -0.784161 -0.535702
v -2.54 -0.768392 -0.533778
v -2.54 -0.761706 -0.534105
v -2.54 -0.830451 -0.504024
v -2.54 -0.919475 -0.481334
v -2.54 -0.84856 -0.490792
v -2.54 -0.89614 -0.478444
v -2.54 -0.870857 -0.481719
v -2.54 -0.744815 -0.537997
v -2.54 -0.729528 -0.545992
v -2.54 -0.717346 -0.556815
v -2.54 -1.072206 -0.560129
v -2.54 -1.082881 -0.576083
v -2.54 -1.087309 -0.588301
v -2.54 -1.487163 -0.615662
v -2.54 -1.468066 -0.615662
v -2.54 -1.437672 -0.615662
v -2.54 -1.487163 -0.626715
v -2.54 -1.489349 -0.700791
v -2.54 -1.498424 -0.712556
v -2.54 -1.489349 -0.711746
v -2.54 -1.468066 -0.712556
v -2.54 -1.468066 -0.711746
v -2.54 -1.437672 -0.711746
v -2.54 -1.450075 -0.668469
v -2.54 -1.450075 -0.700791
v -2.54 -1.468066 -0.668469
v -2.54 -1.468066 -0.700791
v -2.54 -1.484436 -0.668469
v -2.54 -1.484436 -0.657465
v -2.54 -1.468066 -0.657465
v -2.54 -1.468066 -0.626715
v -2.54 -1.450075 -0.657465
v -2.54 -1.450075 -0.626715
v -2.54 -1.369023 -0.548364
v -2.54 -1.369023 -0.559319
v -2.54 -1.378099 -0.560129
v -2.54 -1.355699 -0.462425
v -2.54 -1.366837 -0.463235
v -2.54 -1.378099 -0.462425
v -2.54 -1.366837 -0.474288
v -2.54 -1.364111 -0.516042
v -2.54 -1.364111 -0.505038
v -2.54 -1.355699 -0.505038
v -2.54 -1.355699 -0.474288
v -2.54 -1.32975 -0.505038
v -2.54 -1.32975 -0.474288
v -2.54 -1.317346 -0.559319
v -2.54 -1.355699 -0.560129
v -2.54 -1.317346 -0.463235
v -2.54 -1.355699 -0.463235
v -2.54 -1.355699 -0.559319
v -2.54 -1.296579 -0.477695
v -2.54 -2.088756 -0.750617
v -2.54 -1.588392 -0.85
v -2.54 -1.588392 -0.750617
v -2.54 -1.498424 -0.85
v -2.54 -1.498424 -0.750617
v -2.54 -1.468066 -0.85
v -2.54 -1.378099 -0.85
v -2.54 -1.355699 -0.85
v -2.54 -1.311783 -0.85
v -2.54 -1.294013 -0.85
v -2.54 -1.230473 -0.85
v -2.54 -1.267618 -0.710917
v -2.54 -1.224714 -0.712556
v -2.54 -1.223252 -0.711746
v -2.54 -1.171576 -0.711746
v -2.54 -1.171576 -0.615662
v -2.54 -1.224714 -0.750617
v -2.54 -1.224714 -0.85
v -2.54 -1.221066 -0.615662
v -2.54 -1.224714 -0.588301
v -2.54 -1.221066 -0.626715
v -2.54 -1.223252 -0.700791
v -2.54 -1.183979 -0.668469
v -2.54 -1.183979 -0.700791
v -2.54 -1.21834 -0.668469
v -2.54 -1.21834 -0.657465
v -2.54 -1.183979 -0.657465
v -2.54 -1.183979 -0.626715
v -2.54 -1.58291 -0.680435
v -2.54 -1.578043 -0.690296
v -2.54 -1.588392 -0.712556
v -2.54 -1.588392 -0.588301
v -2.54 -1.550206 -0.617434
v -2.54 -1.561718 -0.6218
v -2.54 -1.571236 -0.628385
v -2.54 -1.575228 -0.632372
v -2.54 -1.581021 -0.640943
v -2.54 -1.571236 -0.698286
v -2.54 -1.56953 -0.699803
v -2.54 -1.56012 -0.706043
v -2.54 -1.548908 -0.710093
v -2.54 -1.533927 -0.711746
v -2.54 -1.507499 -0.711746
v -2.54 -1.507499 -0.615662
v -2.54 -1.53491 -0.615662
v -2.54 -1.584389 -0.650299
v -2.54 -1.585727 -0.662476
v -2.54 -1.585366 -0.669296
v -2.54 -1.604762 -0.711746
v -2.54 -1.591057 -0.711746
v -2.54 -1.663807 -0.711746
v -2.54 -1.654007 -0.685465
v -2.54 -1.613997 -0.685465
v -2.54 -1.627653 -0.615662
v -2.54 -1.640916 -0.615662
v -2.54 -2.088756 -0.712556
v -2.54 -1.533682 -0.533038
v -2.54 -1.183979 -0.463235
v -2.54 -1.183979 -0.548364
v -2.54 -1.222245 -0.548364
v -2.54 -1.171576 -0.559319
v -2.54 -1.171576 -0.463235
v -2.54 -1.222245 -0.559319
v -2.54 -1.413602 -0.559319
v -2.54 -1.387174 -0.559319
v -2.54 -1.355699 -0.548364
v -2.54 -1.355699 -0.516042
v -2.54 -1.32975 -0.548364
v -2.54 -1.32975 -0.516042
v -2.54 -1.462585 -0.528009
v -2.54 -1.457718 -0.53787
v -2.54 -1.387174 -0.463235
v -2.54 -1.414584 -0.463235
v -2.54 -1.42988 -0.465007
v -2.54 -1.441393 -0.469373
v -2.54 -1.439795 -0.553616
v -2.54 -1.428583 -0.557667
v -2.54 -1.45091 -0.475958
v -2.54 -1.454903 -0.479945
v -2.54 -1.460695 -0.488516
v -2.54 -1.45091 -0.545859
v -2.54 -1.449204 -0.547376
v -2.54 -1.464064 -0.497872
v -2.54 -1.465401 -0.510049
v -2.54 -1.465041 -0.51687
v -2.54 -1.677512 -0.711746
v -2.54 -2.088756 -0.588301
v -2.54 -2.088756 -0.560129
v -2.54 -2.088756 -0.462425
v -2.54 -2.5 -0.712556
v -2.54 -2.5 -0.588301
v -2.54 -2.5 -0.560129
v -2.54 -2.5 -0.462425
v -2.54 -1.224714 0.85
v -2.54 -2.5 0.85
v -2.54 -2.088756 0.85
v -2.54 -1.588392 0.85
v -2.54 -1.498424 0.85
v -2.54 -1.468066 0.85
v -2.54 -1.378099 0.85
v -2.54 -1.355699 0.85
v -2.54 -1.311783 0.85
v -0.0 -0.0 0.85
v 2.54 -0.0 0.75
v 0.4 -0.0 1.25
v 2.14 -0.0 1.25
v 2.54 -0.0 0.85
v -2.14 -0.0 1.25
v -0.4 -0.0 1.25
v -0.0 0.0 -0.85
v -0.4 0.0 -1.25
v -2.14 0.0 -1.25
v 2.14 0.0 -1.25
v 0.4 0.0 -1.25
v 2.54 0.0 -0.85
v 2.54 0.0 -0.75
v 2.54 -0.5 -0.75
v 2.54 -0.5 0.75
v 2.54 -2.5 0.85
v 2.54 -2.5 -0.85
v -0.4 -2.5 1.25
v -0.0 -2.5 0.85
v -2.14 -2.5 1.25
v -2.14 -2.5 -1.25
v -0.4 -2.5 -1.25
v -0.0 -2.5 -0.85
v -1.59 -2.5 -0.32
v -1.59 -2.5 0.32
v -0.95 -2.5 0.32
v -0.95 -2.5 -0.32
v 2.14 -2.5 -1.25
v 0.95 -2.5 -0.32
v 1.59 -2.5 -0.32
v 0.4 -2.5 -1.25
v 1.59 -2.5 0.32
v 2.14 -2.5 1.25
v 0.95 -2.5 0.32
v 0.4 -2.5 1.25
v -0.95 -0.5 0.32
v 0.95 -0.5 0.32
v -0.95 -0.5 -0.32
v 0.95 -0.5 -0.32
v -1.59 -0.5 -0.32
v 1.59 -0.5 0.32
v 1.59 -0.5 -0.32
v -1.59 -0.5 0.32
v -0.95 0.288478 -0.32
v -1.59 0.288478 -0.32
v -0.95 0.4292 -0.33472
newmtl 2
Ka 0.8274509803921568 0.6666666666666666 0.12941176470588237
Kd 0.8274509803921568 0.6666666666666666 0.12941176470588237
Ks 0.8274509803921568 0.6666666666666666 0.12941176470588237
d 0.0
endmtl
v -1.59 0.4292 -0.33472
v -0.95 0.563828 -0.378242
v -1.59 0.563828 -0.378242
v -0.95 2.277019 -1.136941
v -1.59 2.277019 -1.136941
v -1.59 2.538357 -1.221426
v -0.95 2.538357 -1.221426
v -1.59 2.811522 -1.25
v -0.95 2.811522 -1.25
v -0.95 4.240192 -1.25
v -1.59 4.240192 -1.25
v -1.44 4.8 -1.1
v -1.44 4.8 -0.76
v -1.1 4.8 -1.1
v -1.1 4.8 -0.76
v -1.59 4.240192 -0.61
v -1.59 2.811522 -0.61
v -0.95 4.240192 -0.61
v -0.95 2.811522 -0.61
v -0.95 2.6708 -0.59528
v -1.59 2.6708 -0.59528
v -0.95 2.536172 -0.551758
v -1.59 2.536172 -0.551758
v -0.95 0.822981 0.206941
v -1.59 0.822981 0.206941
v -1.59 0.561643 0.291426
v -0.95 0.561643 0.291426
v -1.59 0.288478 0.32
v -0.95 0.288478 0.32
v -0.95 -7.940193 0.32
v -1.59 -7.940193 0.32
v -1.59 -7.940193 -0.32
v -0.95 -7.940193 -0.32
v -1.44 -8.5 0.17
v -1.44 -8.5 -0.17
v -1.1 -8.5 0.17
v -1.1 -8.5 -0.17
v 1.59 0.288478 -0.32
v 0.95 0.288478 -0.32
v 1.59 0.4292 -0.33472
v 0.95 0.4292 -0.33472
v 1.59 0.563828 -0.378242
v 0.95 0.563828 -0.378242
v 1.59 2.277019 -1.136941
v 0.95 2.277019 -1.136941
v 0.95 2.538357 -1.221426
v 1.59 2.538357 -1.221426
v 0.95 2.811522 -1.25
v 1.59 2.811522 -1.25
v 1.59 4.240192 -1.25
v 0.95 4.240192 -1.25
v 1.1 4.8 -1.1
v 1.1 4.8 -0.76
v 1.44 4.8 -1.1
v 1.44 4.8 -0.76
v 0.95 4.240192 -0.61
v 0.95 2.811522 -0.61
v 1.59 4.240192 -0.61
v 1.59 2.811522 -0.61
v 1.59 2.6708 -0.59528
v 0.95 2.6708 -0.59528
v 1.59 2.536172 -0.551758
v 0.95 2.536172 -0.551758
v 1.59 0.822981 0.206941
v 0.95 0.822981 0.206941
v 0.95 0.561643 0.291426
v 1.59 0.561643 0.291426
v 0.95 0.288478 0.32
v 1.59 0.288478 0.32
v 1.59 -7.940193 0.32
v 0.95 -7.940193 0.32
v 0.95 -7.940193 -0.32
v 1.59 -7.940193 -0.32
v 1.1 -8.5 0.17
v 1.1 -8.5 -0.17
v 1.44 -8.5 0.17
v 1.44 -8.5 -0.17
v -2.55 -1.572431 -0.668283
v -2.55 -1.585366 -0.669296
v -2.55 -1.572685 -0.66282
newmtl 3
Ka 1.0 1.0 1.0
Kd 1.0 1.0 1.0
Ks 0.8784313725490196 0.8784313725490196 0.8784313725490196
d 0.0
endmtl
v -2.55 -1.585727 -0.662476
v -2.55 -1.571555 -0.651997
v -2.55 -1.584389 -0.650299
v -2.55 -1.568998 -0.644655
v -2.55 -1.581021 -0.640943
v -2.55 -1.56542 -0.639087
v -2.55 -1.575228 -0.632372
v -2.55 -1.562148 -0.635753
v -2.55 -1.571236 -0.628385
v -2.55 -1.554761 -0.630907
v -2.55 -1.561718 -0.6218
v -2.55 -1.546349 -0.627977
v -2.55 -1.550206 -0.617434
v -2.55 -1.534418 -0.626715
v -2.55 -1.53491 -0.615662
v -2.55 -1.519903 -0.626715
v -2.55 -1.507499 -0.615662
v -2.55 -1.519903 -0.700791
v -2.55 -1.507499 -0.711746
v -2.55 -1.533854 -0.700791
v -2.55 -1.533927 -0.711746
v -2.55 -1.545888 -0.699517
v -2.55 -1.548908 -0.710093
v -2.55 -1.554152 -0.69661
v -2.55 -1.56012 -0.706043
v -2.55 -1.560543 -0.692465
v -2.55 -1.56953 -0.699803
v -2.55 -1.562418 -0.69077
v -2.55 -1.571236 -0.698286
v -2.55 -1.567437 -0.684448
v -2.55 -1.578043 -0.690296
v -2.55 -1.570659 -0.677227
v -2.55 -1.58291 -0.680435
v -2.54 -1.562148 -0.635753
v -2.54 -1.56542 -0.639087
v -2.54 -1.568998 -0.644655
v -2.54 -1.571555 -0.651997
v -2.54 -1.572685 -0.66282
v -2.54 -1.534418 -0.626715
v -2.54 -1.546349 -0.627977
v -2.54 -1.554761 -0.630907
v -2.54 -1.519903 -0.626715
v -2.54 -1.519903 -0.700791
v -2.54 -1.533854 -0.700791
v -2.54 -1.562418 -0.69077
v -2.54 -1.560543 -0.692465
v -2.54 -1.554152 -0.69661
v -2.54 -1.545888 -0.699517
v -2.54 -1.572431 -0.668283
v -2.54 -1.570659 -0.677227
v -2.54 -1.567437 -0.684448
v -2.55 -1.393486 -0.694798
v -2.55 -1.392565 -0.697997
v -2.55 -1.392012 -0.700349
v -2.55 -1.391693 -0.700349
v -2.55 -1.39022 -0.6947
v -2.55 -1.37229 -0.643122
v -2.55 -1.35883 -0.643122
v -2.55 -1.385749 -0.711598
v -2.55 -1.380469 -0.724075
v -2.55 -1.375873 -0.730907
v -2.55 -1.378115 -0.728395
v -2.55 -1.373664 -0.73244
v -2.55 -1.371029 -0.733429
v -2.55 -1.368139 -0.733752
v -2.55 -1.363773 -0.733184
v -2.55 -1.361311 -0.732377
v -2.55 -1.361311 -0.743086
v -2.55 -1.366416 -0.743973
v -2.55 -1.369072 -0.744068
v -2.55 -1.373935 -0.743509
v -2.55 -1.378684 -0.7417
v -2.55 -1.382887 -0.738762
v -2.55 -1.383708 -0.73801
v -2.55 -1.388112 -0.732721
v -2.55 -1.39356 -0.72211
v -2.55 -1.424703 -0.643122
v -2.55 -1.412226 -0.643122
v -2.55 -1.324838 -0.713367
v -2.55 -1.334616 -0.712344
v -2.55 -1.341211 -0.710053
v -2.55 -1.34483 -0.707914
v -2.55 -1.348274 -0.704903
v -2.55 -1.350517 -0.701729
v -2.55 -1.351995 -0.697915
v -2.55 -1.352567 -0.693079
v -2.55 -1.35207 -0.688595
v -2.55 -1.350785 -0.685047
v -2.55 -1.348539 -0.681732
v -2.55 -1.34567 -0.679171
v -2.55 -1.337676 -0.674726
v -2.55 -1.333016 -0.672841
v -2.55 -1.325568 -0.669599
v -2.55 -1.321325 -0.666946
v -2.55 -1.320152 -0.665654
v -2.55 -1.319284 -0.66403
v -2.55 -1.318807 -0.662161
v -2.55 -1.318697 -0.66056
v -2.55 -1.318915 -0.658641
v -2.55 -1.319509 -0.657016
v -2.55 -1.320541 -0.655484
v -2.55 -1.322357 -0.653879
v -2.55 -1.325055 -0.652444
v -2.55 -1.328275 -0.651592
v -2.55 -1.331838 -0.651325
v -2.55 -1.339741 -0.652223
v -2.55 -1.346529 -0.654712
v -2.55 -1.349276 -0.656286
v -2.55 -1.349276 -0.644595
v -2.55 -1.339652 -0.642003
v -2.55 -1.333016 -0.64155
v -2.55 -1.324176 -0.64251
v -2.55 -1.317574 -0.644871
v -2.55 -1.314006 -0.647002
v -2.55 -1.310438 -0.65021
v -2.55 -1.308202 -0.653463
v -2.55 -1.306769 -0.657337
v -2.55 -1.306294 -0.661641
v -2.55 -1.306811 -0.666313
v -2.55 -1.308138 -0.669989
v -2.55 -1.309708 -0.672497
v -2.55 -1.324518 -0.681584
v -2.55 -1.317345 -0.678296
v -2.55 -1.311677 -0.674556
v -2.55 -1.332421 -0.684894
v -2.55 -1.337118 -0.687725
v -2.55 -1.338618 -0.689286
v -2.55 -1.339548 -0.690882
v -2.55 -1.340095 -0.692761
v -2.55 -1.340213 -0.694258
v -2.55 -1.339964 -0.696554
v -2.55 -1.339352 -0.698265
v -2.55 -1.338301 -0.699819
v -2.55 -1.33692 -0.701045
v -2.55 -1.335823 -0.701711
v -2.55 -1.332718 -0.702847
v -2.55 -1.326548 -0.703539
v -2.55 -1.326017 -0.703542
v -2.55 -1.30622 -0.696911
v -2.55 -1.310925 -0.69982
v -2.55 -1.318471 -0.70266
v -2.55 -1.30622 -0.709339
v -2.55 -1.314831 -0.712344
v -2.55 -1.277876 -0.711746
v -2.55 -1.289912 -0.711746
v -2.55 -1.277876 -0.701135
v -2.55 -1.289912 -0.667584
v -2.55 -1.277876 -0.668125
v -2.55 -1.251795 -0.682458
v -2.55 -1.254685 -0.681105
v -2.55 -1.277557 -0.701135
v -2.55 -1.27121 -0.699368
v -2.55 -1.275682 -0.703989
v -2.55 -1.267808 -0.701663
v -2.55 -1.261814 -0.679472
v -2.55 -1.277876 -0.677311
v -2.55 -1.277876 -0.683893
v -2.55 -1.277865 -0.684692
v -2.55 -1.27709 -0.690062
v -2.55 -1.275325 -0.694355
v -2.55 -1.272719 -0.697893
v -2.55 -1.277458 -0.662803
v -2.55 -1.289026 -0.658666
v -2.55 -1.276214 -0.658518
v -2.55 -1.287161 -0.653121
v -2.55 -1.274799 -0.65604
v -2.55 -1.284715 -0.649196
v -2.55 -1.27298 -0.654104
v -2.55 -1.281522 -0.646101
v -2.55 -1.270844 -0.652727
v -2.55 -1.277544 -0.643794
v -2.55 -1.268052 -0.651752
v -2.55 -1.272508 -0.642235
v -2.55 -1.263975 -0.651325
v -2.55 -1.265105 -0.64155
v -2.55 -1.256692 -0.652095
v -2.55 -1.253805 -0.642807
v -2.55 -1.249173 -0.654693
v -2.55 -1.244715 -0.646105
v -2.55 -1.241477 -0.659627
v -2.55 -1.241477 -0.647936
v -2.55 -1.249443 -0.69937
v -2.55 -1.240666 -0.707963
v -2.55 -1.250466 -0.700398
v -2.55 -1.244719 -0.710791
v -2.55 -1.252865 -0.702036
v -2.55 -1.249333 -0.712531
v -2.55 -1.255587 -0.703035
v -2.55 -1.256533 -0.713367
v -2.55 -1.259652 -0.703493
v -2.55 -1.262738 -0.71268
v -2.55 -1.264157 -0.702989
v -2.55 -1.267618 -0.710917
v -2.55 -1.271881 -0.708082
v -2.55 -1.247081 -0.690481
v -2.55 -1.234819 -0.691647
v -2.55 -1.246979 -0.692391
v -2.55 -1.234772 -0.693374
v -2.55 -1.247284 -0.695154
v -2.55 -1.235364 -0.698829
v -2.55 -1.248075 -0.697341
v -2.55 -1.23682 -0.702901
v -2.55 -1.23932 -0.706599
v -2.55 -1.25754 -0.670974
v -2.55 -1.248764 -0.673093
v -2.55 -1.250172 -0.683697
v -2.55 -1.243521 -0.675703
v -2.55 -1.248731 -0.68548
v -2.55 -1.239768 -0.678881
v -2.55 -1.247675 -0.687725
v -2.55 -1.237323 -0.682298
v -2.55 -1.23563 -0.686513
v -2.54 -1.272719 -0.697893
v -2.54 -1.27121 -0.699368
v -2.54 -1.267808 -0.701663
v -2.54 -1.264157 -0.702989
v -2.54 -1.259652 -0.703493
v -2.54 -1.277876 -0.683893
v -2.54 -1.277865 -0.684692
v -2.54 -1.27709 -0.690062
v -2.54 -1.275325 -0.694355
v -2.54 -1.277876 -0.677311
v -2.54 -1.261814 -0.679472
v -2.54 -1.250172 -0.683697
v -2.54 -1.251795 -0.682458
v -2.54 -1.254685 -0.681105
v -2.54 -1.246979 -0.692391
v -2.54 -1.247081 -0.690481
v -2.54 -1.247675 -0.687725
v -2.54 -1.248731 -0.68548
v -2.54 -1.250466 -0.700398
v -2.54 -1.249443 -0.69937
v -2.54 -1.248075 -0.697341
v -2.54 -1.247284 -0.695154
v -2.54 -1.255587 -0.703035
v -2.54 -1.252865 -0.702036
v -2.55 -0.747303 -0.725481
v -2.55 -0.757491 -0.738001
v -2.55 -0.741066 -0.664942
v -2.55 -0.969236 -0.631468
v -2.55 -0.948059 -0.595261
v -2.55 -0.856517 -0.643081
v -2.55 -0.810286 -0.66351
v -2.55 -0.81663 -0.665781
v -2.55 -0.729528 -0.545992
v -2.55 -0.744815 -0.537997
v -2.55 -0.740699 -0.496139
v -2.55 -1.026394 -0.662004
v -2.55 -1.014438 -0.667786
v -2.55 -1.024992 -0.708307
v -2.55 -0.783421 -0.494156
v -2.55 -0.804599 -0.544025
v -2.55 -0.815103 -0.52231
v -2.55 -0.767709 -0.49279
v -2.55 -0.822126 -0.669491
v -2.55 -0.826527 -0.674403
v -2.55 -0.873596 -0.68202
v -2.55 -0.797918 -0.663749
v -2.55 -0.789014 -0.621853
v -2.55 -0.791952 -0.666104
v -2.55 -0.773922 -0.627615
v -2.55 -0.786611 -0.669902
v -2.55 -0.759947 -0.63731
v -2.55 -0.78391 -0.672758
v -2.55 -0.748644 -0.650215
v -2.55 -0.780379 -0.678408
v -2.55 -0.778366 -0.684838
v -2.55 -0.778026 -0.691496
v -2.55 -0.829819 -0.62434
v -2.55 -0.813302 -0.620313
v -2.55 -0.805282 -0.619854
v -2.55 -1.005443 -0.712079
v -2.55 -1.001344 -0.670407
v -2.55 -0.965137 -0.712079
v -2.55 -0.970602 -0.670407
v -2.55 -0.961289 -0.711459
v -2.55 -0.797426 -0.477846
v -2.55 -0.830451 -0.504024
v -2.55 -0.813479 -0.464098
v -2.55 -0.84856 -0.490792
v -2.55 -0.830096 -0.453799
v -2.55 -0.726501 -0.656028
v -2.55 -0.731639 -0.708092
v -2.55 -0.740383 -0.710712
v -2.55 -0.761706 -0.534105
v -2.55 -0.768392 -0.533778
v -2.55 -0.775565 -0.493217
v -2.55 -0.784161 -0.535702
v -2.55 -0.799487 -0.541243
v -2.55 -0.829494 -0.680012
v -2.55 -0.831054 -0.686346
v -2.55 -0.873596 -0.688852
v -2.55 -0.831064 -0.692597
v -2.55 -0.873269 -0.695538
v -2.55 -0.99178 -0.563837
v -2.55 -0.997245 -0.563837
v -2.55 -1.025254 -0.526947
v -2.55 -1.010767 -0.565576
v -2.55 -1.031607 -0.529201
v -2.55 -1.022647 -0.570293
v -2.55 -1.051649 -0.539998
v -2.55 -1.033175 -0.57781
v -2.55 -1.069583 -0.556208
v -2.55 -1.039627 -0.584865
v -2.55 -1.082881 -0.576083
v -2.55 -1.046331 -0.596394
v -2.55 -1.090507 -0.597127
v -2.55 -1.04997 -0.609389
v -2.55 -1.092885 -0.616439
v -2.55 -1.05053 -0.617122
v -2.55 -1.092732 -0.621869
v -2.55 -1.048741 -0.631001
v -2.55 -0.804599 -0.662892
v -2.55 -0.844358 -0.632055
v -2.55 -1.046116 -0.698891
v -2.55 -1.064313 -0.684744
v -2.55 -1.03644 -0.653499
v -2.55 -1.067609 -0.681337
v -2.55 -1.043896 -0.643125
v -2.55 -1.07948 -0.665413
v -2.55 -1.088803 -0.644188
v -2.55 -0.988364 -0.472979
v -2.55 -0.961243 -0.504016
v -2.55 -1.010791 -0.498867
v -2.55 -0.976753 -0.522334
v -2.55 -0.987421 -0.54428
v -2.55 -0.702083 -0.585683
v -2.55 -0.657223 -0.597073
v -2.55 -0.700078 -0.602093
v -2.55 -0.65704 -0.603459
v -2.55 -0.700787 -0.611914
v -2.55 -0.660392 -0.630403
v -2.55 -0.705523 -0.628718
v -2.55 -0.670226 -0.655825
v -2.55 -0.714186 -0.643525
v -2.55 -0.685732 -0.677922
v -2.55 -0.706963 -0.696042
v -2.55 -0.7154 -0.505988
v -2.55 -0.693684 -0.521283
v -2.55 -0.717346 -0.556815
v -2.55 -0.689147 -0.525581
v -2.55 -0.707905 -0.570437
v -2.55 -0.672637 -0.546778
v -2.55 -0.66177 -0.571393
v -2.55 -0.779291 -0.697902
v -2.55 -0.781995 -0.703645
v -2.55 -0.967168 -0.669772
v -2.55 -0.950752 -0.704913
v -2.55 -0.95234 -0.70653
v -2.55 -0.861593 -0.441635
v -2.55 -0.870857 -0.481719
v -2.55 -0.895457 -0.437455
v -2.55 -0.89614 -0.478444
v -2.55 -0.923616 -0.440414
v -2.55 -0.919475 -0.481334
v -2.55 -0.957898 -0.452495
v -2.55 -0.940884 -0.489582
v -2.55 -0.960057 -0.502941
v -2.55 -0.869378 -0.712428
v -2.55 -0.829433 -0.699153
v -2.55 -0.861382 -0.727715
v -2.55 -0.826256 -0.705021
v -2.55 -0.85056 -0.739898
v -2.55 -0.822548 -0.70921
v -2.55 -0.836938 -0.749339
v -2.55 -0.817358 -0.712931
v -2.55 -0.821692 -0.755161
v -2.55 -0.811441 -0.715295
v -2.55 -0.805282 -0.757166
v -2.55 -0.804599 -0.716178
v -2.55 -0.802787 -0.757122
v -2.55 -0.803435 -0.716152
v -2.55 -0.786652 -0.754639
v -2.55 -0.797302 -0.715152
v -2.55 -0.770874 -0.748047
v -2.55 -0.791126 -0.7125
v -2.55 -0.785898 -0.708492
v -2.55 -0.969218 -0.670226
v -2.55 -0.95677 -0.70968
v -2.55 -0.945326 -0.690901
v -2.55 -0.945974 -0.69599
v -2.55 -0.947774 -0.700622
v -2.55 -0.96121 -0.670403
v -2.55 -0.956522 -0.672255
v -2.55 -0.9455 -0.688205
v -2.55 -0.952321 -0.675232
v -2.55 -0.949499 -0.678345
v -2.55 -0.946872 -0.683006
v -2.55 -0.966504 -0.669724
v -2.54 -0.804599 -0.662892
v -2.54 -0.810286 -0.66351
v -2.54 -0.81663 -0.665781
v -2.54 -0.822126 -0.669491
v -2.54 -0.826527 -0.674403
v -2.54 -0.829494 -0.680012
v -2.54 -0.831054 -0.686346
v -2.54 -0.831064 -0.692597
v -2.54 -0.829433 -0.699153
v -2.54 -0.826256 -0.705021
v -2.54 -0.822548 -0.70921
v -2.54 -0.817358 -0.712931
v -2.54 -0.811441 -0.715295
v -2.54 -0.804599 -0.716178
v -2.54 -0.803435 -0.716152
v -2.54 -0.797302 -0.715152
v -2.54 -0.791126 -0.7125
v -2.54 -0.785898 -0.708492
v -2.54 -0.781995 -0.703645
v -2.54 -0.779291 -0.697902
v -2.54 -0.778026 -0.691496
v -2.54 -0.778366 -0.684838
v -2.54 -0.780379 -0.678408
v -2.54 -0.78391 -0.672758
v -2.54 -0.786611 -0.669902
v -2.54 -0.791952 -0.666104
v -2.54 -0.797918 -0.663749
v -2.55 -1.452106 -0.515856
v -2.55 -1.465041 -0.51687
v -2.55 -1.452359 -0.510393
v -2.55 -1.465401 -0.510049
v -2.55 -1.45123 -0.49957
v -2.55 -1.464064 -0.497872
v -2.55 -1.448673 -0.492228
v -2.55 -1.460695 -0.488516
v -2.55 -1.445095 -0.48666
v -2.55 -1.454903 -0.479945
v -2.55 -1.441823 -0.483326
v -2.55 -1.45091 -0.475958
v -2.55 -1.434436 -0.47848
v -2.55 -1.441393 -0.469373
v -2.55 -1.426024 -0.47555
v -2.55 -1.42988 -0.465007
v -2.55 -1.414093 -0.474288
v -2.55 -1.414584 -0.463235
v -2.55 -1.399577 -0.474288
v -2.55 -1.387174 -0.463235
v -2.55 -1.399577 -0.548364
v -2.55 -1.387174 -0.559319
v -2.55 -1.413528 -0.548364
v -2.55 -1.413602 -0.559319
v -2.55 -1.425562 -0.547091
v -2.55 -1.428583 -0.557667
v -2.55 -1.433826 -0.544183
v -2.55 -1.439795 -0.553616
v -2.55 -1.440218 -0.540038
v -2.55 -1.449204 -0.547376
v -2.55 -1.442093 -0.538343
v -2.55 -1.45091 -0.545859
v -2.55 -1.447112 -0.532021
v -2.55 -1.457718 -0.53787
v -2.55 -1.450333 -0.5248
v -2.55 -1.462585 -0.528009
v -2.54 -1.441823 -0.483326
v -2.54 -1.445095 -0.48666
v -2.54 -1.448673 -0.492228
v -2.54 -1.45123 -0.49957
v -2.54 -1.452359 -0.510393
v -2.54 -1.414093 -0.474288
v -2.54 -1.426024 -0.47555
v -2.54 -1.434436 -0.47848
v -2.54 -1.399577 -0.474288
v -2.54 -1.399577 -0.548364
v -2.54 -1.413528 -0.548364
v -2.54 -1.442093 -0.538343
v -2.54 -1.440218 -0.540038
v -2.54 -1.433826 -0.544183
v -2.54 -1.425562 -0.547091
v -2.54 -1.452106 -0.515856
v -2.54 -1.450333 -0.5248
v -2.54 -1.447112 -0.532021
v -2.55 -1.273308 -0.549887
v -2.55 -1.264361 -0.5489
v -2.55 -1.257389 -0.546384
v -2.55 -1.250985 -0.542058
v -2.55 -1.248624 -0.539768
v -2.55 -1.243733 -0.532879
v -2.55 -1.24071 -0.52505
v -2.55 -1.239199 -0.513255
v -2.55 -1.239193 -0.512358
v -2.55 -1.24048 -0.500351
v -2.55 -1.243523 -0.491775
v -2.55 -1.247997 -0.484928
v -2.55 -1.249287 -0.483474
v -2.55 -1.255426 -0.478331
v -2.55 -1.262929 -0.474722
v -2.55 -1.271214 -0.47301
v -2.55 -1.27547 -0.472814
v -2.55 -1.298115 -0.478512
v -2.55 -1.296579 -0.477695
v -2.55 -1.286776 -0.474099
v -2.55 -1.298115 -0.465544
v -2.55 -1.275347 -0.461614
v -2.55 -1.276229 -0.461618
v -2.55 -1.288656 -0.462734
v -2.55 -1.2625 -0.463043
v -2.55 -1.252297 -0.466742
v -2.55 -1.242846 -0.473125
v -2.55 -1.240052 -0.475761
v -2.55 -1.233382 -0.484362
v -2.55 -1.228698 -0.494949
v -2.55 -1.226398 -0.507357
v -2.55 -1.226175 -0.513094
v -2.55 -1.227732 -0.527385
v -2.55 -1.231435 -0.537706
v -2.55 -1.236962 -0.546094
v -2.55 -1.238505 -0.547824
v -2.55 -1.271515 -0.56094
v -2.55 -1.265081 -0.5606
v -2.55 -1.245779 -0.553952
v -2.55 -1.254775 -0.558344
v -2.55 -1.287385 -0.559267
v -2.55 -1.298115 -0.55534
v -2.55 -1.298115 -0.543452
v -2.55 -1.28828 -0.547814
v -2.55 -1.27734 -0.549753
v -2.55 -1.617926 -0.674609
v -2.55 -1.632295 -0.634672
v -2.55 -1.627653 -0.615662
v -2.55 -1.591057 -0.711746
v -2.55 -1.604762 -0.711746
v -2.55 -1.613997 -0.685465
v -2.55 -1.633127 -0.631805
v -2.55 -1.633867 -0.627943
v -2.55 -1.640916 -0.615662
v -2.55 -1.634161 -0.627943
v -2.55 -1.634938 -0.632008
v -2.55 -1.63566 -0.634672
v -2.55 -1.650175 -0.674609
v -2.55 -1.677512 -0.711746
v -2.55 -1.663807 -0.711746
v -2.55 -1.654007 -0.685465
v -2.54 -1.632295 -0.634672
v -2.54 -1.633127 -0.631805
v -2.54 -1.633867 -0.627943
v -2.54 -1.617926 -0.674609
v -2.54 -1.650175 -0.674609
v -2.54 -1.63566 -0.634672
v -2.54 -1.634161 -0.627943
v -2.54 -1.634938 -0.632008
v -2.55 -1.489349 -0.700791
v -2.55 -1.450075 -0.700791
v -2.55 -1.450075 -0.668469
v -2.55 -1.484436 -0.668469
v -2.55 -1.484436 -0.657465
v -2.55 -1.450075 -0.657465
v -2.55 -1.450075 -0.626715
v -2.55 -1.487163 -0.626715
v -2.55 -1.487163 -0.615662
v -2.55 -1.437672 -0.615662
v -2.55 -1.437672 -0.711746
v -2.55 -1.489349 -0.711746
v -2.55 -1.183979 -0.700791
v -2.55 -1.223252 -0.700791
v -2.55 -1.183979 -0.668469
v -2.55 -1.21834 -0.668469
v -2.55 -1.21834 -0.657465
v -2.55 -1.183979 -0.657465
v -2.55 -1.183979 -0.626715
v -2.55 -1.221066 -0.626715
v -2.55 -1.221066 -0.615662
v -2.55 -1.171576 -0.615662
v -2.55 -1.171576 -0.711746
v -2.55 -1.223252 -0.711746
v -2.55 -1.497601 -0.522182
v -2.55 -1.511969 -0.482246
v -2.55 -1.507327 -0.463235
v -2.55 -1.470731 -0.559319
v -2.55 -1.484436 -0.559319
v -2.55 -1.493671 -0.533038
v -2.55 -1.512802 -0.479378
v -2.55 -1.513541 -0.475516
v -2.55 -1.52059 -0.463235
v -2.55 -1.513836 -0.475516
v -2.55 -1.514613 -0.479581
v -2.55 -1.515334 -0.482246
v -2.55 -1.52985 -0.522182
v -2.55 -1.557187 -0.559319
v -2.55 -1.543481 -0.559319
v -2.55 -1.533682 -0.533038
v -2.54 -1.511969 -0.482246
v -2.54 -1.512802 -0.479378
v -2.54 -1.513541 -0.475516
v -2.54 -1.497601 -0.522182
v -2.54 -1.52985 -0.522182
v -2.54 -1.515334 -0.482246
v -2.54 -1.513836 -0.475516
v -2.54 -1.514613 -0.479581
v -2.55 -1.32975 -0.548364
v -2.55 -1.369023 -0.548364
v -2.55 -1.32975 -0.516042
v -2.55 -1.364111 -0.516042
v -2.55 -1.364111 -0.505038
v -2.55 -1.32975 -0.505038
v -2.55 -1.32975 -0.474288
v -2.55 -1.366837 -0.474288
v -2.55 -1.366837 -0.463235
v -2.55 -1.317346 -0.463235
v -2.55 -1.317346 -0.559319
v -2.55 -1.369023 -0.559319
v -2.55 -1.183979 -0.548364
v -2.55 -1.222245 -0.548364
v -2.55 -1.183979 -0.463235
v -2.55 -1.171576 -0.463235
v -2.55 -1.171576 -0.559319
v -2.55 -1.222245 -0.559319
usemtl 1
f 1// 2// 3//
f 4// 5// 6//
f 7// 8// 9//
f 10// 11// 12//
f 13// 14// 15//
f 16// 17// 18//
f 19// 20// 21//
f 20// 19// 22//
f 22// 19// 23//
f 22// 23// 24//
f 25// 26// 27//
f 3// 28// 29//
f 27// 26// 30//
f 30// 26// 31//
f 30// 31// 24//
f 24// 31// 32//
f 24// 32// 22//
f 33// 34// 35//
f 35// 34// 36//
f 33// 37// 34//
f 34// 37// 38//
f 34// 38// 39//
f 39// 38// 40//
f 34// 41// 42//
f 43// 44// 34//
f 34// 44// 45//
f 34// 45// 41//
f 42// 46// 34//
f 34// 46// 47//
f 34// 47// 36//
f 48// 49// 50//
f 51// 52// 38//
f 38// 52// 53//
f 38// 53// 40//
f 48// 50// 38//
f 38// 50// 54//
f 38// 54// 51//
f 55// 56// 57//
f 58// 59// 60//
f 60// 59// 61//
f 60// 61// 62//
f 62// 61// 63//
f 62// 63// 64//
f 65// 66// 67//
f 67// 66// 68//
f 67// 68// 69//
f 70// 71// 72//
f 73// 74// 70//
f 70// 74// 75//
f 70// 75// 71//
f 76// 77// 70//
f 70// 77// 78//
f 70// 78// 73//
f 17// 79// 80//
f 80// 79// 81//
f 80// 81// 76//
f 76// 81// 82//
f 76// 82// 77//
f 83// 84// 18//
f 84// 85// 18//
f 18// 85// 86//
f 18// 86// 16//
f 83// 18// 87//
f 87// 18// 88//
f 87// 88// 89//
f 89// 88// 90//
f 90// 88// 91//
f 90// 91// 92//
f 57// 56// 93//
f 93// 56// 94//
f 93// 94// 95//
f 96// 97// 98//
f 99// 100// 101//
f 102// 103// 97//
f 97// 103// 104//
f 97// 104// 98//
f 98// 100// 96//
f 96// 100// 99//
f 96// 99// 105//
f 105// 99// 106//
f 107// 108// 109//
f 110// 111// 112//
f 112// 111// 113//
f 114// 115// 116//
f 111// 117// 118//
f 119// 120// 121//
f 121// 120// 122//
f 121// 122// 114//
f 114// 122// 123//
f 114// 123// 115//
f 118// 124// 111//
f 111// 124// 125//
f 111// 125// 113//
f 126// 127// 128//
f 126// 128// 129//
f 127// 130// 128//
f 128// 130// 131//
f 128// 131// 121//
f 121// 131// 132//
f 121// 132// 119//
f 133// 134// 135//
f 133// 135// 136//
f 137// 138// 13//
f 13// 138// 139//
f 13// 139// 135//
f 135// 139// 140//
f 135// 140// 136//
f 136// 140// 141//
f 134// 142// 135//
f 135// 142// 143//
f 135// 143// 144//
f 144// 143// 145//
f 145// 146// 144//
f 144// 146// 147//
f 144// 147// 148//
f 149// 150// 151//
f 147// 152// 148//
f 148// 152// 153//
f 148// 153// 154//
f 154// 153// 155//
f 154// 155// 156//
f 151// 150// 157//
f 157// 150// 158//
f 157// 158// 159//
f 156// 160// 154//
f 154// 160// 161//
f 154// 161// 149//
f 162// 163// 164//
f 164// 163// 165//
f 149// 151// 154//
f 154// 151// 166//
f 154// 166// 164//
f 166// 167// 164//
f 164// 167// 168//
f 164// 168// 162//
f 162// 168// 169//
f 162// 169// 170//
f 171// 172// 173//
f 12// 174// 175//
f 176// 177// 178//
f 178// 177// 179//
f 180// 181// 12//
f 12// 181// 182//
f 12// 182// 174//
f 176// 183// 177//
f 177// 183// 184//
f 177// 184// 185//
f 172// 180// 173//
f 173// 180// 12//
f 173// 12// 186//
f 186// 12// 185//
f 186// 185// 187//
f 187// 185// 184//
f 175// 188// 12//
f 12// 188// 189//
f 12// 189// 10//
f 190// 191// 192//
f 192// 191// 193//
f 192// 193// 194//
f 192// 195// 190//
f 190// 195// 196//
f 190// 196// 197//
f 197// 198// 190//
f 190// 198// 199//
f 190// 199// 200//
f 200// 199// 201//
f 200// 201// 202//
f 202// 201// 203//
f 202// 203// 173//
f 173// 203// 204//
f 173// 204// 171//
f 205// 206// 194//
f 194// 206// 207//
f 194// 207// 192//
f 208// 91// 209//
f 179// 177// 210//
f 210// 177// 91//
f 210// 91// 211//
f 212// 213// 214//
f 215// 216// 208//
f 216// 217// 208//
f 208// 217// 218//
f 208// 218// 91//
f 91// 218// 219//
f 91// 219// 211//
f 212// 214// 208//
f 208// 214// 220//
f 208// 220// 215//
f 221// 222// 213//
f 213// 222// 223//
f 213// 223// 214//
f 221// 224// 222//
f 222// 224// 225//
f 222// 225// 226//
f 226// 225// 227//
f 226// 228// 229//
f 227// 230// 226//
f 226// 230// 231//
f 226// 231// 232//
f 232// 233// 226//
f 226// 233// 234//
f 226// 234// 228//
f 229// 235// 226//
f 226// 235// 236//
f 226// 236// 237//
f 238// 239// 240//
f 240// 239// 241//
f 240// 241// 209//
f 209// 241// 242//
f 209// 242// 208//
f 243// 244// 11//
f 11// 244// 114//
f 11// 114// 12//
f 12// 114// 116//
f 12// 116// 111//
f 111// 116// 245//
f 111// 245// 117//
f 246// 247// 248//
f 248// 247// 249//
f 250// 251// 252//
f 253// 254// 255//
f 255// 254// 256//
f 255// 256// 257//
f 246// 258// 247//
f 247// 258// 259//
f 247// 259// 260//
f 260// 259// 261//
f 262// 263// 261//
f 261// 263// 264//
f 261// 264// 260//
f 265// 266// 91//
f 266// 267// 91//
f 91// 267// 268//
f 91// 268// 269//
f 270// 271// 250//
f 250// 271// 272//
f 250// 272// 251//
f 273// 274// 261//
f 261// 274// 275//
f 261// 275// 276//
f 252// 277// 250//
f 250// 277// 278//
f 250// 278// 88//
f 88// 278// 249//
f 88// 249// 279//
f 279// 249// 247//
f 279// 280// 88//
f 88// 280// 281//
f 88// 281// 91//
f 91// 281// 282//
f 91// 282// 265//
f 269// 283// 91//
f 91// 283// 284//
f 91// 284// 209//
f 209// 284// 285//
f 209// 285// 255//
f 276// 286// 261//
f 261// 286// 287//
f 261// 287// 262//
f 288// 289// 290//
f 290// 289// 291//
f 289// 292// 291//
f 291// 292// 293//
f 291// 293// 250//
f 250// 293// 294//
f 250// 294// 270//
f 295// 296// 297//
f 297// 296// 298//
f 299// 300// 297//
f 297// 300// 301//
f 297// 301// 302//
f 302// 303// 297//
f 297// 303// 304//
f 297// 304// 295//
f 137// 13// 305//
f 305// 13// 15//
f 305// 15// 306//
f 306// 15// 307//
f 306// 307// 308//
f 308// 307// 309//
f 308// 309// 310//
f 311// 312// 313//
f 313// 312// 314//
f 313// 314// 309//
f 309// 314// 315//
f 309// 315// 310//
f 9// 8// 313//
f 313// 8// 316//
f 313// 316// 311//
f 317// 318// 319//
f 319// 318// 320//
f 321// 322// 323//
f 324// 325// 318//
f 318// 325// 326//
f 318// 326// 327//
f 322// 328// 323//
f 323// 328// 329//
f 323// 329// 330//
f 9// 331// 332//
f 333// 334// 335//
f 335// 334// 336//
f 335// 336// 323//
f 323// 336// 337//
f 323// 337// 321//
f 338// 339// 7//
f 7// 339// 340//
f 340// 341// 7//
f 7// 341// 342//
f 7// 342// 343//
f 343// 342// 333//
f 343// 333// 344//
f 344// 333// 335//
f 345// 346// 347//
f 347// 346// 348//
f 347// 348// 349//
f 350// 327// 351//
f 351// 327// 352//
f 351// 352// 347//
f 347// 352// 353//
f 347// 353// 345//
f 350// 354// 327//
f 327// 354// 355//
f 327// 355// 318//
f 318// 355// 356//
f 318// 356// 320//
f 330// 357// 323//
f 323// 357// 358//
f 323// 358// 359//
f 360// 361// 9//
f 9// 361// 362//
f 9// 362// 331//
f 363// 364// 323//
f 323// 364// 365//
f 323// 365// 318//
f 318// 365// 366//
f 318// 366// 324//
f 367// 368// 369//
f 369// 368// 370//
f 369// 370// 9//
f 9// 370// 371//
f 9// 371// 360//
f 332// 372// 9//
f 9// 372// 373//
f 9// 373// 7//
f 7// 373// 374//
f 7// 374// 338//
f 359// 375// 323//
f 323// 375// 376//
f 323// 376// 363//
f 377// 378// 379//
f 379// 327// 377//
f 377// 327// 326//
f 377// 326// 380//
f 380// 326// 381//
f 381// 382// 380//
f 380// 382// 383//
f 380// 383// 384//
f 385// 386// 387//
f 386// 388// 387//
f 387// 388// 389//
f 387// 389// 390//
f 391// 387// 392//
f 378// 377// 391//
f 391// 377// 393//
f 391// 393// 387//
f 387// 393// 394//
f 387// 394// 385//
f 392// 395// 391//
f 391// 395// 396//
f 391// 396// 397//
f 390// 389// 398//
f 398// 389// 399//
f 398// 399// 400//
f 400// 399// 401//
f 400// 401// 402//
f 403// 404// 397//
f 397// 404// 405//
f 397// 405// 391//
f 296// 406// 298//
f 298// 406// 407//
f 298// 407// 369//
f 369// 407// 408//
f 369// 408// 367//
f 409// 2// 410//
f 410// 2// 1//
f 410// 1// 411//
f 409// 412// 2//
f 2// 412// 413//
f 2// 413// 414//
f 414// 413// 415//
f 414// 415// 416//
f 416// 415// 417//
f 416// 417// 418//
f 419// 420// 421//
f 421// 420// 422//
f 421// 422// 423//
f 423// 422// 413//
f 423// 413// 424//
f 424// 413// 412//
f 424// 412// 425//
f 425// 412// 426//
f 425// 426// 427//
f 427// 426// 428//
f 429// 430// 431//
f 432// 433// 434//
f 434// 433// 435//
f 436// 434// 437//
f 437// 434// 435//
f 437// 435// 438//
f 438// 435// 439//
f 438// 439// 440//
f 440// 439// 441//
f 442// 57// 443//
f 62// 444// 432//
f 432// 444// 445//
f 432// 445// 433//
f 431// 430// 443//
f 443// 430// 446//
f 443// 446// 442//
f 43// 34// 447//
f 447// 34// 55//
f 447// 55// 64//
f 64// 55// 57//
f 64// 57// 62//
f 62// 57// 442//
f 62// 442// 444//
f 4// 448// 449//
f 449// 448// 450//
f 449// 450// 451//
f 451// 450// 452//
f 451// 452// 453//
f 453// 452// 128//
f 453// 128// 454//
f 454// 128// 121//
f 454// 121// 455//
f 455// 121// 114//
f 455// 114// 456//
f 456// 114// 244//
f 456// 244// 457//
f 457// 244// 290//
f 457// 290// 458//
f 458// 290// 291//
f 243// 238// 244//
f 244// 238// 240//
f 244// 240// 290//
f 290// 240// 209//
f 290// 209// 288//
f 288// 209// 255//
f 288// 255// 459//
f 459// 255// 257//
f 460// 461// 462//
f 463// 369// 462//
f 462// 369// 9//
f 462// 9// 460//
f 460// 9// 313//
f 460// 313// 464//
f 464// 313// 309//
f 464// 309// 465//
f 463// 466// 467//
f 467// 466// 468//
f 467// 468// 460//
f 460// 468// 469//
f 460// 469// 461//
f 470// 471// 472//
f 472// 471// 469//
f 472// 469// 473//
f 473// 469// 468//
f 473// 468// 474//
f 474// 468// 475//
f 476// 477// 478//
f 479// 480// 481//
f 481// 482// 479//
f 479// 482// 483//
f 479// 483// 484//
f 477// 485// 478//
f 478// 485// 486//
f 478// 486// 487//
f 487// 488// 478//
f 478// 488// 489//
f 478// 489// 414//
f 414// 489// 490//
f 414// 490// 2//
f 2// 490// 491//
f 2// 491// 492//
f 484// 493// 479//
f 479// 493// 494//
f 479// 494// 478//
f 478// 494// 495//
f 478// 495// 476//
f 496// 497// 478//
f 498// 499// 500//
f 478// 497// 479//
f 479// 497// 501//
f 479// 501// 502//
f 17// 80// 18//
f 18// 80// 467//
f 18// 467// 88//
f 88// 467// 460//
f 88// 460// 250//
f 250// 460// 464//
f 250// 464// 291//
f 291// 464// 465//
f 291// 465// 458//
f 95// 92// 93//
f 93// 92// 91//
f 93// 91// 57//
f 57// 91// 177//
f 57// 177// 443//
f 443// 177// 185//
f 443// 185// 431//
f 448// 503// 450//
f 450// 503// 478//
f 450// 478// 452//
f 452// 478// 414//
f 452// 414// 128//
f 128// 414// 416//
f 128// 416// 129//
f 129// 416// 418//
f 129// 418// 101//
f 101// 418// 411//
f 101// 411// 99//
f 99// 411// 1//
f 99// 1// 27//
f 27// 1// 3//
f 27// 3// 25//
f 25// 3// 29//
f 504// 28// 21//
f 21// 28// 3//
f 21// 3// 19//
f 19// 3// 2//
f 19// 2// 479//
f 479// 2// 492//
f 479// 492// 480//
f 505// 506// 507//
f 463// 467// 369//
f 369// 467// 80//
f 369// 80// 298//
f 298// 80// 508//
f 298// 508// 297//
f 508// 509// 297//
f 297// 509// 505//
f 297// 505// 76//
f 76// 505// 507//
f 76// 507// 80//
f 80// 507// 510//
f 80// 510// 508//
f 511// 512// 431//
f 431// 512// 434//
f 431// 434// 429//
f 429// 434// 436//
f 429// 436// 513//
f 513// 436// 514//
f 513// 514// 515//
f 515// 514// 516//
f 517// 518// 27//
f 512// 519// 434//
f 434// 519// 520//
f 434// 520// 30//
f 30// 520// 521//
f 30// 521// 522//
f 27// 523// 524//
f 522// 525// 30//
f 30// 525// 526//
f 30// 526// 527//
f 518// 528// 27//
f 27// 528// 529//
f 27// 529// 523//
f 524// 511// 27//
f 27// 511// 431//
f 27// 431// 99//
f 99// 431// 185//
f 99// 185// 106//
f 106// 185// 12//
f 106// 12// 109//
f 109// 12// 111//
f 109// 111// 107//
f 107// 111// 110//
f 527// 530// 30//
f 30// 530// 531//
f 30// 531// 27//
f 27// 531// 532//
f 27// 532// 517//
f 500// 496// 498//
f 498// 496// 478//
f 498// 478// 533//
f 533// 478// 503//
f 533// 503// 502//
f 502// 503// 534//
f 502// 534// 479//
f 479// 534// 535//
f 479// 535// 19//
f 19// 535// 536//
f 19// 536// 23//
f 4// 6// 448//
f 448// 6// 537//
f 448// 537// 503//
f 503// 537// 538//
f 503// 538// 534//
f 534// 538// 539//
f 534// 539// 535//
f 535// 539// 540//
f 535// 540// 536//
f 72// 69// 70//
f 70// 69// 68//
f 70// 68// 76//
f 76// 68// 541//
f 76// 541// 297//
f 297// 541// 162//
f 297// 162// 299//
f 299// 162// 170//
f 540// 542// 536//
f 536// 542// 543//
f 536// 543// 23//
f 23// 543// 544//
f 23// 544// 24//
f 24// 544// 545//
f 24// 545// 30//
f 30// 545// 546//
f 30// 546// 434//
f 434// 546// 547//
f 434// 547// 432//
f 432// 547// 548//
f 432// 548// 62//
f 62// 548// 549//
f 62// 549// 60//
f 60// 549// 66//
f 60// 66// 58//
f 58// 66// 65//
f 550// 551// 165//
f 552// 553// 550//
f 550// 553// 554//
f 550// 554// 551//
f 165// 163// 550//
f 550// 163// 555//
f 550// 555// 556//
f 557// 558// 559//
f 560// 561// 562//
f 562// 561// 557//
f 562// 557// 563//
f 563// 557// 14//
f 14// 557// 15//
f 15// 557// 559//
f 15// 559// 307//
f 562// 563// 564//
f 551// 554// 565//
f 565// 554// 566//
f 565// 566// 564//
f 564// 566// 567//
f 564// 567// 562//
f 568// 569// 556//
f 556// 569// 550//
f 570// 568// 555//
f 555// 568// 556//
f 555// 163// 162//
f 549// 548// 570//
f 162// 541// 555//
f 555// 541// 68//
f 555// 68// 570//
f 570// 68// 66//
f 570// 66// 549//
f 548// 547// 570//
f 570// 547// 546//
f 570// 546// 545//
f 545// 544// 570//
f 570// 544// 543//
f 570// 543// 542//
f 307// 559// 309//
f 309// 559// 465//
f 5// 4// 571//
f 571// 4// 449//
f 571// 449// 451//
f 455// 456// 571//
f 571// 456// 457//
f 571// 457// 559//
f 559// 457// 458//
f 559// 458// 465//
f 451// 453// 571//
f 571// 453// 454//
f 571// 454// 455//
f 572// 571// 558//
f 558// 571// 559//
f 573// 572// 557//
f 557// 572// 558//
f 571// 572// 573//
f 6// 5// 571//
f 540// 574// 575//
f 569// 568// 576//
f 576// 568// 570//
f 576// 570// 575//
f 575// 570// 542//
f 575// 542// 540//
f 577// 578// 579//
f 579// 578// 580//
f 540// 539// 574//
f 574// 539// 538//
f 574// 538// 537//
f 537// 6// 574//
f 574// 6// 571//
f 574// 571// 577//
f 577// 571// 573//
f 577// 573// 578//
f 578// 573// 581//
f 578// 567// 580//
f 580// 567// 566//
f 580// 566// 582//
f 582// 566// 583//
f 582// 583// 584//
f 584// 583// 585//
f 584// 585// 579//
f 579// 585// 569//
f 579// 569// 577//
f 577// 569// 576//
f 583// 566// 553//
f 553// 566// 554//
f 585// 583// 552//
f 552// 583// 553//
f 569// 585// 550//
f 550// 585// 552//
f 581// 573// 561//
f 561// 573// 557//
f 578// 581// 560//
f 560// 581// 561//
f 567// 578// 562//
f 562// 578// 560//
f 565// 164// 551//
f 551// 164// 165//
f 13// 564// 14//
f 14// 564// 563//
f 586// 587// 588//
f 588// 587// 589//
f 13// 135// 590//
f 590// 135// 144//
f 591// 565// 592//
f 592// 565// 564//
f 592// 564// 589//
f 589// 564// 13//
f 589// 13// 588//
f 588// 13// 590//
f 591// 587// 565//
f 565// 587// 586//
f 565// 586// 164//
f 164// 586// 593//
f 164// 593// 154//
f 154// 593// 590//
f 154// 590// 148//
f 148// 590// 144//
usemtl 2
f 594// 595// 596//
f 596// 595// 597//
f 596// 597// 598//
f 598// 597// 599//
f 600// 598// 601//
f 601// 598// 599//
f 600// 601// 602//
f 600// 602// 603//
f 603// 602// 604//
f 603// 604// 605//
f 606// 605// 607//
f 607// 605// 604//
f 608// 609// 610//
f 610// 609// 611//
f 612// 613// 614//
f 614// 613// 615//
f 615// 613// 616//
f 616// 613// 617//
f 616// 617// 618//
f 618// 617// 619//
f 620// 618// 621//
f 621// 618// 619//
f 620// 621// 622//
f 620// 622// 623//
f 623// 622// 624//
f 623// 624// 625//
f 586// 588// 625//
f 625// 588// 594//
f 625// 594// 623//
f 623// 594// 596//
f 623// 596// 620//
f 620// 596// 598//
f 620// 598// 618//
f 618// 598// 600//
f 618// 600// 616//
f 616// 600// 603//
f 616// 603// 615//
f 615// 603// 605//
f 615// 605// 614//
f 614// 605// 606//
f 612// 607// 613//
f 613// 607// 604//
f 613// 604// 617//
f 617// 604// 602//
f 617// 602// 619//
f 619// 602// 601//
f 619// 601// 621//
f 621// 601// 599//
f 621// 599// 622//
f 622// 599// 597//
f 622// 597// 624//
f 624// 597// 595//
f 624// 595// 593//
f 593// 595// 590//
f 595// 594// 590//
f 590// 594// 588//
f 586// 625// 593//
f 593// 625// 624//
f 626// 576// 627//
f 627// 576// 575//
f 628// 574// 629//
f 629// 574// 577//
f 629// 577// 626//
f 626// 577// 576//
f 627// 575// 628//
f 628// 575// 574//
f 630// 631// 632//
f 632// 631// 633//
f 614// 611// 612//
f 612// 611// 609//
f 606// 610// 614//
f 614// 610// 611//
f 608// 607// 609//
f 609// 607// 612//
f 607// 608// 606//
f 606// 608// 610//
f 629// 633// 628//
f 628// 633// 631//
f 626// 632// 629//
f 629// 632// 633//
f 630// 627// 631//
f 631// 627// 628//
f 627// 630// 626//
f 626// 630// 632//
f 634// 635// 636//
f 636// 635// 637//
f 636// 637// 638//
f 638// 637// 639//
f 640// 638// 641//
f 641// 638// 639//
f 640// 641// 642//
f 640// 642// 643//
f 643// 642// 644//
f 643// 644// 645//
f 646// 645// 647//
f 647// 645// 644//
f 648// 649// 650//
f 650// 649// 651//
f 652// 653// 654//
f 654// 653// 655//
f 655// 653// 656//
f 656// 653// 657//
f 656// 657// 658//
f 658// 657// 659//
f 660// 658// 661//
f 661// 658// 659//
f 660// 661// 662//
f 660// 662// 663//
f 663// 662// 664//
f 663// 664// 665//
f 591// 592// 665//
f 665// 592// 634//
f 665// 634// 663//
f 663// 634// 636//
f 663// 636// 660//
f 660// 636// 638//
f 660// 638// 658//
f 658// 638// 640//
f 658// 640// 656//
f 656// 640// 643//
f 656// 643// 655//
f 655// 643// 645//
f 655// 645// 654//
f 654// 645// 646//
f 652// 647// 653//
f 653// 647// 644//
f 653// 644// 657//
f 657// 644// 642//
f 657// 642// 659//
f 659// 642// 641//
f 659// 641// 661//
f 661// 641// 639//
f 661// 639// 662//
f 662// 639// 637//
f 662// 637// 664//
f 664// 637// 635//
f 664// 635// 587//
f 587// 635// 589//
f 635// 634// 589//
f 589// 634// 592//
f 591// 665// 587//
f 587// 665// 664//
f 666// 582// 667//
f 667// 582// 584//
f 668// 579// 669//
f 669// 579// 580//
f 669// 580// 666//
f 666// 580// 582//
f 667// 584// 668//
f 668// 584// 579//
f 670// 671// 672//
f 672// 671// 673//
f 654// 651// 652//
f 652// 651// 649//
f 646// 650// 654//
f 654// 650// 651//
f 648// 647// 649//
f 649// 647// 652//
f 647// 648// 646//
f 646// 648// 650//
f 669// 673// 668//
f 668// 673// 671//
f 666// 672// 669//
f 669// 672// 673//
f 670// 667// 671//
f 671// 667// 668//
f 667// 670// 666//
f 666// 670// 672//
usemtl 3
f 674// 675// 676//
f 676// 675// 677//
f 676// 677// 678//
f 678// 677// 679//
f 678// 679// 680//
f 680// 679// 681//
f 680// 681// 682//
f 682// 681// 683//
f 682// 683// 684//
f 684// 683// 685//
f 684// 685// 686//
f 686// 685// 687//
f 686// 687// 688//
f 688// 687// 689//
f 688// 689// 690//
f 690// 689// 691//
f 690// 691// 692//
f 692// 691// 693//
f 692// 693// 694//
f 694// 693// 695//
f 694// 695// 696//
f 696// 695// 697//
f 696// 697// 698//
f 698// 697// 699//
f 698// 699// 700//
f 700// 699// 701//
f 700// 701// 702//
f 702// 701// 703//
f 702// 703// 704//
f 704// 703// 705//
f 704// 705// 706//
f 706// 705// 707//
f 706// 707// 708//
f 708// 707// 709//
f 708// 709// 674//
f 674// 709// 675//
f 705// 485// 477//
f 705// 477// 707//
f 707// 477// 476//
f 707// 476// 709//
f 709// 476// 495//
f 709// 495// 675//
f 675// 495// 494//
f 675// 494// 677//
f 677// 494// 493//
f 677// 493// 679//
f 679// 493// 484//
f 679// 484// 681//
f 681// 484// 483//
f 681// 483// 683//
f 683// 483// 482//
f 683// 482// 685//
f 685// 482// 481//
f 685// 481// 687//
f 687// 481// 480//
f 687// 480// 689//
f 689// 480// 492//
f 689// 492// 691//
f 693// 691// 491//
f 491// 691// 492//
f 695// 693// 490//
f 490// 693// 491//
f 697// 695// 489//
f 489// 695// 490//
f 697// 489// 488//
f 697// 488// 699//
f 699// 488// 487//
f 699// 487// 701//
f 701// 487// 486//
f 701// 486// 703//
f 703// 486// 485//
f 703// 485// 705//
f 684// 710// 711//
f 684// 711// 682//
f 682// 711// 712//
f 682// 712// 680//
f 680// 712// 713//
f 680// 713// 678//
f 678// 713// 714//
f 678// 714// 676//
f 690// 715// 716//
f 690// 716// 688//
f 688// 716// 717//
f 688// 717// 686//
f 686// 717// 710//
f 686// 710// 684//
f 690// 692// 715//
f 715// 692// 718//
f 692// 694// 718//
f 718// 694// 719//
f 694// 696// 719//
f 719// 696// 720//
f 704// 721// 722//
f 704// 722// 702//
f 702// 722// 723//
f 702// 723// 700//
f 700// 723// 724//
f 700// 724// 698//
f 698// 724// 720//
f 698// 720// 696//
f 676// 714// 725//
f 676// 725// 674//
f 674// 725// 726//
f 674// 726// 708//
f 708// 726// 727//
f 708// 727// 706//
f 706// 727// 721//
f 706// 721// 704//
usemtl 1
f 718// 719// 715//
f 715// 719// 720//
f 715// 720// 724//
f 724// 723// 715//
f 715// 723// 722//
f 715// 722// 721//
f 721// 727// 715//
f 715// 727// 726//
f 715// 726// 725//
f 725// 714// 715//
f 715// 714// 713//
f 715// 713// 712//
f 712// 711// 715//
f 715// 711// 710//
f 715// 710// 716//
f 716// 710// 717//
usemtl 3
f 728// 98// 104//
f 728// 104// 729//
f 729// 104// 103//
f 729// 103// 730//
f 731// 730// 102//
f 102// 730// 103//
f 732// 731// 97//
f 97// 731// 102//
f 732// 97// 733//
f 733// 97// 96//
f 733// 96// 105//
f 734// 733// 106//
f 106// 733// 105//
f 734// 106// 735//
f 735// 106// 109//
f 735// 109// 108//
f 110// 736// 107//
f 107// 736// 735//
f 107// 735// 108//
f 736// 110// 112//
f 113// 737// 112//
f 112// 737// 738//
f 112// 738// 736//
f 113// 125// 737//
f 737// 125// 124//
f 737// 124// 739//
f 739// 124// 118//
f 739// 118// 740//
f 740// 118// 117//
f 740// 117// 741//
f 741// 117// 245//
f 741// 245// 742//
f 742// 245// 116//
f 742// 116// 743//
f 744// 743// 115//
f 115// 743// 116//
f 744// 115// 123//
f 744// 123// 745//
f 745// 123// 122//
f 745// 122// 746//
f 746// 122// 120//
f 746// 120// 747//
f 747// 120// 119//
f 747// 119// 748//
f 119// 132// 748//
f 748// 132// 131//
f 748// 131// 749//
f 749// 131// 130//
f 749// 130// 750//
f 750// 130// 127//
f 750// 127// 751//
f 751// 127// 126//
f 751// 126// 752//
f 101// 753// 129//
f 129// 753// 752//
f 129// 752// 126//
f 754// 753// 100//
f 100// 753// 101//
f 728// 754// 98//
f 98// 754// 100//
f 729// 730// 752//
f 753// 754// 752//
f 752// 754// 728//
f 752// 728// 729//
f 733// 734// 732//
f 732// 734// 735//
f 732// 735// 731//
f 751// 738// 750//
f 750// 738// 737//
f 743// 744// 742//
f 742// 744// 745//
f 742// 745// 741//
f 741// 745// 746//
f 741// 746// 740//
f 740// 746// 747//
f 740// 747// 739//
f 739// 747// 748//
f 739// 748// 737//
f 737// 748// 749//
f 737// 749// 750//
f 730// 731// 752//
f 752// 731// 735//
f 752// 735// 751//
f 751// 735// 736//
f 751// 736// 738//
f 243// 11// 755//
f 755// 11// 756//
f 11// 10// 756//
f 756// 10// 189//
f 756// 189// 757//
f 757// 189// 188//
f 757// 188// 758//
f 758// 188// 175//
f 758// 175// 759//
f 759// 175// 174//
f 759// 174// 760//
f 760// 174// 182//
f 760// 182// 761//
f 761// 182// 181//
f 761// 181// 762//
f 762// 181// 180//
f 762// 180// 763//
f 763// 180// 172//
f 763// 172// 764//
f 764// 172// 171//
f 764// 171// 765//
f 765// 171// 204//
f 765// 204// 766//
f 766// 204// 203//
f 766// 203// 767//
f 767// 203// 201//
f 767// 201// 768//
f 768// 201// 199//
f 768// 199// 769//
f 769// 199// 198//
f 769// 198// 770//
f 770// 198// 197//
f 770// 197// 771//
f 771// 197// 196//
f 771// 196// 772//
f 772// 196// 195//
f 772// 195// 773//
f 773// 195// 192//
f 773// 192// 774//
f 774// 192// 207//
f 774// 207// 775//
f 775// 207// 206//
f 775// 206// 776//
f 776// 206// 205//
f 776// 205// 777//
f 777// 205// 194//
f 777// 194// 778//
f 778// 194// 193//
f 778// 193// 779//
f 779// 193// 191//
f 779// 191// 780//
f 780// 191// 190//
f 780// 190// 781//
f 781// 190// 200//
f 781// 200// 782//
f 782// 200// 202//
f 782// 202// 783//
f 783// 202// 173//
f 783// 173// 784//
f 785// 784// 186//
f 186// 784// 173//
f 785// 186// 187//
f 785// 187// 786//
f 786// 187// 184//
f 786// 184// 787//
f 787// 184// 183//
f 787// 183// 788//
f 788// 183// 176//
f 788// 176// 789//
f 789// 176// 178//
f 789// 178// 790//
f 178// 179// 790//
f 790// 179// 791//
f 179// 210// 791//
f 791// 210// 211//
f 791// 211// 792//
f 792// 211// 219//
f 792// 219// 793//
f 793// 219// 218//
f 793// 218// 794//
f 794// 218// 217//
f 794// 217// 795//
f 795// 217// 216//
f 795// 216// 796//
f 796// 216// 215//
f 796// 215// 797//
f 222// 798// 799//
f 797// 215// 220//
f 797// 220// 800//
f 800// 220// 214//
f 800// 214// 799//
f 799// 214// 223//
f 799// 223// 222//
f 798// 222// 226//
f 798// 226// 801//
f 801// 226// 237//
f 801// 237// 802//
f 802// 237// 236//
f 802// 236// 803//
f 803// 236// 235//
f 803// 235// 804//
f 804// 235// 229//
f 804// 229// 805//
f 805// 229// 228//
f 805// 228// 806//
f 806// 228// 234//
f 806// 234// 807//
f 807// 234// 233//
f 807// 233// 808//
f 808// 233// 232//
f 808// 232// 809//
f 809// 232// 231//
f 809// 231// 810//
f 810// 231// 230//
f 810// 230// 811//
f 811// 230// 227//
f 811// 227// 812//
f 812// 227// 225//
f 812// 225// 813//
f 813// 225// 224//
f 813// 224// 814//
f 208// 815// 816//
f 814// 224// 221//
f 814// 221// 817//
f 817// 221// 213//
f 817// 213// 816//
f 816// 213// 212//
f 816// 212// 208//
f 818// 815// 242//
f 242// 815// 208//
f 242// 241// 818//
f 818// 241// 819//
f 243// 755// 238//
f 238// 755// 819//
f 238// 819// 239//
f 239// 819// 241//
f 777// 778// 789//
f 789// 778// 788//
f 801// 768// 798//
f 798// 768// 769//
f 757// 758// 809//
f 809// 758// 759//
f 809// 759// 808//
f 808// 759// 760//
f 808// 760// 807//
f 807// 760// 761//
f 807// 761// 806//
f 806// 761// 762//
f 806// 762// 805//
f 805// 762// 763//
f 805// 763// 804//
f 804// 763// 764//
f 804// 764// 803//
f 803// 764// 765//
f 803// 765// 802//
f 802// 765// 766//
f 802// 766// 801//
f 801// 766// 767//
f 801// 767// 768//
f 755// 814// 819//
f 819// 814// 817//
f 819// 817// 818//
f 818// 817// 816//
f 818// 816// 815//
f 778// 779// 788//
f 788// 779// 780//
f 788// 780// 787//
f 787// 780// 781//
f 787// 781// 786//
f 786// 781// 782//
f 786// 782// 785//
f 785// 782// 783//
f 785// 783// 784//
f 809// 810// 757//
f 757// 810// 811//
f 757// 811// 756//
f 756// 811// 812//
f 756// 812// 755//
f 755// 812// 813//
f 755// 813// 814//
f 789// 790// 777//
f 777// 790// 791//
f 777// 791// 776//
f 776// 791// 792//
f 776// 792// 775//
f 775// 792// 793//
f 775// 793// 774//
f 774// 793// 794//
f 774// 794// 773//
f 773// 794// 795//
f 773// 795// 772//
f 772// 795// 796//
f 772// 796// 771//
f 771// 796// 797//
f 771// 797// 770//
f 770// 797// 800//
f 770// 800// 769//
f 769// 800// 799//
f 769// 799// 798//
f 820// 821// 822//
f 822// 821// 823//
f 824// 825// 826//
f 827// 828// 829//
f 829// 828// 830//
f 831// 832// 823//
f 823// 832// 833//
f 833// 834// 823//
f 823// 834// 835//
f 823// 835// 822//
f 822// 835// 836//
f 822// 836// 827//
f 827// 836// 837//
f 827// 837// 828//
f 826// 831// 824//
f 824// 831// 823//
f 824// 823// 838//
f 838// 823// 839//
f 838// 839// 840//
f 840// 839// 841//
f 840// 841// 842//
f 842// 841// 843//
f 842// 843// 844//
f 844// 843// 845//
f 844// 845// 846//
f 846// 845// 847//
f 846// 847// 848//
f 848// 847// 849//
f 848// 849// 850//
f 850// 849// 851//
f 850// 851// 852//
f 852// 851// 853//
f 852// 853// 854//
f 854// 853// 855//
f 854// 855// 856//
f 856// 855// 857//
f 858// 859// 860//
f 860// 859// 861//
f 860// 861// 862//
f 862// 861// 863//
f 862// 863// 864//
f 864// 863// 865//
f 864// 865// 866//
f 866// 865// 867//
f 866// 867// 868//
f 868// 867// 869//
f 868// 869// 830//
f 830// 869// 870//
f 830// 870// 829//
f 871// 872// 873//
f 873// 872// 874//
f 873// 874// 875//
f 875// 874// 876//
f 875// 876// 877//
f 877// 876// 878//
f 877// 878// 858//
f 858// 878// 879//
f 858// 879// 859//
f 824// 880// 825//
f 825// 880// 881//
f 825// 881// 882//
f 882// 881// 883//
f 882// 883// 884//
f 884// 883// 885//
f 884// 885// 886//
f 886// 885// 887//
f 886// 887// 871//
f 871// 887// 888//
f 871// 888// 872//
f 850// 263// 262//
f 850// 262// 848//
f 848// 262// 287//
f 848// 287// 846//
f 846// 287// 286//
f 846// 286// 844//
f 844// 286// 276//
f 844// 276// 842//
f 842// 276// 275//
f 842// 275// 840//
f 840// 275// 274//
f 840// 274// 838//
f 838// 274// 273//
f 838// 273// 824//
f 880// 824// 261//
f 261// 824// 273//
f 880// 261// 259//
f 880// 259// 881//
f 881// 259// 258//
f 881// 258// 883//
f 883// 258// 246//
f 883// 246// 885//
f 885// 246// 248//
f 885// 248// 887//
f 887// 248// 249//
f 887// 249// 888//
f 888// 249// 278//
f 888// 278// 872//
f 872// 278// 277//
f 872// 277// 874//
f 874// 277// 252//
f 874// 252// 876//
f 876// 252// 251//
f 876// 251// 878//
f 878// 251// 272//
f 878// 272// 879//
f 879// 272// 271//
f 879// 271// 859//
f 292// 865// 293//
f 293// 865// 863//
f 293// 863// 294//
f 294// 863// 861//
f 294// 861// 270//
f 270// 861// 859//
f 270// 859// 271//
f 865// 292// 289//
f 865// 289// 867//
f 867// 289// 288//
f 867// 288// 869//
f 288// 459// 869//
f 869// 459// 257//
f 869// 257// 870//
f 870// 257// 256//
f 870// 256// 829//
f 829// 256// 254//
f 829// 254// 827//
f 822// 827// 253//
f 253// 827// 254//
f 820// 822// 255//
f 255// 822// 253//
f 821// 820// 285//
f 285// 820// 255//
f 823// 821// 284//
f 284// 821// 285//
f 823// 284// 283//
f 823// 283// 839//
f 839// 283// 269//
f 839// 269// 841//
f 841// 269// 268//
f 841// 268// 843//
f 843// 268// 267//
f 843// 267// 845//
f 845// 267// 266//
f 845// 266// 847//
f 847// 266// 265//
f 847// 265// 849//
f 849// 265// 282//
f 849// 282// 851//
f 851// 282// 281//
f 851// 281// 853//
f 853// 281// 280//
f 853// 280// 855//
f 855// 280// 279//
f 855// 279// 857//
f 856// 857// 247//
f 247// 857// 279//
f 856// 247// 260//
f 856// 260// 854//
f 854// 260// 264//
f 854// 264// 852//
f 852// 264// 263//
f 852// 263// 850//
f 837// 889// 890//
f 837// 890// 828//
f 828// 890// 891//
f 828// 891// 830//
f 830// 891// 892//
f 830// 892// 868//
f 868// 892// 893//
f 868// 893// 866//
f 833// 894// 895//
f 833// 895// 834//
f 834// 895// 896//
f 834// 896// 835//
f 835// 896// 897//
f 835// 897// 836//
f 836// 897// 889//
f 836// 889// 837//
f 833// 832// 894//
f 894// 832// 898//
f 832// 831// 898//
f 898// 831// 899//
f 882// 900// 901//
f 882// 901// 825//
f 825// 901// 902//
f 825// 902// 826//
f 826// 902// 899//
f 826// 899// 831//
f 873// 903// 904//
f 873// 904// 871//
f 871// 904// 905//
f 871// 905// 886//
f 886// 905// 906//
f 886// 906// 884//
f 884// 906// 900//
f 884// 900// 882//
f 860// 907// 908//
f 860// 908// 858//
f 858// 908// 909//
f 858// 909// 877//
f 877// 909// 910//
f 877// 910// 875//
f 875// 910// 903//
f 875// 903// 873//
f 866// 893// 911//
f 866// 911// 864//
f 864// 911// 912//
f 864// 912// 862//
f 862// 912// 907//
f 862// 907// 860//
usemtl 1
f 898// 899// 894//
f 894// 899// 902//
f 902// 901// 894//
f 894// 901// 900//
f 894// 900// 895//
f 895// 900// 896//
f 896// 900// 906//
f 896// 906// 897//
f 908// 907// 890//
f 908// 890// 909//
f 891// 890// 892//
f 892// 890// 893//
f 906// 905// 897//
f 897// 905// 904//
f 897// 904// 889//
f 889// 904// 903//
f 889// 903// 890//
f 890// 903// 910//
f 890// 910// 909//
f 907// 912// 890//
f 890// 912// 911//
f 890// 911// 893//
usemtl 3
f 913// 914// 915//
f 916// 917// 918//
f 919// 920// 916//
f 921// 922// 923//
f 924// 925// 926//
f 927// 928// 929//
f 923// 922// 930//
f 920// 931// 916//
f 916// 931// 932//
f 916// 932// 933//
f 934// 935// 936//
f 936// 935// 937//
f 936// 937// 938//
f 938// 937// 939//
f 938// 939// 940//
f 940// 939// 941//
f 940// 941// 942//
f 942// 941// 915//
f 942// 915// 943//
f 943// 915// 944//
f 945// 946// 934//
f 934// 946// 947//
f 934// 947// 935//
f 926// 925// 948//
f 948// 925// 949//
f 948// 949// 950//
f 950// 949// 951//
f 950// 951// 952//
f 927// 929// 953//
f 953// 929// 954//
f 953// 954// 955//
f 955// 954// 956//
f 955// 956// 957//
f 958// 959// 915//
f 915// 959// 960//
f 915// 960// 913//
f 922// 961// 930//
f 930// 961// 962//
f 930// 962// 963//
f 963// 962// 964//
f 963// 964// 927//
f 927// 964// 965//
f 927// 965// 928//
f 932// 966// 933//
f 933// 966// 967//
f 933// 967// 968//
f 968// 967// 969//
f 968// 969// 970//
f 971// 972// 973//
f 973// 972// 974//
f 973// 974// 975//
f 975// 974// 976//
f 975// 976// 977//
f 977// 976// 978//
f 977// 978// 979//
f 979// 978// 980//
f 979// 980// 981//
f 981// 980// 982//
f 981// 982// 983//
f 983// 982// 984//
f 983// 984// 985//
f 985// 984// 986//
f 985// 986// 987//
f 987// 986// 988//
f 919// 916// 989//
f 989// 916// 918//
f 989// 918// 934//
f 934// 918// 990//
f 934// 990// 945//
f 926// 991// 924//
f 924// 991// 992//
f 924// 992// 993//
f 993// 992// 994//
f 993// 994// 995//
f 995// 994// 996//
f 995// 996// 988//
f 988// 996// 997//
f 988// 997// 987//
f 998// 999// 1000//
f 1000// 999// 1001//
f 1000// 1001// 973//
f 973// 1001// 1002//
f 973// 1002// 971//
f 1003// 1004// 1005//
f 1005// 1004// 1006//
f 1005// 1006// 1007//
f 1007// 1006// 1008//
f 1007// 1008// 1009//
f 1009// 1008// 1010//
f 1009// 1010// 1011//
f 1011// 1010// 1012//
f 1011// 1012// 958//
f 958// 1012// 1013//
f 958// 1013// 959//
f 923// 1014// 921//
f 921// 1014// 1015//
f 921// 1015// 1016//
f 1016// 1015// 1017//
f 1016// 1017// 1018//
f 1018// 1017// 1019//
f 1018// 1019// 1003//
f 1003// 1019// 1020//
f 1003// 1020// 1004//
f 944// 915// 1021//
f 1021// 915// 914//
f 1021// 914// 1022//
f 1023// 1024// 1025//
f 957// 956// 1026//
f 1026// 956// 1027//
f 1026// 1027// 1028//
f 1028// 1027// 1029//
f 1028// 1029// 1030//
f 1030// 1029// 1031//
f 1030// 1031// 1032//
f 1032// 1031// 1033//
f 1032// 1033// 998//
f 998// 1033// 1034//
f 998// 1034// 999//
f 970// 969// 1035//
f 1035// 969// 1036//
f 1035// 1036// 1037//
f 1037// 1036// 1038//
f 1037// 1038// 1039//
f 1039// 1038// 1040//
f 1039// 1040// 1041//
f 1041// 1040// 1042//
f 1041// 1042// 1043//
f 1043// 1042// 1044//
f 1043// 1044// 1045//
f 1045// 1044// 1046//
f 1045// 1046// 1047//
f 1047// 1046// 1048//
f 1047// 1048// 1049//
f 1049// 1048// 1050//
f 1049// 1050// 1051//
f 1051// 1050// 1052//
f 1051// 1052// 914//
f 914// 1052// 1053//
f 914// 1053// 1022//
f 951// 1054// 952//
f 952// 1054// 1023//
f 952// 1023// 1055//
f 1055// 1023// 1025//
f 1056// 1057// 1023//
f 1023// 1057// 1058//
f 1023// 1058// 1024//
f 1059// 1060// 1061//
f 1060// 1062// 1061//
f 1061// 1062// 1063//
f 1061// 1063// 1064//
f 1056// 1023// 1061//
f 1061// 1023// 1065//
f 1061// 1065// 1059//
f 985// 368// 367//
f 985// 367// 983//
f 983// 367// 408//
f 983// 408// 981//
f 408// 407// 981//
f 981// 407// 406//
f 981// 406// 979//
f 406// 296// 979//
f 979// 296// 295//
f 979// 295// 977//
f 977// 295// 304//
f 977// 304// 975//
f 975// 304// 303//
f 975// 303// 973//
f 973// 303// 302//
f 973// 302// 1000//
f 1000// 302// 301//
f 1000// 301// 998//
f 998// 301// 1032//
f 1032// 301// 300//
f 300// 299// 1032//
f 1032// 299// 170//
f 1032// 170// 1030//
f 1030// 170// 169//
f 1030// 169// 1028//
f 151// 955// 166//
f 166// 955// 957//
f 166// 957// 167//
f 167// 957// 1026//
f 167// 1026// 168//
f 168// 1026// 1028//
f 168// 1028// 169//
f 955// 151// 157//
f 955// 157// 953//
f 953// 157// 159//
f 953// 159// 927//
f 927// 159// 158//
f 927// 158// 963//
f 963// 158// 150//
f 963// 150// 930//
f 930// 150// 149//
f 930// 149// 923//
f 923// 149// 161//
f 923// 161// 1014//
f 1014// 161// 160//
f 1014// 160// 1015//
f 1015// 160// 156//
f 1015// 156// 1017//
f 1020// 1019// 155//
f 155// 1019// 1017//
f 155// 1017// 156//
f 155// 153// 1020//
f 1020// 153// 152//
f 1020// 152// 1004//
f 1004// 152// 147//
f 147// 146// 1004//
f 1004// 146// 145//
f 1004// 145// 1006//
f 1006// 145// 143//
f 1006// 143// 1008//
f 1008// 143// 142//
f 1008// 142// 1010//
f 1010// 142// 134//
f 1010// 134// 1012//
f 1012// 134// 133//
f 1012// 133// 1013//
f 1013// 133// 136//
f 1013// 136// 959//
f 959// 136// 141//
f 959// 141// 960//
f 960// 141// 140//
f 960// 140// 913//
f 140// 139// 913//
f 913// 139// 138//
f 913// 138// 914//
f 914// 138// 137//
f 914// 137// 1051//
f 1051// 137// 305//
f 1051// 305// 1049//
f 305// 306// 1049//
f 1049// 306// 308//
f 1049// 308// 1047//
f 1047// 308// 310//
f 1047// 310// 1045//
f 1045// 310// 315//
f 1045// 315// 1043//
f 1043// 315// 314//
f 1043// 314// 1041//
f 314// 312// 1041//
f 1041// 312// 311//
f 1041// 311// 1039//
f 1039// 311// 316//
f 1039// 316// 1037//
f 1037// 316// 8//
f 1037// 8// 1035//
f 8// 7// 1035//
f 1035// 7// 343//
f 1035// 343// 970//
f 970// 343// 344//
f 970// 344// 968//
f 933// 968// 335//
f 335// 968// 344//
f 916// 933// 323//
f 323// 933// 335//
f 917// 916// 318//
f 318// 916// 323//
f 918// 917// 317//
f 317// 917// 318//
f 918// 317// 319//
f 918// 319// 990//
f 990// 319// 320//
f 990// 320// 945//
f 945// 320// 356//
f 945// 356// 946//
f 946// 356// 355//
f 946// 355// 947//
f 947// 355// 354//
f 947// 354// 935//
f 935// 354// 350//
f 935// 350// 937//
f 937// 350// 351//
f 937// 351// 939//
f 939// 351// 347//
f 939// 347// 941//
f 941// 347// 349//
f 941// 349// 915//
f 915// 349// 348//
f 915// 348// 958//
f 958// 348// 346//
f 958// 346// 1011//
f 1011// 346// 345//
f 1011// 345// 1009//
f 1009// 345// 353//
f 1009// 353// 1007//
f 1007// 353// 352//
f 1007// 352// 1005//
f 352// 327// 1005//
f 1005// 327// 1003//
f 327// 379// 1003//
f 1003// 379// 378//
f 1003// 378// 1018//
f 1018// 378// 391//
f 1018// 391// 1016//
f 391// 405// 1016//
f 1016// 405// 404//
f 1016// 404// 921//
f 921// 404// 403//
f 921// 403// 922//
f 922// 403// 397//
f 922// 397// 961//
f 961// 397// 396//
f 961// 396// 962//
f 962// 396// 395//
f 962// 395// 964//
f 964// 395// 392//
f 964// 392// 965//
f 965// 392// 387//
f 965// 387// 928//
f 928// 387// 390//
f 928// 390// 929//
f 929// 390// 398//
f 929// 398// 954//
f 954// 398// 400//
f 954// 400// 956//
f 956// 400// 402//
f 956// 402// 1027//
f 1027// 402// 401//
f 1027// 401// 1029//
f 377// 971// 393//
f 393// 971// 1002//
f 393// 1002// 394//
f 394// 1002// 1001//
f 394// 1001// 385//
f 385// 1001// 999//
f 385// 999// 386//
f 386// 999// 1034//
f 386// 1034// 388//
f 388// 1034// 1033//
f 388// 1033// 389//
f 389// 1033// 1031//
f 389// 1031// 399//
f 399// 1031// 1029//
f 399// 1029// 401//
f 972// 971// 380//
f 380// 971// 377//
f 972// 380// 384//
f 972// 384// 974//
f 974// 384// 383//
f 974// 383// 976//
f 976// 383// 382//
f 976// 382// 978//
f 978// 382// 381//
f 978// 381// 980//
f 980// 381// 326//
f 980// 326// 982//
f 326// 325// 982//
f 982// 325// 324//
f 982// 324// 984//
f 984// 324// 366//
f 984// 366// 986//
f 986// 366// 365//
f 986// 365// 988//
f 988// 365// 364//
f 988// 364// 995//
f 995// 364// 363//
f 995// 363// 993//
f 993// 363// 376//
f 993// 376// 924//
f 924// 376// 375//
f 924// 375// 925//
f 925// 375// 359//
f 925// 359// 949//
f 951// 949// 358//
f 358// 949// 359//
f 951// 358// 357//
f 951// 357// 1054//
f 1054// 357// 330//
f 1054// 330// 1023//
f 1023// 330// 329//
f 1023// 329// 1065//
f 1065// 329// 328//
f 1065// 328// 1059//
f 1059// 328// 322//
f 1059// 322// 1060//
f 1060// 322// 321//
f 1060// 321// 1062//
f 1062// 321// 337//
f 1062// 337// 1063//
f 1063// 337// 336//
f 1063// 336// 1064//
f 1064// 336// 334//
f 1064// 334// 1061//
f 1061// 334// 333//
f 1061// 333// 1056//
f 1056// 333// 342//
f 1056// 342// 1057//
f 1057// 342// 341//
f 1057// 341// 1058//
f 1058// 341// 340//
f 1058// 340// 1024//
f 1024// 340// 339//
f 1024// 339// 1025//
f 1025// 339// 338//
f 1025// 338// 1055//
f 1055// 338// 374//
f 1055// 374// 952//
f 952// 374// 373//
f 952// 373// 950//
f 948// 950// 372//
f 372// 950// 373//
f 948// 372// 332//
f 948// 332// 926//
f 926// 332// 331//
f 926// 331// 991//
f 991// 331// 362//
f 991// 362// 992//
f 992// 362// 361//
f 992// 361// 994//
f 994// 361// 360//
f 994// 360// 996//
f 996// 360// 371//
f 996// 371// 997//
f 997// 371// 370//
f 997// 370// 987//
f 987// 370// 368//
f 987// 368// 985//
f 989// 1066// 1067//
f 989// 1067// 919//
f 919// 1067// 1068//
f 919// 1068// 920//
f 920// 1068// 1069//
f 920// 1069// 931//
f 931// 1069// 1070//
f 931// 1070// 932//
f 932// 1070// 1071//
f 932// 1071// 966//
f 966// 1071// 1072//
f 966// 1072// 967//
f 967// 1072// 1073//
f 967// 1073// 969//
f 969// 1073// 1074//
f 969// 1074// 1036//
f 1036// 1074// 1075//
f 1036// 1075// 1038//
f 1038// 1075// 1076//
f 1038// 1076// 1040//
f 1040// 1076// 1077//
f 1040// 1077// 1042//
f 1042// 1077// 1078//
f 1042// 1078// 1044//
f 1044// 1078// 1079//
f 1044// 1079// 1046//
f 1046// 1079// 1080//
f 1046// 1080// 1048//
f 1048// 1080// 1081//
f 1048// 1081// 1050//
f 1050// 1081// 1082//
f 1050// 1082// 1052//
f 1052// 1082// 1083//
f 1052// 1083// 1053//
f 1053// 1083// 1084//
f 1053// 1084// 1022//
f 1022// 1084// 1085//
f 1022// 1085// 1021//
f 1021// 1085// 1086//
f 1021// 1086// 944//
f 944// 1086// 1087//
f 944// 1087// 943//
f 943// 1087// 1088//
f 943// 1088// 942//
f 942// 1088// 1089//
f 942// 1089// 940//
f 940// 1089// 1090//
f 940// 1090// 938//
f 938// 1090// 1091//
f 938// 1091// 936//
f 936// 1091// 1092//
f 936// 1092// 934//
f 934// 1092// 1066//
f 934// 1066// 989//
usemtl 1
f 1080// 1090// 1089//
f 1078// 1077// 1067//
f 1066// 1092// 1080//
f 1080// 1092// 1091//
f 1080// 1091// 1090//
f 1085// 1084// 1089//
f 1089// 1084// 1083//
f 1066// 1080// 1067//
f 1067// 1080// 1079//
f 1067// 1079// 1078//
f 1088// 1087// 1089//
f 1089// 1087// 1086//
f 1089// 1086// 1085//
f 1083// 1082// 1089//
f 1089// 1082// 1081//
f 1089// 1081// 1080//
f 1077// 1076// 1067//
f 1067// 1076// 1075//
f 1067// 1075// 1074//
f 1074// 1073// 1067//
f 1067// 1073// 1072//
f 1067// 1072// 1071//
f 1071// 1070// 1067//
f 1067// 1070// 1069//
f 1067// 1069// 1068//
usemtl 3
f 1093// 1094// 1095//
f 1095// 1094// 1096//
f 1095// 1096// 1097//
f 1097// 1096// 1098//
f 1097// 1098// 1099//
f 1099// 1098// 1100//
f 1099// 1100// 1101//
f 1101// 1100// 1102//
f 1101// 1102// 1103//
f 1103// 1102// 1104//
f 1103// 1104// 1105//
f 1105// 1104// 1106//
f 1105// 1106// 1107//
f 1107// 1106// 1108//
f 1107// 1108// 1109//
f 1109// 1108// 1110//
f 1109// 1110// 1111//
f 1111// 1110// 1112//
f 1111// 1112// 1113//
f 1113// 1112// 1114//
f 1113// 1114// 1115//
f 1115// 1114// 1116//
f 1115// 1116// 1117//
f 1117// 1116// 1118//
f 1117// 1118// 1119//
f 1119// 1118// 1120//
f 1119// 1120// 1121//
f 1121// 1120// 1122//
f 1121// 1122// 1123//
f 1123// 1122// 1124//
f 1123// 1124// 1125//
f 1125// 1124// 1126//
f 1125// 1126// 1127//
f 1127// 1126// 1128//
f 1127// 1128// 1093//
f 1093// 1128// 1094//
f 1124// 528// 518//
f 1124// 518// 1126//
f 1126// 518// 517//
f 1126// 517// 1128//
f 1128// 517// 532//
f 1128// 532// 1094//
f 1094// 532// 531//
f 1094// 531// 1096//
f 1096// 531// 530//
f 1096// 530// 1098//
f 1098// 530// 527//
f 1098// 527// 1100//
f 1100// 527// 526//
f 1100// 526// 1102//
f 1102// 526// 525//
f 1102// 525// 1104//
f 1104// 525// 522//
f 1104// 522// 1106//
f 1106// 522// 521//
f 1106// 521// 1108//
f 1108// 521// 520//
f 1108// 520// 1110//
f 1112// 1110// 519//
f 519// 1110// 520//
f 1114// 1112// 512//
f 512// 1112// 519//
f 1116// 1114// 511//
f 511// 1114// 512//
f 1116// 511// 524//
f 1116// 524// 1118//
f 1118// 524// 523//
f 1118// 523// 1120//
f 1120// 523// 529//
f 1120// 529// 1122//
f 1122// 529// 528//
f 1122// 528// 1124//
f 1103// 1129// 1130//
f 1103// 1130// 1101//
f 1101// 1130// 1131//
f 1101// 1131// 1099//
f 1099// 1131// 1132//
f 1099// 1132// 1097//
f 1097// 1132// 1133//
f 1097// 1133// 1095//
f 1109// 1134// 1135//
f 1109// 1135// 1107//
f 1107// 1135// 1136//
f 1107// 1136// 1105//
f 1105// 1136// 1129//
f 1105// 1129// 1103//
f 1109// 1111// 1134//
f 1134// 1111// 1137//
f 1111// 1113// 1137//
f 1137// 1113// 1138//
f 1113// 1115// 1138//
f 1138// 1115// 1139//
f 1123// 1140// 1141//
f 1123// 1141// 1121//
f 1121// 1141// 1142//
f 1121// 1142// 1119//
f 1119// 1142// 1143//
f 1119// 1143// 1117//
f 1117// 1143// 1139//
f 1117// 1139// 1115//
f 1095// 1133// 1144//
f 1095// 1144// 1093//
f 1093// 1144// 1145//
f 1093// 1145// 1127//
f 1127// 1145// 1146//
f 1127// 1146// 1125//
f 1125// 1146// 1140//
f 1125// 1140// 1123//
usemtl 1
f 1137// 1138// 1134//
f 1134// 1138// 1139//
f 1134// 1139// 1143//
f 1143// 1142// 1134//
f 1134// 1142// 1141//
f 1134// 1141// 1140//
f 1140// 1146// 1134//
f 1134// 1146// 1145//
f 1134// 1145// 1144//
f 1144// 1133// 1134//
f 1134// 1133// 1132//
f 1134// 1132// 1131//
f 1131// 1130// 1134//
f 1134// 1130// 1129//
f 1134// 1129// 1135//
f 1135// 1129// 1136//
usemtl 3
f 1147// 53// 52//
f 1147// 52// 1148//
f 1148// 52// 51//
f 1148// 51// 1149//
f 1149// 51// 54//
f 1149// 54// 1150//
f 1150// 54// 50//
f 1150// 50// 1151//
f 1151// 50// 49//
f 1151// 49// 1152//
f 1152// 49// 48//
f 1152// 48// 1153//
f 1153// 48// 38//
f 1153// 38// 1154//
f 1154// 38// 37//
f 1154// 37// 1155//
f 1155// 37// 33//
f 1155// 33// 1156//
f 1156// 33// 35//
f 1156// 35// 1157//
f 1157// 35// 36//
f 1157// 36// 1158//
f 1158// 36// 47//
f 1158// 47// 1159//
f 1159// 47// 46//
f 1159// 46// 1160//
f 1160// 46// 42//
f 1160// 42// 1161//
f 1161// 42// 41//
f 1161// 41// 1162//
f 1162// 41// 45//
f 1162// 45// 1163//
f 64// 1164// 1165//
f 1163// 45// 44//
f 1163// 44// 1166//
f 1166// 44// 43//
f 1166// 43// 1165//
f 1165// 43// 447//
f 1165// 447// 64//
f 1167// 1164// 63//
f 63// 1164// 64//
f 67// 1168// 1169//
f 1167// 63// 61//
f 1167// 61// 1170//
f 61// 59// 1170//
f 1170// 59// 58//
f 1170// 58// 1169//
f 1169// 58// 65//
f 1169// 65// 67//
f 67// 69// 1168//
f 1168// 69// 1171//
f 69// 72// 1171//
f 1171// 72// 71//
f 1171// 71// 1172//
f 1172// 71// 75//
f 1172// 75// 1173//
f 1173// 75// 74//
f 1173// 74// 1174//
f 1174// 74// 73//
f 1174// 73// 1175//
f 1175// 73// 78//
f 1175// 78// 1176//
f 78// 77// 1176//
f 1176// 77// 82//
f 1176// 82// 1177//
f 1177// 82// 81//
f 1177// 81// 1178//
f 1178// 81// 79//
f 1178// 79// 1179//
f 1179// 79// 17//
f 1179// 17// 1180//
f 17// 16// 1180//
f 1180// 16// 86//
f 1180// 86// 1181//
f 1181// 86// 85//
f 1181// 85// 1182//
f 90// 1183// 1184//
f 1182// 85// 84//
f 1182// 84// 1185//
f 1185// 84// 83//
f 1185// 83// 1186//
f 1186// 83// 87//
f 1186// 87// 1184//
f 1184// 87// 89//
f 1184// 89// 90//
f 1183// 90// 92//
f 1183// 92// 1187//
f 56// 1188// 94//
f 94// 1188// 1187//
f 94// 1187// 95//
f 95// 1187// 92//
f 1189// 1188// 55//
f 55// 1188// 56//
f 1189// 55// 34//
f 1189// 34// 1190//
f 34// 39// 1190//
f 1190// 39// 40//
f 1190// 40// 1191//
f 1191// 40// 53//
f 1191// 53// 1147//
f 1165// 1164// 1167//
f 1152// 1153// 1179//
f 1156// 1157// 1175//
f 1179// 1153// 1178//
f 1175// 1157// 1174//
f 1165// 1167// 1166//
f 1166// 1167// 1170//
f 1166// 1170// 1163//
f 1163// 1170// 1169//
f 1163// 1169// 1162//
f 1162// 1169// 1168//
f 1162// 1168// 1161//
f 1161// 1168// 1171//
f 1161// 1171// 1160//
f 1188// 1189// 1187//
f 1187// 1189// 1190//
f 1187// 1190// 1183//
f 1171// 1172// 1160//
f 1160// 1172// 1173//
f 1160// 1173// 1159//
f 1159// 1173// 1174//
f 1159// 1174// 1158//
f 1158// 1174// 1157//
f 1179// 1180// 1152//
f 1152// 1180// 1181//
f 1152// 1181// 1151//
f 1151// 1181// 1182//
f 1151// 1182// 1150//
f 1150// 1182// 1185//
f 1150// 1185// 1149//
f 1149// 1185// 1186//
f 1149// 1186// 1148//
f 1148// 1186// 1184//
f 1148// 1184// 1147//
f 1147// 1184// 1183//
f 1147// 1183// 1191//
f 1191// 1183// 1190//
f 1153// 1154// 1178//
f 1178// 1154// 1155//
f 1178// 1155// 1177//
f 1177// 1155// 1156//
f 1177// 1156// 1176//
f 1176// 1156// 1175//
f 1192// 1193// 1194//
f 1195// 1196// 1197//
f 1193// 1198// 1194//
f 1194// 1198// 1199//
f 1194// 1199// 1200//
f 1200// 1199// 1201//
f 1200// 1201// 1202//
f 1202// 1203// 1200//
f 1200// 1203// 1204//
f 1200// 1204// 1205//
f 1206// 1205// 1207//
f 1207// 1205// 1204//
f 1207// 1204// 1197//
f 1197// 1204// 1192//
f 1197// 1192// 1195//
f 1195// 1192// 1194//
f 1194// 1200// 501//
f 501// 1200// 502//
f 1195// 1194// 497//
f 497// 1194// 501//
f 1196// 1195// 496//
f 496// 1195// 497//
f 1197// 1196// 500//
f 500// 1196// 496//
f 1207// 1197// 499//
f 499// 1197// 500//
f 1206// 1207// 498//
f 498// 1207// 499//
f 1205// 1206// 533//
f 533// 1206// 498//
f 1200// 1205// 502//
f 502// 1205// 533//
f 1193// 1208// 1209//
f 1193// 1209// 1198//
f 1198// 1209// 1210//
f 1198// 1210// 1199//
f 1193// 1192// 1208//
f 1208// 1192// 1211//
f 1192// 1204// 1211//
f 1211// 1204// 1212//
f 1204// 1203// 1212//
f 1212// 1203// 1213//
f 1201// 1214// 1215//
f 1201// 1215// 1202//
f 1202// 1215// 1213//
f 1202// 1213// 1203//
f 1201// 1199// 1214//
f 1214// 1199// 1210//
usemtl 1
f 1214// 1210// 1215//
f 1215// 1210// 1209//
f 1215// 1209// 1213//
f 1213// 1209// 1208//
f 1213// 1208// 1212//
f 1212// 1208// 1211//
usemtl 3
f 1216// 413// 1217//
f 1217// 413// 422//
f 1217// 422// 420//
f 1218// 1217// 419//
f 419// 1217// 420//
f 1218// 419// 1219//
f 1219// 419// 421//
f 1219// 421// 423//
f 1220// 1219// 424//
f 424// 1219// 423//
f 427// 1221// 425//
f 425// 1221// 1220//
f 425// 1220// 424//
f 1222// 1221// 428//
f 428// 1221// 427//
f 412// 1223// 426//
f 426// 1223// 1222//
f 426// 1222// 428//
f 1224// 1223// 409//
f 409// 1223// 412//
f 411// 1225// 410//
f 410// 1225// 1224//
f 410// 1224// 409//
f 1226// 1225// 418//
f 418// 1225// 411//
f 1226// 418// 1227//
f 1227// 418// 417//
f 1227// 417// 415//
f 1216// 1227// 413//
f 413// 1227// 415//
f 1226// 1227// 1216//
f 1216// 1217// 1226//
f 1226// 1217// 1218//
f 1226// 1218// 1225//
f 1223// 1224// 1222//
f 1222// 1224// 1225//
f 1222// 1225// 1221//
f 1221// 1225// 1218//
f 1221// 1218// 1220//
f 1220// 1218// 1219//
f 1228// 1229// 471//
f 471// 1229// 469//
f 1230// 1228// 470//
f 470// 1228// 471//
f 1231// 1230// 472//
f 472// 1230// 470//
f 1232// 1231// 473//
f 473// 1231// 472//
f 1233// 1232// 474//
f 474// 1232// 473//
f 1234// 1233// 475//
f 475// 1233// 474//
f 1235// 1234// 468//
f 468// 1234// 475//
f 1236// 1235// 466//
f 466// 1235// 468//
f 1237// 1236// 463//
f 463// 1236// 466//
f 1238// 1237// 462//
f 462// 1237// 463//
f 1239// 1238// 461//
f 461// 1238// 462//
f 1229// 1239// 469//
f 469// 1239// 461//
f 1231// 1232// 1230//
f 1230// 1232// 1233//
f 1239// 1229// 1238//
f 1238// 1229// 1228//
f 1235// 1236// 1234//
f 1234// 1236// 1237//
f 1234// 1237// 1233//
f 1233// 1237// 1238//
f 1233// 1238// 1230//
f 1230// 1238// 1228//
f 1240// 1241// 1242//
f 1243// 1244// 1245//
f 1241// 1246// 1242//
f 1242// 1246// 1247//
f 1242// 1247// 1248//
f 1248// 1247// 1249//
f 1248// 1249// 1250//
f 1250// 1251// 1248//
f 1248// 1251// 1252//
f 1248// 1252// 1253//
f 1254// 1253// 1255//
f 1255// 1253// 1252//
f 1255// 1252// 1245//
f 1245// 1252// 1240//
f 1245// 1240// 1243//
f 1243// 1240// 1242//
f 1242// 1248// 32//
f 32// 1248// 22//
f 26// 1243// 31//
f 31// 1243// 1242//
f 31// 1242// 32//
f 1244// 1243// 25//
f 25// 1243// 26//
f 1245// 1244// 29//
f 29// 1244// 25//
f 504// 1255// 28//
f 28// 1255// 1245//
f 28// 1245// 29//
f 1254// 1255// 21//
f 21// 1255// 504//
f 1253// 1254// 20//
f 20// 1254// 21//
f 1248// 1253// 22//
f 22// 1253// 20//
f 1241// 1256// 1257//
f 1241// 1257// 1246//
f 1246// 1257// 1258//
f 1246// 1258// 1247//
f 1241// 1240// 1256//
f 1256// 1240// 1259//
f 1240// 1252// 1259//
f 1259// 1252// 1260//
f 1252// 1251// 1260//
f 1260// 1251// 1261//
f 1249// 1262// 1263//
f 1249// 1263// 1250//
f 1250// 1263// 1261//
f 1250// 1261// 1251//
f 1249// 1247// 1262//
f 1262// 1247// 1258//
usemtl 1
f 1262// 1258// 1263//
f 1263// 1258// 1257//
f 1263// 1257// 1261//
f 1261// 1257// 1256//
f 1261// 1256// 1260//
f 1260// 1256// 1259//
usemtl 3
f 515// 1264// 513//
f 513// 1264// 1265//
f 513// 1265// 429//
f 1266// 1264// 516//
f 516// 1264// 515//
f 1266// 516// 1267//
f 1267// 516// 514//
f 1267// 514// 436//
f 1268// 1267// 437//
f 437// 1267// 436//
f 440// 1269// 438//
f 438// 1269// 1268//
f 438// 1268// 437//
f 1270// 1269// 441//
f 441// 1269// 440//
f 1270// 441// 1271//
f 1271// 441// 439//
f 1271// 439// 435//
f 1272// 1271// 433//
f 433// 1271// 435//
f 444// 1273// 445//
f 445// 1273// 1272//
f 445// 1272// 433//
f 1274// 1273// 442//
f 442// 1273// 444//
f 1274// 442// 1275//
f 1275// 442// 446//
f 1275// 446// 430//
f 1265// 1275// 429//
f 429// 1275// 430//
f 1274// 1275// 1265//
f 1265// 1264// 1274//
f 1274// 1264// 1266//
f 1274// 1266// 1273//
f 1271// 1272// 1270//
f 1270// 1272// 1273//
f 1270// 1273// 1269//
f 1269// 1273// 1266//
f 1269// 1266// 1268//
f 1268// 1266// 1267//
f 1276// 1277// 506//
f 506// 1277// 507//
f 1278// 1276// 505//
f 505// 1276// 506//
f 1279// 1278// 509//
f 509// 1278// 505//
f 1280// 1279// 508//
f 508// 1279// 509//
f 1281// 1280// 510//
f 510// 1280// 508//
f 1277// 1281// 507//
f 507// 1281// 510//
f 1278// 1279// 1276//
f 1276// 1279// 1280//
f 1276// 1280// 1277//
f 1277// 1280// 1281//
